ply
format ascii 1.0
comment provenance fitted_structural_not_observed_identity
comment seven editable closed parts with intentional joint overlap
element vertex 162
property float x
property float y
property float z
property uchar red
property uchar green
property uchar blue
property int part_id
element face 320
property list uchar int vertex_indices
property int part_id
end_header
0.161546455 0.179046149 -1.224250640 137 124 105 4
0.161530177 0.179081544 -1.225151370 137 124 105 4
0.161514000 0.179187513 -1.226046546 137 124 105 4
0.161498023 0.179363401 -1.226930649 137 124 105 4
0.161482344 0.179608123 -1.227798230 137 124 105 4
0.161467061 0.179920173 -1.228643938 137 124 105 4
0.161452268 0.180297624 -1.229462561 137 124 105 4
0.161438055 0.180738151 -1.230249050 137 124 105 4
0.161424510 0.181239038 -1.230998557 137 124 105 4
0.161411717 0.181797195 -1.231706460 137 124 105 4
0.161399755 0.182409182 -1.232368397 137 124 105 4
0.161388697 0.183071227 -1.232980284 137 124 105 4
0.161378612 0.183779246 -1.233538350 137 124 105 4
0.161369562 0.184528875 -1.234039155 137 124 105 4
0.161361602 0.185315493 -1.234479610 137 124 105 4
0.161354782 0.186134249 -1.234857000 137 124 105 4
0.161349144 0.186980095 -1.235168998 137 124 105 4
0.161344722 0.187847818 -1.235413681 137 124 105 4
0.161341544 0.188732066 -1.235589540 137 124 105 4
0.161339629 0.189627388 -1.235695492 137 124 105 4
0.161338990 0.190528264 -1.235730881 137 124 105 4
0.161339629 0.191429141 -1.235695492 137 124 105 4
0.161341544 0.192324463 -1.235589540 137 124 105 4
0.161344722 0.193208711 -1.235413681 137 124 105 4
0.161349144 0.194076433 -1.235168998 137 124 105 4
0.161354782 0.194922279 -1.234857000 137 124 105 4
0.161361602 0.195741035 -1.234479610 137 124 105 4
0.161369562 0.196527653 -1.234039155 137 124 105 4
0.161378612 0.197277282 -1.233538350 137 124 105 4
0.161388697 0.197985302 -1.232980284 137 124 105 4
0.161399755 0.198647346 -1.232368397 137 124 105 4
0.161411717 0.199259333 -1.231706460 137 124 105 4
0.161424510 0.199817491 -1.230998557 137 124 105 4
0.161438055 0.200318377 -1.230249050 137 124 105 4
0.161452268 0.200758904 -1.229462561 137 124 105 4
0.161467061 0.201136355 -1.228643938 137 124 105 4
0.161482344 0.201448405 -1.227798230 137 124 105 4
0.161498023 0.201693128 -1.226930649 137 124 105 4
0.161514000 0.201869016 -1.226046546 137 124 105 4
0.161530177 0.201974984 -1.225151370 137 124 105 4
0.161546455 0.202010379 -1.224250640 137 124 105 4
0.161562732 0.201974984 -1.223349911 137 124 105 4
0.161578909 0.201869016 -1.222454735 137 124 105 4
0.161594886 0.201693128 -1.221570631 137 124 105 4
0.161610565 0.201448405 -1.220703051 137 124 105 4
0.161625848 0.201136355 -1.219857342 137 124 105 4
0.161640642 0.200758904 -1.219038720 137 124 105 4
0.161654855 0.200318377 -1.218252231 137 124 105 4
0.161668399 0.199817491 -1.217502724 137 124 105 4
0.161681192 0.199259333 -1.216794820 137 124 105 4
0.161693155 0.198647346 -1.216132884 137 124 105 4
0.161704212 0.197985302 -1.215520997 137 124 105 4
0.161714297 0.197277282 -1.214962930 137 124 105 4
0.161723348 0.196527653 -1.214462126 137 124 105 4
0.161731307 0.195741035 -1.214021671 137 124 105 4
0.161738127 0.194922279 -1.213644281 137 124 105 4
0.161743766 0.194076433 -1.213332282 137 124 105 4
0.161748187 0.193208711 -1.213087599 137 124 105 4
0.161751365 0.192324463 -1.212911740 137 124 105 4
0.161753280 0.191429141 -1.212805789 137 124 105 4
0.161753920 0.190528264 -1.212770399 137 124 105 4
0.161753280 0.189627388 -1.212805789 137 124 105 4
0.161751365 0.188732066 -1.212911740 137 124 105 4
0.161748187 0.187847818 -1.213087599 137 124 105 4
0.161743766 0.186980095 -1.213332282 137 124 105 4
0.161738127 0.186134249 -1.213644281 137 124 105 4
0.161731307 0.185315493 -1.214021671 137 124 105 4
0.161723348 0.184528875 -1.214462126 137 124 105 4
0.161714297 0.183779246 -1.214962930 137 124 105 4
0.161704212 0.183071227 -1.215520997 137 124 105 4
0.161693155 0.182409182 -1.216132884 137 124 105 4
0.161681192 0.181797195 -1.216794820 137 124 105 4
0.161668399 0.181239038 -1.217502724 137 124 105 4
0.161654855 0.180738151 -1.218252231 137 124 105 4
0.161640642 0.180297624 -1.219038720 137 124 105 4
0.161625848 0.179920173 -1.219857342 137 124 105 4
0.161610565 0.179608123 -1.220703051 137 124 105 4
0.161594886 0.179363401 -1.221570631 137 124 105 4
0.161578909 0.179187513 -1.222454735 137 124 105 4
0.161562732 0.179081544 -1.223349911 137 124 105 4
0.534421619 0.179046149 -1.230989045 137 124 105 4
0.534405341 0.179081544 -1.231889775 137 124 105 4
0.534389164 0.179187513 -1.232784951 137 124 105 4
0.534373187 0.179363401 -1.233669054 137 124 105 4
0.534357508 0.179608123 -1.234536635 137 124 105 4
0.534342225 0.179920173 -1.235382343 137 124 105 4
0.534327432 0.180297624 -1.236200965 137 124 105 4
0.534313219 0.180738151 -1.236987455 137 124 105 4
0.534299674 0.181239038 -1.237736961 137 124 105 4
0.534286881 0.181797195 -1.238444865 137 124 105 4
0.534274919 0.182409182 -1.239106801 137 124 105 4
0.534263861 0.183071227 -1.239718689 137 124 105 4
0.534253776 0.183779246 -1.240276755 137 124 105 4
0.534244726 0.184528875 -1.240777560 137 124 105 4
0.534236766 0.185315493 -1.241218015 137 124 105 4
0.534229946 0.186134249 -1.241595405 137 124 105 4
0.534224308 0.186980095 -1.241907403 137 124 105 4
0.534219886 0.187847818 -1.242152086 137 124 105 4
0.534216708 0.188732066 -1.242327945 137 124 105 4
0.534214793 0.189627388 -1.242433896 137 124 105 4
0.534214154 0.190528264 -1.242469286 137 124 105 4
0.534214793 0.191429141 -1.242433896 137 124 105 4
0.534216708 0.192324463 -1.242327945 137 124 105 4
0.534219886 0.193208711 -1.242152086 137 124 105 4
0.534224308 0.194076433 -1.241907403 137 124 105 4
0.534229946 0.194922279 -1.241595405 137 124 105 4
0.534236766 0.195741035 -1.241218015 137 124 105 4
0.534244726 0.196527653 -1.240777560 137 124 105 4
0.534253776 0.197277282 -1.240276755 137 124 105 4
0.534263861 0.197985302 -1.239718689 137 124 105 4
0.534274919 0.198647346 -1.239106801 137 124 105 4
0.534286881 0.199259333 -1.238444865 137 124 105 4
0.534299674 0.199817491 -1.237736961 137 124 105 4
0.534313219 0.200318377 -1.236987455 137 124 105 4
0.534327432 0.200758904 -1.236200965 137 124 105 4
0.534342225 0.201136355 -1.235382343 137 124 105 4
0.534357508 0.201448405 -1.234536635 137 124 105 4
0.534373187 0.201693128 -1.233669054 137 124 105 4
0.534389164 0.201869016 -1.232784951 137 124 105 4
0.534405341 0.201974984 -1.231889775 137 124 105 4
0.534421619 0.202010379 -1.230989045 137 124 105 4
0.534437896 0.201974984 -1.230088316 137 124 105 4
0.534454073 0.201869016 -1.229193140 137 124 105 4
0.534470050 0.201693128 -1.228309036 137 124 105 4
0.534485729 0.201448405 -1.227441456 137 124 105 4
0.534501012 0.201136355 -1.226595747 137 124 105 4
0.534515806 0.200758904 -1.225777125 137 124 105 4
0.534530019 0.200318377 -1.224990636 137 124 105 4
0.534543563 0.199817491 -1.224241129 137 124 105 4
0.534556356 0.199259333 -1.223533225 137 124 105 4
0.534568319 0.198647346 -1.222871289 137 124 105 4
0.534579376 0.197985302 -1.222259402 137 124 105 4
0.534589461 0.197277282 -1.221701335 137 124 105 4
0.534598512 0.196527653 -1.221200531 137 124 105 4
0.534606471 0.195741035 -1.220760076 137 124 105 4
0.534613291 0.194922279 -1.220382686 137 124 105 4
0.534618930 0.194076433 -1.220070687 137 124 105 4
0.534623351 0.193208711 -1.219826004 137 124 105 4
0.534626529 0.192324463 -1.219650145 137 124 105 4
0.534628444 0.191429141 -1.219544194 137 124 105 4
0.534629084 0.190528264 -1.219508804 137 124 105 4
0.534628444 0.189627388 -1.219544194 137 124 105 4
0.534626529 0.188732066 -1.219650145 137 124 105 4
0.534623351 0.187847818 -1.219826004 137 124 105 4
0.534618930 0.186980095 -1.220070687 137 124 105 4
0.534613291 0.186134249 -1.220382686 137 124 105 4
0.534606471 0.185315493 -1.220760076 137 124 105 4
0.534598512 0.184528875 -1.221200531 137 124 105 4
0.534589461 0.183779246 -1.221701335 137 124 105 4
0.534579376 0.183071227 -1.222259402 137 124 105 4
0.534568319 0.182409182 -1.222871289 137 124 105 4
0.534556356 0.181797195 -1.223533225 137 124 105 4
0.534543563 0.181239038 -1.224241129 137 124 105 4
0.534530019 0.180738151 -1.224990636 137 124 105 4
0.534515806 0.180297624 -1.225777125 137 124 105 4
0.534501012 0.179920173 -1.226595747 137 124 105 4
0.534485729 0.179608123 -1.227441456 137 124 105 4
0.534470050 0.179363401 -1.228309036 137 124 105 4
0.534454073 0.179187513 -1.229193140 137 124 105 4
0.534437896 0.179081544 -1.230088316 137 124 105 4
0.161546455 0.190528264 -1.224250640 137 124 105 4
0.534421619 0.190528264 -1.230989045 137 124 105 4
3 0 1 81 4
3 0 81 80 4
3 160 1 0 4
3 161 80 81 4
3 1 2 82 4
3 1 82 81 4
3 160 2 1 4
3 161 81 82 4
3 2 3 83 4
3 2 83 82 4
3 160 3 2 4
3 161 82 83 4
3 3 4 84 4
3 3 84 83 4
3 160 4 3 4
3 161 83 84 4
3 4 5 85 4
3 4 85 84 4
3 160 5 4 4
3 161 84 85 4
3 5 6 86 4
3 5 86 85 4
3 160 6 5 4
3 161 85 86 4
3 6 7 87 4
3 6 87 86 4
3 160 7 6 4
3 161 86 87 4
3 7 8 88 4
3 7 88 87 4
3 160 8 7 4
3 161 87 88 4
3 8 9 89 4
3 8 89 88 4
3 160 9 8 4
3 161 88 89 4
3 9 10 90 4
3 9 90 89 4
3 160 10 9 4
3 161 89 90 4
3 10 11 91 4
3 10 91 90 4
3 160 11 10 4
3 161 90 91 4
3 11 12 92 4
3 11 92 91 4
3 160 12 11 4
3 161 91 92 4
3 12 13 93 4
3 12 93 92 4
3 160 13 12 4
3 161 92 93 4
3 13 14 94 4
3 13 94 93 4
3 160 14 13 4
3 161 93 94 4
3 14 15 95 4
3 14 95 94 4
3 160 15 14 4
3 161 94 95 4
3 15 16 96 4
3 15 96 95 4
3 160 16 15 4
3 161 95 96 4
3 16 17 97 4
3 16 97 96 4
3 160 17 16 4
3 161 96 97 4
3 17 18 98 4
3 17 98 97 4
3 160 18 17 4
3 161 97 98 4
3 18 19 99 4
3 18 99 98 4
3 160 19 18 4
3 161 98 99 4
3 19 20 100 4
3 19 100 99 4
3 160 20 19 4
3 161 99 100 4
3 20 21 101 4
3 20 101 100 4
3 160 21 20 4
3 161 100 101 4
3 21 22 102 4
3 21 102 101 4
3 160 22 21 4
3 161 101 102 4
3 22 23 103 4
3 22 103 102 4
3 160 23 22 4
3 161 102 103 4
3 23 24 104 4
3 23 104 103 4
3 160 24 23 4
3 161 103 104 4
3 24 25 105 4
3 24 105 104 4
3 160 25 24 4
3 161 104 105 4
3 25 26 106 4
3 25 106 105 4
3 160 26 25 4
3 161 105 106 4
3 26 27 107 4
3 26 107 106 4
3 160 27 26 4
3 161 106 107 4
3 27 28 108 4
3 27 108 107 4
3 160 28 27 4
3 161 107 108 4
3 28 29 109 4
3 28 109 108 4
3 160 29 28 4
3 161 108 109 4
3 29 30 110 4
3 29 110 109 4
3 160 30 29 4
3 161 109 110 4
3 30 31 111 4
3 30 111 110 4
3 160 31 30 4
3 161 110 111 4
3 31 32 112 4
3 31 112 111 4
3 160 32 31 4
3 161 111 112 4
3 32 33 113 4
3 32 113 112 4
3 160 33 32 4
3 161 112 113 4
3 33 34 114 4
3 33 114 113 4
3 160 34 33 4
3 161 113 114 4
3 34 35 115 4
3 34 115 114 4
3 160 35 34 4
3 161 114 115 4
3 35 36 116 4
3 35 116 115 4
3 160 36 35 4
3 161 115 116 4
3 36 37 117 4
3 36 117 116 4
3 160 37 36 4
3 161 116 117 4
3 37 38 118 4
3 37 118 117 4
3 160 38 37 4
3 161 117 118 4
3 38 39 119 4
3 38 119 118 4
3 160 39 38 4
3 161 118 119 4
3 39 40 120 4
3 39 120 119 4
3 160 40 39 4
3 161 119 120 4
3 40 41 121 4
3 40 121 120 4
3 160 41 40 4
3 161 120 121 4
3 41 42 122 4
3 41 122 121 4
3 160 42 41 4
3 161 121 122 4
3 42 43 123 4
3 42 123 122 4
3 160 43 42 4
3 161 122 123 4
3 43 44 124 4
3 43 124 123 4
3 160 44 43 4
3 161 123 124 4
3 44 45 125 4
3 44 125 124 4
3 160 45 44 4
3 161 124 125 4
3 45 46 126 4
3 45 126 125 4
3 160 46 45 4
3 161 125 126 4
3 46 47 127 4
3 46 127 126 4
3 160 47 46 4
3 161 126 127 4
3 47 48 128 4
3 47 128 127 4
3 160 48 47 4
3 161 127 128 4
3 48 49 129 4
3 48 129 128 4
3 160 49 48 4
3 161 128 129 4
3 49 50 130 4
3 49 130 129 4
3 160 50 49 4
3 161 129 130 4
3 50 51 131 4
3 50 131 130 4
3 160 51 50 4
3 161 130 131 4
3 51 52 132 4
3 51 132 131 4
3 160 52 51 4
3 161 131 132 4
3 52 53 133 4
3 52 133 132 4
3 160 53 52 4
3 161 132 133 4
3 53 54 134 4
3 53 134 133 4
3 160 54 53 4
3 161 133 134 4
3 54 55 135 4
3 54 135 134 4
3 160 55 54 4
3 161 134 135 4
3 55 56 136 4
3 55 136 135 4
3 160 56 55 4
3 161 135 136 4
3 56 57 137 4
3 56 137 136 4
3 160 57 56 4
3 161 136 137 4
3 57 58 138 4
3 57 138 137 4
3 160 58 57 4
3 161 137 138 4
3 58 59 139 4
3 58 139 138 4
3 160 59 58 4
3 161 138 139 4
3 59 60 140 4
3 59 140 139 4
3 160 60 59 4
3 161 139 140 4
3 60 61 141 4
3 60 141 140 4
3 160 61 60 4
3 161 140 141 4
3 61 62 142 4
3 61 142 141 4
3 160 62 61 4
3 161 141 142 4
3 62 63 143 4
3 62 143 142 4
3 160 63 62 4
3 161 142 143 4
3 63 64 144 4
3 63 144 143 4
3 160 64 63 4
3 161 143 144 4
3 64 65 145 4
3 64 145 144 4
3 160 65 64 4
3 161 144 145 4
3 65 66 146 4
3 65 146 145 4
3 160 66 65 4
3 161 145 146 4
3 66 67 147 4
3 66 147 146 4
3 160 67 66 4
3 161 146 147 4
3 67 68 148 4
3 67 148 147 4
3 160 68 67 4
3 161 147 148 4
3 68 69 149 4
3 68 149 148 4
3 160 69 68 4
3 161 148 149 4
3 69 70 150 4
3 69 150 149 4
3 160 70 69 4
3 161 149 150 4
3 70 71 151 4
3 70 151 150 4
3 160 71 70 4
3 161 150 151 4
3 71 72 152 4
3 71 152 151 4
3 160 72 71 4
3 161 151 152 4
3 72 73 153 4
3 72 153 152 4
3 160 73 72 4
3 161 152 153 4
3 73 74 154 4
3 73 154 153 4
3 160 74 73 4
3 161 153 154 4
3 74 75 155 4
3 74 155 154 4
3 160 75 74 4
3 161 154 155 4
3 75 76 156 4
3 75 156 155 4
3 160 76 75 4
3 161 155 156 4
3 76 77 157 4
3 76 157 156 4
3 160 77 76 4
3 161 156 157 4
3 77 78 158 4
3 77 158 157 4
3 160 78 77 4
3 161 157 158 4
3 78 79 159 4
3 78 159 158 4
3 160 79 78 4
3 161 158 159 4
3 79 0 80 4
3 79 80 159 4
3 160 0 79 4
3 161 159 80 4
