ply
format ascii 1.0
comment provenance fitted_structural_not_observed_identity
comment seven editable closed parts with intentional joint overlap
element vertex 162
property float x
property float y
property float z
property uchar red
property uchar green
property uchar blue
property int part_id
element face 320
property list uchar int vertex_indices
property int part_id
end_header
0.353717549 0.178077903 -0.903997433 132 120 100 6
0.352909441 0.178114933 -0.903512438 132 120 100 6
0.352106315 0.178225795 -0.903030434 132 120 100 6
0.351313122 0.178409804 -0.902554391 132 120 100 6
0.350534754 0.178665828 -0.902087245 132 120 100 6
0.349776009 0.178992286 -0.901631876 132 120 100 6
0.349041565 0.179387167 -0.901191092 132 120 100 6
0.348335950 0.179848035 -0.900767609 132 120 100 6
0.347663514 0.180372050 -0.900364040 132 120 100 6
0.347028403 0.180955981 -0.899982871 132 120 100 6
0.346434533 0.181596227 -0.899626454 132 120 100 6
0.345885565 0.182288842 -0.899296985 132 120 100 6
0.345384884 0.183029554 -0.898996496 132 120 100 6
0.344935577 0.183813798 -0.898726840 132 120 100 6
0.344540413 0.184636738 -0.898489678 132 120 100 6
0.344201830 0.185493301 -0.898286474 132 120 100 6
0.343921914 0.186378205 -0.898118479 132 120 100 6
0.343702392 0.187285994 -0.897986730 132 120 100 6
0.343544616 0.188211073 -0.897892040 132 120 100 6
0.343449560 0.189147737 -0.897834991 132 120 100 6
0.343417809 0.190090212 -0.897815935 132 120 100 6
0.343449560 0.191032687 -0.897834991 132 120 100 6
0.343544616 0.191969351 -0.897892040 132 120 100 6
0.343702392 0.192894430 -0.897986730 132 120 100 6
0.343921914 0.193802220 -0.898118479 132 120 100 6
0.344201830 0.194687124 -0.898286474 132 120 100 6
0.344540413 0.195543686 -0.898489678 132 120 100 6
0.344935577 0.196366626 -0.898726840 132 120 100 6
0.345384884 0.197150870 -0.898996496 132 120 100 6
0.345885565 0.197891583 -0.899296985 132 120 100 6
0.346434533 0.198584197 -0.899626454 132 120 100 6
0.347028403 0.199224443 -0.899982871 132 120 100 6
0.347663514 0.199808374 -0.900364040 132 120 100 6
0.348335950 0.200332389 -0.900767609 132 120 100 6
0.349041565 0.200793258 -0.901191092 132 120 100 6
0.349776009 0.201188138 -0.901631876 132 120 100 6
0.350534754 0.201514597 -0.902087245 132 120 100 6
0.351313122 0.201770620 -0.902554391 132 120 100 6
0.352106315 0.201954629 -0.903030434 132 120 100 6
0.352909441 0.202065491 -0.903512438 132 120 100 6
0.353717549 0.202102521 -0.903997433 132 120 100 6
0.354525657 0.202065491 -0.904482428 132 120 100 6
0.355328783 0.201954629 -0.904964432 132 120 100 6
0.356121976 0.201770620 -0.905440475 132 120 100 6
0.356900344 0.201514597 -0.905907621 132 120 100 6
0.357659089 0.201188138 -0.906362990 132 120 100 6
0.358393533 0.200793258 -0.906803774 132 120 100 6
0.359099148 0.200332389 -0.907227257 132 120 100 6
0.359771584 0.199808374 -0.907630826 132 120 100 6
0.360406695 0.199224443 -0.908011995 132 120 100 6
0.361000565 0.198584197 -0.908368412 132 120 100 6
0.361549533 0.197891583 -0.908697881 132 120 100 6
0.362050214 0.197150870 -0.908998370 132 120 100 6
0.362499521 0.196366626 -0.909268026 132 120 100 6
0.362894685 0.195543686 -0.909505188 132 120 100 6
0.363233268 0.194687124 -0.909708392 132 120 100 6
0.363513184 0.193802220 -0.909876387 132 120 100 6
0.363732706 0.192894430 -0.910008136 132 120 100 6
0.363890482 0.191969351 -0.910102826 132 120 100 6
0.363985538 0.191032687 -0.910159876 132 120 100 6
0.364017289 0.190090212 -0.910178931 132 120 100 6
0.363985538 0.189147737 -0.910159876 132 120 100 6
0.363890482 0.188211073 -0.910102826 132 120 100 6
0.363732706 0.187285994 -0.910008136 132 120 100 6
0.363513184 0.186378205 -0.909876387 132 120 100 6
0.363233268 0.185493301 -0.909708392 132 120 100 6
0.362894685 0.184636738 -0.909505188 132 120 100 6
0.362499521 0.183813798 -0.909268026 132 120 100 6
0.362050214 0.183029554 -0.908998370 132 120 100 6
0.361549533 0.182288842 -0.908697881 132 120 100 6
0.361000565 0.181596227 -0.908368412 132 120 100 6
0.360406695 0.180955981 -0.908011995 132 120 100 6
0.359771584 0.180372050 -0.907630826 132 120 100 6
0.359099148 0.179848035 -0.907227257 132 120 100 6
0.358393533 0.179387167 -0.906803774 132 120 100 6
0.357659089 0.178992286 -0.906362990 132 120 100 6
0.356900344 0.178665828 -0.905907621 132 120 100 6
0.356121976 0.178409804 -0.905440475 132 120 100 6
0.355328783 0.178225795 -0.904964432 132 120 100 6
0.354525657 0.178114933 -0.904482428 132 120 100 6
0.161497412 0.178077903 -1.224278611 132 120 100 6
0.160689304 0.178114933 -1.223793617 132 120 100 6
0.159886178 0.178225795 -1.223311612 132 120 100 6
0.159092985 0.178409804 -1.222835569 132 120 100 6
0.158314617 0.178665828 -1.222368424 132 120 100 6
0.157555872 0.178992286 -1.221913055 132 120 100 6
0.156821428 0.179387167 -1.221472270 132 120 100 6
0.156115813 0.179848035 -1.221048788 132 120 100 6
0.155443377 0.180372050 -1.220645218 132 120 100 6
0.154808266 0.180955981 -1.220264050 132 120 100 6
0.154214396 0.181596227 -1.219907632 132 120 100 6
0.153665428 0.182288842 -1.219578164 132 120 100 6
0.153164747 0.183029554 -1.219277675 132 120 100 6
0.152715440 0.183813798 -1.219008018 132 120 100 6
0.152320276 0.184636738 -1.218770856 132 120 100 6
0.151981693 0.185493301 -1.218567652 132 120 100 6
0.151701777 0.186378205 -1.218399658 132 120 100 6
0.151482254 0.187285994 -1.218267909 132 120 100 6
0.151324479 0.188211073 -1.218173218 132 120 100 6
0.151229423 0.189147737 -1.218116169 132 120 100 6
0.151197672 0.190090212 -1.218097114 132 120 100 6
0.151229423 0.191032687 -1.218116169 132 120 100 6
0.151324479 0.191969351 -1.218173218 132 120 100 6
0.151482254 0.192894430 -1.218267909 132 120 100 6
0.151701777 0.193802220 -1.218399658 132 120 100 6
0.151981693 0.194687124 -1.218567652 132 120 100 6
0.152320276 0.195543686 -1.218770856 132 120 100 6
0.152715440 0.196366626 -1.219008018 132 120 100 6
0.153164747 0.197150870 -1.219277675 132 120 100 6
0.153665428 0.197891583 -1.219578164 132 120 100 6
0.154214396 0.198584197 -1.219907632 132 120 100 6
0.154808266 0.199224443 -1.220264050 132 120 100 6
0.155443377 0.199808374 -1.220645218 132 120 100 6
0.156115813 0.200332389 -1.221048788 132 120 100 6
0.156821428 0.200793258 -1.221472270 132 120 100 6
0.157555872 0.201188138 -1.221913055 132 120 100 6
0.158314617 0.201514597 -1.222368424 132 120 100 6
0.159092985 0.201770620 -1.222835569 132 120 100 6
0.159886178 0.201954629 -1.223311612 132 120 100 6
0.160689304 0.202065491 -1.223793617 132 120 100 6
0.161497412 0.202102521 -1.224278611 132 120 100 6
0.162305520 0.202065491 -1.224763606 132 120 100 6
0.163108646 0.201954629 -1.225245611 132 120 100 6
0.163901839 0.201770620 -1.225721654 132 120 100 6
0.164680207 0.201514597 -1.226188799 132 120 100 6
0.165438952 0.201188138 -1.226644168 132 120 100 6
0.166173396 0.200793258 -1.227084953 132 120 100 6
0.166879011 0.200332389 -1.227508435 132 120 100 6
0.167551447 0.199808374 -1.227912005 132 120 100 6
0.168186558 0.199224443 -1.228293173 132 120 100 6
0.168780428 0.198584197 -1.228649591 132 120 100 6
0.169329396 0.197891583 -1.228979059 132 120 100 6
0.169830077 0.197150870 -1.229279548 132 120 100 6
0.170279384 0.196366626 -1.229549205 132 120 100 6
0.170674548 0.195543686 -1.229786366 132 120 100 6
0.171013131 0.194687124 -1.229989571 132 120 100 6
0.171293047 0.193802220 -1.230157565 132 120 100 6
0.171512569 0.192894430 -1.230289314 132 120 100 6
0.171670345 0.191969351 -1.230384005 132 120 100 6
0.171765401 0.191032687 -1.230441054 132 120 100 6
0.171797152 0.190090212 -1.230460109 132 120 100 6
0.171765401 0.189147737 -1.230441054 132 120 100 6
0.171670345 0.188211073 -1.230384005 132 120 100 6
0.171512569 0.187285994 -1.230289314 132 120 100 6
0.171293047 0.186378205 -1.230157565 132 120 100 6
0.171013131 0.185493301 -1.229989571 132 120 100 6
0.170674548 0.184636738 -1.229786366 132 120 100 6
0.170279384 0.183813798 -1.229549205 132 120 100 6
0.169830077 0.183029554 -1.229279548 132 120 100 6
0.169329396 0.182288842 -1.228979059 132 120 100 6
0.168780428 0.181596227 -1.228649591 132 120 100 6
0.168186558 0.180955981 -1.228293173 132 120 100 6
0.167551447 0.180372050 -1.227912005 132 120 100 6
0.166879011 0.179848035 -1.227508435 132 120 100 6
0.166173396 0.179387167 -1.227084953 132 120 100 6
0.165438952 0.178992286 -1.226644168 132 120 100 6
0.164680207 0.178665828 -1.226188799 132 120 100 6
0.163901839 0.178409804 -1.225721654 132 120 100 6
0.163108646 0.178225795 -1.225245611 132 120 100 6
0.162305520 0.178114933 -1.224763606 132 120 100 6
0.353717549 0.190090212 -0.903997433 132 120 100 6
0.161497412 0.190090212 -1.224278611 132 120 100 6
3 0 1 81 6
3 0 81 80 6
3 160 1 0 6
3 161 80 81 6
3 1 2 82 6
3 1 82 81 6
3 160 2 1 6
3 161 81 82 6
3 2 3 83 6
3 2 83 82 6
3 160 3 2 6
3 161 82 83 6
3 3 4 84 6
3 3 84 83 6
3 160 4 3 6
3 161 83 84 6
3 4 5 85 6
3 4 85 84 6
3 160 5 4 6
3 161 84 85 6
3 5 6 86 6
3 5 86 85 6
3 160 6 5 6
3 161 85 86 6
3 6 7 87 6
3 6 87 86 6
3 160 7 6 6
3 161 86 87 6
3 7 8 88 6
3 7 88 87 6
3 160 8 7 6
3 161 87 88 6
3 8 9 89 6
3 8 89 88 6
3 160 9 8 6
3 161 88 89 6
3 9 10 90 6
3 9 90 89 6
3 160 10 9 6
3 161 89 90 6
3 10 11 91 6
3 10 91 90 6
3 160 11 10 6
3 161 90 91 6
3 11 12 92 6
3 11 92 91 6
3 160 12 11 6
3 161 91 92 6
3 12 13 93 6
3 12 93 92 6
3 160 13 12 6
3 161 92 93 6
3 13 14 94 6
3 13 94 93 6
3 160 14 13 6
3 161 93 94 6
3 14 15 95 6
3 14 95 94 6
3 160 15 14 6
3 161 94 95 6
3 15 16 96 6
3 15 96 95 6
3 160 16 15 6
3 161 95 96 6
3 16 17 97 6
3 16 97 96 6
3 160 17 16 6
3 161 96 97 6
3 17 18 98 6
3 17 98 97 6
3 160 18 17 6
3 161 97 98 6
3 18 19 99 6
3 18 99 98 6
3 160 19 18 6
3 161 98 99 6
3 19 20 100 6
3 19 100 99 6
3 160 20 19 6
3 161 99 100 6
3 20 21 101 6
3 20 101 100 6
3 160 21 20 6
3 161 100 101 6
3 21 22 102 6
3 21 102 101 6
3 160 22 21 6
3 161 101 102 6
3 22 23 103 6
3 22 103 102 6
3 160 23 22 6
3 161 102 103 6
3 23 24 104 6
3 23 104 103 6
3 160 24 23 6
3 161 103 104 6
3 24 25 105 6
3 24 105 104 6
3 160 25 24 6
3 161 104 105 6
3 25 26 106 6
3 25 106 105 6
3 160 26 25 6
3 161 105 106 6
3 26 27 107 6
3 26 107 106 6
3 160 27 26 6
3 161 106 107 6
3 27 28 108 6
3 27 108 107 6
3 160 28 27 6
3 161 107 108 6
3 28 29 109 6
3 28 109 108 6
3 160 29 28 6
3 161 108 109 6
3 29 30 110 6
3 29 110 109 6
3 160 30 29 6
3 161 109 110 6
3 30 31 111 6
3 30 111 110 6
3 160 31 30 6
3 161 110 111 6
3 31 32 112 6
3 31 112 111 6
3 160 32 31 6
3 161 111 112 6
3 32 33 113 6
3 32 113 112 6
3 160 33 32 6
3 161 112 113 6
3 33 34 114 6
3 33 114 113 6
3 160 34 33 6
3 161 113 114 6
3 34 35 115 6
3 34 115 114 6
3 160 35 34 6
3 161 114 115 6
3 35 36 116 6
3 35 116 115 6
3 160 36 35 6
3 161 115 116 6
3 36 37 117 6
3 36 117 116 6
3 160 37 36 6
3 161 116 117 6
3 37 38 118 6
3 37 118 117 6
3 160 38 37 6
3 161 117 118 6
3 38 39 119 6
3 38 119 118 6
3 160 39 38 6
3 161 118 119 6
3 39 40 120 6
3 39 120 119 6
3 160 40 39 6
3 161 119 120 6
3 40 41 121 6
3 40 121 120 6
3 160 41 40 6
3 161 120 121 6
3 41 42 122 6
3 41 122 121 6
3 160 42 41 6
3 161 121 122 6
3 42 43 123 6
3 42 123 122 6
3 160 43 42 6
3 161 122 123 6
3 43 44 124 6
3 43 124 123 6
3 160 44 43 6
3 161 123 124 6
3 44 45 125 6
3 44 125 124 6
3 160 45 44 6
3 161 124 125 6
3 45 46 126 6
3 45 126 125 6
3 160 46 45 6
3 161 125 126 6
3 46 47 127 6
3 46 127 126 6
3 160 47 46 6
3 161 126 127 6
3 47 48 128 6
3 47 128 127 6
3 160 48 47 6
3 161 127 128 6
3 48 49 129 6
3 48 129 128 6
3 160 49 48 6
3 161 128 129 6
3 49 50 130 6
3 49 130 129 6
3 160 50 49 6
3 161 129 130 6
3 50 51 131 6
3 50 131 130 6
3 160 51 50 6
3 161 130 131 6
3 51 52 132 6
3 51 132 131 6
3 160 52 51 6
3 161 131 132 6
3 52 53 133 6
3 52 133 132 6
3 160 53 52 6
3 161 132 133 6
3 53 54 134 6
3 53 134 133 6
3 160 54 53 6
3 161 133 134 6
3 54 55 135 6
3 54 135 134 6
3 160 55 54 6
3 161 134 135 6
3 55 56 136 6
3 55 136 135 6
3 160 56 55 6
3 161 135 136 6
3 56 57 137 6
3 56 137 136 6
3 160 57 56 6
3 161 136 137 6
3 57 58 138 6
3 57 138 137 6
3 160 58 57 6
3 161 137 138 6
3 58 59 139 6
3 58 139 138 6
3 160 59 58 6
3 161 138 139 6
3 59 60 140 6
3 59 140 139 6
3 160 60 59 6
3 161 139 140 6
3 60 61 141 6
3 60 141 140 6
3 160 61 60 6
3 161 140 141 6
3 61 62 142 6
3 61 142 141 6
3 160 62 61 6
3 161 141 142 6
3 62 63 143 6
3 62 143 142 6
3 160 63 62 6
3 161 142 143 6
3 63 64 144 6
3 63 144 143 6
3 160 64 63 6
3 161 143 144 6
3 64 65 145 6
3 64 145 144 6
3 160 65 64 6
3 161 144 145 6
3 65 66 146 6
3 65 146 145 6
3 160 66 65 6
3 161 145 146 6
3 66 67 147 6
3 66 147 146 6
3 160 67 66 6
3 161 146 147 6
3 67 68 148 6
3 67 148 147 6
3 160 68 67 6
3 161 147 148 6
3 68 69 149 6
3 68 149 148 6
3 160 69 68 6
3 161 148 149 6
3 69 70 150 6
3 69 150 149 6
3 160 70 69 6
3 161 149 150 6
3 70 71 151 6
3 70 151 150 6
3 160 71 70 6
3 161 150 151 6
3 71 72 152 6
3 71 152 151 6
3 160 72 71 6
3 161 151 152 6
3 72 73 153 6
3 72 153 152 6
3 160 73 72 6
3 161 152 153 6
3 73 74 154 6
3 73 154 153 6
3 160 74 73 6
3 161 153 154 6
3 74 75 155 6
3 74 155 154 6
3 160 75 74 6
3 161 154 155 6
3 75 76 156 6
3 75 156 155 6
3 160 76 75 6
3 161 155 156 6
3 76 77 157 6
3 76 157 156 6
3 160 77 76 6
3 161 156 157 6
3 77 78 158 6
3 77 158 157 6
3 160 78 77 6
3 161 157 158 6
3 78 79 159 6
3 78 159 158 6
3 160 79 78 6
3 161 158 159 6
3 79 0 80 6
3 79 80 159 6
3 160 0 79 6
3 161 159 80 6
