ply
format ascii 1.0
comment provenance fitted_structural_not_observed_identity
comment seven editable closed parts with intentional joint overlap
element vertex 162
property float x
property float y
property float z
property uchar red
property uchar green
property uchar blue
property int part_id
element face 320
property list uchar int vertex_indices
property int part_id
end_header
0.534439073 0.202157653 -1.231000261 139 126 106 5
0.533629611 0.202121314 -1.231447668 139 126 106 5
0.532825139 0.202012522 -1.231892318 139 126 106 5
0.532030618 0.201831948 -1.232331467 139 126 106 5
0.531250946 0.201580705 -1.232762409 139 126 106 5
0.530490929 0.201260341 -1.233182487 139 126 106 5
0.529755255 0.200872832 -1.233589111 139 126 106 5
0.529048457 0.200420568 -1.233979773 139 126 106 5
0.528374895 0.199906335 -1.234352066 139 126 106 5
0.527738720 0.199333306 -1.234703694 139 126 106 5
0.527143855 0.198705013 -1.235032489 139 126 106 5
0.526593967 0.198025329 -1.235336424 139 126 106 5
0.526092447 0.197298444 -1.235613626 139 126 106 5
0.525642387 0.196528841 -1.235862384 139 126 106 5
0.525246562 0.195721265 -1.236081165 139 126 106 5
0.524907411 0.194880693 -1.236268621 139 126 106 5
0.524627026 0.194012310 -1.236423596 139 126 106 5
0.524407136 0.193121467 -1.236545135 139 126 106 5
0.524249096 0.192213659 -1.236632487 139 126 106 5
0.524153880 0.191294481 -1.236685115 139 126 106 5
0.524122076 0.190369601 -1.236702693 139 126 106 5
0.524153880 0.189444722 -1.236685115 139 126 106 5
0.524249096 0.188525544 -1.236632487 139 126 106 5
0.524407136 0.187617736 -1.236545135 139 126 106 5
0.524627026 0.186726893 -1.236423596 139 126 106 5
0.524907411 0.185858509 -1.236268621 139 126 106 5
0.525246562 0.185017938 -1.236081165 139 126 106 5
0.525642387 0.184210362 -1.235862384 139 126 106 5
0.526092447 0.183440759 -1.235613626 139 126 106 5
0.526593967 0.182713874 -1.235336424 139 126 106 5
0.527143855 0.182034190 -1.235032489 139 126 106 5
0.527738720 0.181405897 -1.234703694 139 126 106 5
0.528374895 0.180832868 -1.234352066 139 126 106 5
0.529048457 0.180318635 -1.233979773 139 126 106 5
0.529755255 0.179866371 -1.233589111 139 126 106 5
0.530490929 0.179478862 -1.233182487 139 126 106 5
0.531250946 0.179158498 -1.232762409 139 126 106 5
0.532030618 0.178907255 -1.232331467 139 126 106 5
0.532825139 0.178726680 -1.231892318 139 126 106 5
0.533629611 0.178617889 -1.231447668 139 126 106 5
0.534439073 0.178581550 -1.231000261 139 126 106 5
0.535248535 0.178617889 -1.230552853 139 126 106 5
0.536053007 0.178726680 -1.230108204 139 126 106 5
0.536847528 0.178907255 -1.229669054 139 126 106 5
0.537627200 0.179158498 -1.229238112 139 126 106 5
0.538387217 0.179478862 -1.228818034 139 126 106 5
0.539122891 0.179866371 -1.228411410 139 126 106 5
0.539829689 0.180318635 -1.228020748 139 126 106 5
0.540503251 0.180832868 -1.227648455 139 126 106 5
0.541139426 0.181405897 -1.227296827 139 126 106 5
0.541734291 0.182034190 -1.226968032 139 126 106 5
0.542284179 0.182713874 -1.226664097 139 126 106 5
0.542785699 0.183440759 -1.226386896 139 126 106 5
0.543235759 0.184210362 -1.226138137 139 126 106 5
0.543631584 0.185017938 -1.225919356 139 126 106 5
0.543970735 0.185858509 -1.225731900 139 126 106 5
0.544251120 0.186726893 -1.225576925 139 126 106 5
0.544471010 0.187617736 -1.225455386 139 126 106 5
0.544629050 0.188525544 -1.225368034 139 126 106 5
0.544724266 0.189444722 -1.225315407 139 126 106 5
0.544756070 0.190369601 -1.225297828 139 126 106 5
0.544724266 0.191294481 -1.225315407 139 126 106 5
0.544629050 0.192213659 -1.225368034 139 126 106 5
0.544471010 0.193121467 -1.225455386 139 126 106 5
0.544251120 0.194012310 -1.225576925 139 126 106 5
0.543970735 0.194880693 -1.225731900 139 126 106 5
0.543631584 0.195721265 -1.225919356 139 126 106 5
0.543235759 0.196528841 -1.226138137 139 126 106 5
0.542785699 0.197298444 -1.226386896 139 126 106 5
0.542284179 0.198025329 -1.226664097 139 126 106 5
0.541734291 0.198705013 -1.226968032 139 126 106 5
0.541139426 0.199333306 -1.227296827 139 126 106 5
0.540503251 0.199906335 -1.227648455 139 126 106 5
0.539829689 0.200420568 -1.228020748 139 126 106 5
0.539122891 0.200872832 -1.228411410 139 126 106 5
0.538387217 0.201260341 -1.228818034 139 126 106 5
0.537627200 0.201580705 -1.229238112 139 126 106 5
0.536847528 0.201831948 -1.229669054 139 126 106 5
0.536053007 0.202012522 -1.230108204 139 126 106 5
0.535248535 0.202121314 -1.230552853 139 126 106 5
0.353718276 0.202157653 -0.904035274 139 126 106 5
0.352908813 0.202121314 -0.904482682 139 126 106 5
0.352104342 0.202012522 -0.904927331 139 126 106 5
0.351309821 0.201831948 -0.905366481 139 126 106 5
0.350530148 0.201580705 -0.905797423 139 126 106 5
0.349770132 0.201260341 -0.906217501 139 126 106 5
0.349034457 0.200872832 -0.906624124 139 126 106 5
0.348327660 0.200420568 -0.907014787 139 126 106 5
0.347654097 0.199906335 -0.907387080 139 126 106 5
0.347017922 0.199333306 -0.907738708 139 126 106 5
0.346423057 0.198705013 -0.908067503 139 126 106 5
0.345873170 0.198025329 -0.908371438 139 126 106 5
0.345371650 0.197298444 -0.908648639 139 126 106 5
0.344921590 0.196528841 -0.908897397 139 126 106 5
0.344525764 0.195721265 -0.909116179 139 126 106 5
0.344186614 0.194880693 -0.909303635 139 126 106 5
0.343906229 0.194012310 -0.909458610 139 126 106 5
0.343686338 0.193121467 -0.909580148 139 126 106 5
0.343528298 0.192213659 -0.909667500 139 126 106 5
0.343433083 0.191294481 -0.909720128 139 126 106 5
0.343401279 0.190369601 -0.909737707 139 126 106 5
0.343433083 0.189444722 -0.909720128 139 126 106 5
0.343528298 0.188525544 -0.909667500 139 126 106 5
0.343686338 0.187617736 -0.909580148 139 126 106 5
0.343906229 0.186726893 -0.909458610 139 126 106 5
0.344186614 0.185858509 -0.909303635 139 126 106 5
0.344525764 0.185017938 -0.909116179 139 126 106 5
0.344921590 0.184210362 -0.908897397 139 126 106 5
0.345371650 0.183440759 -0.908648639 139 126 106 5
0.345873170 0.182713874 -0.908371438 139 126 106 5
0.346423057 0.182034190 -0.908067503 139 126 106 5
0.347017922 0.181405897 -0.907738708 139 126 106 5
0.347654097 0.180832868 -0.907387080 139 126 106 5
0.348327660 0.180318635 -0.907014787 139 126 106 5
0.349034457 0.179866371 -0.906624124 139 126 106 5
0.349770132 0.179478862 -0.906217501 139 126 106 5
0.350530148 0.179158498 -0.905797423 139 126 106 5
0.351309821 0.178907255 -0.905366481 139 126 106 5
0.352104342 0.178726680 -0.904927331 139 126 106 5
0.352908813 0.178617889 -0.904482682 139 126 106 5
0.353718276 0.178581550 -0.904035274 139 126 106 5
0.354527738 0.178617889 -0.903587866 139 126 106 5
0.355332209 0.178726680 -0.903143217 139 126 106 5
0.356126731 0.178907255 -0.902704068 139 126 106 5
0.356906403 0.179158498 -0.902273125 139 126 106 5
0.357666419 0.179478862 -0.901853048 139 126 106 5
0.358402094 0.179866371 -0.901446424 139 126 106 5
0.359108891 0.180318635 -0.901055761 139 126 106 5
0.359782454 0.180832868 -0.900683468 139 126 106 5
0.360418629 0.181405897 -0.900331840 139 126 106 5
0.361013494 0.182034190 -0.900003045 139 126 106 5
0.361563381 0.182713874 -0.899699110 139 126 106 5
0.362064901 0.183440759 -0.899421909 139 126 106 5
0.362514961 0.184210362 -0.899173151 139 126 106 5
0.362910787 0.185017938 -0.898954369 139 126 106 5
0.363249938 0.185858509 -0.898766913 139 126 106 5
0.363530322 0.186726893 -0.898611938 139 126 106 5
0.363750213 0.187617736 -0.898490400 139 126 106 5
0.363908253 0.188525544 -0.898403048 139 126 106 5
0.364003468 0.189444722 -0.898350420 139 126 106 5
0.364035272 0.190369601 -0.898332841 139 126 106 5
0.364003468 0.191294481 -0.898350420 139 126 106 5
0.363908253 0.192213659 -0.898403048 139 126 106 5
0.363750213 0.193121467 -0.898490400 139 126 106 5
0.363530322 0.194012310 -0.898611938 139 126 106 5
0.363249938 0.194880693 -0.898766913 139 126 106 5
0.362910787 0.195721265 -0.898954369 139 126 106 5
0.362514961 0.196528841 -0.899173151 139 126 106 5
0.362064901 0.197298444 -0.899421909 139 126 106 5
0.361563381 0.198025329 -0.899699110 139 126 106 5
0.361013494 0.198705013 -0.900003045 139 126 106 5
0.360418629 0.199333306 -0.900331840 139 126 106 5
0.359782454 0.199906335 -0.900683468 139 126 106 5
0.359108891 0.200420568 -0.901055761 139 126 106 5
0.358402094 0.200872832 -0.901446424 139 126 106 5
0.357666419 0.201260341 -0.901853048 139 126 106 5
0.356906403 0.201580705 -0.902273125 139 126 106 5
0.356126731 0.201831948 -0.902704068 139 126 106 5
0.355332209 0.202012522 -0.903143217 139 126 106 5
0.354527738 0.202121314 -0.903587866 139 126 106 5
0.534439073 0.190369601 -1.231000261 139 126 106 5
0.353718276 0.190369601 -0.904035274 139 126 106 5
3 0 1 81 5
3 0 81 80 5
3 160 1 0 5
3 161 80 81 5
3 1 2 82 5
3 1 82 81 5
3 160 2 1 5
3 161 81 82 5
3 2 3 83 5
3 2 83 82 5
3 160 3 2 5
3 161 82 83 5
3 3 4 84 5
3 3 84 83 5
3 160 4 3 5
3 161 83 84 5
3 4 5 85 5
3 4 85 84 5
3 160 5 4 5
3 161 84 85 5
3 5 6 86 5
3 5 86 85 5
3 160 6 5 5
3 161 85 86 5
3 6 7 87 5
3 6 87 86 5
3 160 7 6 5
3 161 86 87 5
3 7 8 88 5
3 7 88 87 5
3 160 8 7 5
3 161 87 88 5
3 8 9 89 5
3 8 89 88 5
3 160 9 8 5
3 161 88 89 5
3 9 10 90 5
3 9 90 89 5
3 160 10 9 5
3 161 89 90 5
3 10 11 91 5
3 10 91 90 5
3 160 11 10 5
3 161 90 91 5
3 11 12 92 5
3 11 92 91 5
3 160 12 11 5
3 161 91 92 5
3 12 13 93 5
3 12 93 92 5
3 160 13 12 5
3 161 92 93 5
3 13 14 94 5
3 13 94 93 5
3 160 14 13 5
3 161 93 94 5
3 14 15 95 5
3 14 95 94 5
3 160 15 14 5
3 161 94 95 5
3 15 16 96 5
3 15 96 95 5
3 160 16 15 5
3 161 95 96 5
3 16 17 97 5
3 16 97 96 5
3 160 17 16 5
3 161 96 97 5
3 17 18 98 5
3 17 98 97 5
3 160 18 17 5
3 161 97 98 5
3 18 19 99 5
3 18 99 98 5
3 160 19 18 5
3 161 98 99 5
3 19 20 100 5
3 19 100 99 5
3 160 20 19 5
3 161 99 100 5
3 20 21 101 5
3 20 101 100 5
3 160 21 20 5
3 161 100 101 5
3 21 22 102 5
3 21 102 101 5
3 160 22 21 5
3 161 101 102 5
3 22 23 103 5
3 22 103 102 5
3 160 23 22 5
3 161 102 103 5
3 23 24 104 5
3 23 104 103 5
3 160 24 23 5
3 161 103 104 5
3 24 25 105 5
3 24 105 104 5
3 160 25 24 5
3 161 104 105 5
3 25 26 106 5
3 25 106 105 5
3 160 26 25 5
3 161 105 106 5
3 26 27 107 5
3 26 107 106 5
3 160 27 26 5
3 161 106 107 5
3 27 28 108 5
3 27 108 107 5
3 160 28 27 5
3 161 107 108 5
3 28 29 109 5
3 28 109 108 5
3 160 29 28 5
3 161 108 109 5
3 29 30 110 5
3 29 110 109 5
3 160 30 29 5
3 161 109 110 5
3 30 31 111 5
3 30 111 110 5
3 160 31 30 5
3 161 110 111 5
3 31 32 112 5
3 31 112 111 5
3 160 32 31 5
3 161 111 112 5
3 32 33 113 5
3 32 113 112 5
3 160 33 32 5
3 161 112 113 5
3 33 34 114 5
3 33 114 113 5
3 160 34 33 5
3 161 113 114 5
3 34 35 115 5
3 34 115 114 5
3 160 35 34 5
3 161 114 115 5
3 35 36 116 5
3 35 116 115 5
3 160 36 35 5
3 161 115 116 5
3 36 37 117 5
3 36 117 116 5
3 160 37 36 5
3 161 116 117 5
3 37 38 118 5
3 37 118 117 5
3 160 38 37 5
3 161 117 118 5
3 38 39 119 5
3 38 119 118 5
3 160 39 38 5
3 161 118 119 5
3 39 40 120 5
3 39 120 119 5
3 160 40 39 5
3 161 119 120 5
3 40 41 121 5
3 40 121 120 5
3 160 41 40 5
3 161 120 121 5
3 41 42 122 5
3 41 122 121 5
3 160 42 41 5
3 161 121 122 5
3 42 43 123 5
3 42 123 122 5
3 160 43 42 5
3 161 122 123 5
3 43 44 124 5
3 43 124 123 5
3 160 44 43 5
3 161 123 124 5
3 44 45 125 5
3 44 125 124 5
3 160 45 44 5
3 161 124 125 5
3 45 46 126 5
3 45 126 125 5
3 160 46 45 5
3 161 125 126 5
3 46 47 127 5
3 46 127 126 5
3 160 47 46 5
3 161 126 127 5
3 47 48 128 5
3 47 128 127 5
3 160 48 47 5
3 161 127 128 5
3 48 49 129 5
3 48 129 128 5
3 160 49 48 5
3 161 128 129 5
3 49 50 130 5
3 49 130 129 5
3 160 50 49 5
3 161 129 130 5
3 50 51 131 5
3 50 131 130 5
3 160 51 50 5
3 161 130 131 5
3 51 52 132 5
3 51 132 131 5
3 160 52 51 5
3 161 131 132 5
3 52 53 133 5
3 52 133 132 5
3 160 53 52 5
3 161 132 133 5
3 53 54 134 5
3 53 134 133 5
3 160 54 53 5
3 161 133 134 5
3 54 55 135 5
3 54 135 134 5
3 160 55 54 5
3 161 134 135 5
3 55 56 136 5
3 55 136 135 5
3 160 56 55 5
3 161 135 136 5
3 56 57 137 5
3 56 137 136 5
3 160 57 56 5
3 161 136 137 5
3 57 58 138 5
3 57 138 137 5
3 160 58 57 5
3 161 137 138 5
3 58 59 139 5
3 58 139 138 5
3 160 59 58 5
3 161 138 139 5
3 59 60 140 5
3 59 140 139 5
3 160 60 59 5
3 161 139 140 5
3 60 61 141 5
3 60 141 140 5
3 160 61 60 5
3 161 140 141 5
3 61 62 142 5
3 61 142 141 5
3 160 62 61 5
3 161 141 142 5
3 62 63 143 5
3 62 143 142 5
3 160 63 62 5
3 161 142 143 5
3 63 64 144 5
3 63 144 143 5
3 160 64 63 5
3 161 143 144 5
3 64 65 145 5
3 64 145 144 5
3 160 65 64 5
3 161 144 145 5
3 65 66 146 5
3 65 146 145 5
3 160 66 65 5
3 161 145 146 5
3 66 67 147 5
3 66 147 146 5
3 160 67 66 5
3 161 146 147 5
3 67 68 148 5
3 67 148 147 5
3 160 68 67 5
3 161 147 148 5
3 68 69 149 5
3 68 149 148 5
3 160 69 68 5
3 161 148 149 5
3 69 70 150 5
3 69 150 149 5
3 160 70 69 5
3 161 149 150 5
3 70 71 151 5
3 70 151 150 5
3 160 71 70 5
3 161 150 151 5
3 71 72 152 5
3 71 152 151 5
3 160 72 71 5
3 161 151 152 5
3 72 73 153 5
3 72 153 152 5
3 160 73 72 5
3 161 152 153 5
3 73 74 154 5
3 73 154 153 5
3 160 74 73 5
3 161 153 154 5
3 74 75 155 5
3 74 155 154 5
3 160 75 74 5
3 161 154 155 5
3 75 76 156 5
3 75 156 155 5
3 160 76 75 5
3 161 155 156 5
3 76 77 157 5
3 76 157 156 5
3 160 77 76 5
3 161 156 157 5
3 77 78 158 5
3 77 158 157 5
3 160 78 77 5
3 161 157 158 5
3 78 79 159 5
3 78 159 158 5
3 160 79 78 5
3 161 158 159 5
3 79 0 80 5
3 79 80 159 5
3 160 0 79 5
3 161 159 80 5
