ply
format ascii 1.0
comment provenance fitted_structural_not_observed_identity
comment seven editable closed parts with intentional joint overlap
element vertex 1134
property float x
property float y
property float z
property uchar red
property uchar green
property uchar blue
property int part_id
element face 2240
property list uchar int vertex_indices
property int part_id
end_header
0.349480424 0.465941296 -1.406764549 143 127 104 0
0.326993324 0.465941296 -1.405881029 143 127 104 0
0.304644865 0.465941296 -1.403235914 143 127 104 0
0.282572832 0.465941296 -1.398845514 143 127 104 0
0.260913307 0.465941296 -1.392736896 143 127 104 0
0.239799827 0.465941296 -1.384947722 143 127 104 0
0.219362565 0.465941296 -1.375526015 143 127 104 0
0.199727523 0.465941296 -1.364529863 143 127 104 0
0.181015757 0.465941296 -1.352027061 143 127 104 0
0.163342631 0.465941296 -1.338094692 143 127 104 0
0.146817107 0.465941296 -1.322818655 143 127 104 0
0.131541070 0.465941296 -1.306293131 143 127 104 0
0.117608702 0.465941296 -1.288620006 143 127 104 0
0.105105899 0.465941296 -1.269908240 143 127 104 0
0.094109747 0.465941296 -1.250273198 143 127 104 0
0.084688040 0.465941296 -1.229835935 143 127 104 0
0.076898866 0.465941296 -1.208722456 143 127 104 0
0.070790249 0.465941296 -1.187062930 143 127 104 0
0.066399848 0.465941296 -1.164990898 143 127 104 0
0.063754734 0.465941296 -1.142642438 143 127 104 0
0.062871213 0.465941296 -1.120155339 143 127 104 0
0.063754734 0.465941296 -1.097668240 143 127 104 0
0.066399848 0.465941296 -1.075319781 143 127 104 0
0.070790249 0.465941296 -1.053247748 143 127 104 0
0.076898866 0.465941296 -1.031588222 143 127 104 0
0.084688040 0.465941296 -1.010474743 143 127 104 0
0.094109747 0.465941296 -0.990037480 143 127 104 0
0.105105899 0.465941296 -0.970402438 143 127 104 0
0.117608702 0.465941296 -0.951690672 143 127 104 0
0.131541070 0.465941296 -0.934017547 143 127 104 0
0.146817107 0.465941296 -0.917492023 143 127 104 0
0.163342631 0.465941296 -0.902215986 143 127 104 0
0.181015757 0.465941296 -0.888283617 143 127 104 0
0.199727523 0.465941296 -0.875780815 143 127 104 0
0.219362565 0.465941296 -0.864784663 143 127 104 0
0.239799827 0.465941296 -0.855362956 143 127 104 0
0.260913307 0.465941296 -0.847573782 143 127 104 0
0.282572832 0.465941296 -0.841465164 143 127 104 0
0.304644865 0.465941296 -0.837074764 143 127 104 0
0.326993324 0.465941296 -0.834429649 143 127 104 0
0.349480424 0.465941296 -0.833546129 143 127 104 0
0.371967523 0.465941296 -0.834429649 143 127 104 0
0.394315982 0.465941296 -0.837074764 143 127 104 0
0.416388015 0.465941296 -0.841465164 143 127 104 0
0.438047540 0.465941296 -0.847573782 143 127 104 0
0.459161020 0.465941296 -0.855362956 143 127 104 0
0.479598282 0.465941296 -0.864784663 143 127 104 0
0.499233325 0.465941296 -0.875780815 143 127 104 0
0.517945091 0.465941296 -0.888283617 143 127 104 0
0.535618216 0.465941296 -0.902215986 143 127 104 0
0.552143740 0.465941296 -0.917492023 143 127 104 0
0.567419777 0.465941296 -0.934017547 143 127 104 0
0.581352145 0.465941296 -0.951690672 143 127 104 0
0.593854948 0.465941296 -0.970402438 143 127 104 0
0.604851100 0.465941296 -0.990037480 143 127 104 0
0.614272807 0.465941296 -1.010474743 143 127 104 0
0.622061981 0.465941296 -1.031588222 143 127 104 0
0.628170599 0.465941296 -1.053247748 143 127 104 0
0.632560999 0.465941296 -1.075319781 143 127 104 0
0.635206113 0.465941296 -1.097668240 143 127 104 0
0.636089634 0.465941296 -1.120155339 143 127 104 0
0.635206113 0.465941296 -1.142642438 143 127 104 0
0.632560999 0.465941296 -1.164990898 143 127 104 0
0.628170599 0.465941296 -1.187062930 143 127 104 0
0.622061981 0.465941296 -1.208722456 143 127 104 0
0.614272807 0.465941296 -1.229835935 143 127 104 0
0.604851100 0.465941296 -1.250273198 143 127 104 0
0.593854948 0.465941296 -1.269908240 143 127 104 0
0.581352145 0.465941296 -1.288620006 143 127 104 0
0.567419777 0.465941296 -1.306293131 143 127 104 0
0.552143740 0.465941296 -1.322818655 143 127 104 0
0.535618216 0.465941296 -1.338094692 143 127 104 0
0.517945091 0.465941296 -1.352027061 143 127 104 0
0.499233325 0.465941296 -1.364529863 143 127 104 0
0.479598282 0.465941296 -1.375526015 143 127 104 0
0.459161020 0.465941296 -1.384947722 143 127 104 0
0.438047540 0.465941296 -1.392736896 143 127 104 0
0.416388015 0.465941296 -1.398845514 143 127 104 0
0.394315982 0.465941296 -1.403235914 143 127 104 0
0.371967523 0.465941296 -1.405881029 143 127 104 0
0.349480424 0.515005897 -1.406764549 143 127 104 0
0.326993324 0.515005897 -1.405881029 143 127 104 0
0.304644865 0.515005897 -1.403235914 143 127 104 0
0.282572832 0.515005897 -1.398845514 143 127 104 0
0.260913307 0.515005897 -1.392736896 143 127 104 0
0.239799827 0.515005897 -1.384947722 143 127 104 0
0.219362565 0.515005897 -1.375526015 143 127 104 0
0.199727523 0.515005897 -1.364529863 143 127 104 0
0.181015757 0.515005897 -1.352027061 143 127 104 0
0.163342631 0.515005897 -1.338094692 143 127 104 0
0.146817107 0.515005897 -1.322818655 143 127 104 0
0.131541070 0.515005897 -1.306293131 143 127 104 0
0.117608702 0.515005897 -1.288620006 143 127 104 0
0.105105899 0.515005897 -1.269908240 143 127 104 0
0.094109747 0.515005897 -1.250273198 143 127 104 0
0.084688040 0.515005897 -1.229835935 143 127 104 0
0.076898866 0.515005897 -1.208722456 143 127 104 0
0.070790249 0.515005897 -1.187062930 143 127 104 0
0.066399848 0.515005897 -1.164990898 143 127 104 0
0.063754734 0.515005897 -1.142642438 143 127 104 0
0.062871213 0.515005897 -1.120155339 143 127 104 0
0.063754734 0.515005897 -1.097668240 143 127 104 0
0.066399848 0.515005897 -1.075319781 143 127 104 0
0.070790249 0.515005897 -1.053247748 143 127 104 0
0.076898866 0.515005897 -1.031588222 143 127 104 0
0.084688040 0.515005897 -1.010474743 143 127 104 0
0.094109747 0.515005897 -0.990037480 143 127 104 0
0.105105899 0.515005897 -0.970402438 143 127 104 0
0.117608702 0.515005897 -0.951690672 143 127 104 0
0.131541070 0.515005897 -0.934017547 143 127 104 0
0.146817107 0.515005897 -0.917492023 143 127 104 0
0.163342631 0.515005897 -0.902215986 143 127 104 0
0.181015757 0.515005897 -0.888283617 143 127 104 0
0.199727523 0.515005897 -0.875780815 143 127 104 0
0.219362565 0.515005897 -0.864784663 143 127 104 0
0.239799827 0.515005897 -0.855362956 143 127 104 0
0.260913307 0.515005897 -0.847573782 143 127 104 0
0.282572832 0.515005897 -0.841465164 143 127 104 0
0.304644865 0.515005897 -0.837074764 143 127 104 0
0.326993324 0.515005897 -0.834429649 143 127 104 0
0.349480424 0.515005897 -0.833546129 143 127 104 0
0.371967523 0.515005897 -0.834429649 143 127 104 0
0.394315982 0.515005897 -0.837074764 143 127 104 0
0.416388015 0.515005897 -0.841465164 143 127 104 0
0.438047540 0.515005897 -0.847573782 143 127 104 0
0.459161020 0.515005897 -0.855362956 143 127 104 0
0.479598282 0.515005897 -0.864784663 143 127 104 0
0.499233325 0.515005897 -0.875780815 143 127 104 0
0.517945091 0.515005897 -0.888283617 143 127 104 0
0.535618216 0.515005897 -0.902215986 143 127 104 0
0.552143740 0.515005897 -0.917492023 143 127 104 0
0.567419777 0.515005897 -0.934017547 143 127 104 0
0.581352145 0.515005897 -0.951690672 143 127 104 0
0.593854948 0.515005897 -0.970402438 143 127 104 0
0.604851100 0.515005897 -0.990037480 143 127 104 0
0.614272807 0.515005897 -1.010474743 143 127 104 0
0.622061981 0.515005897 -1.031588222 143 127 104 0
0.628170599 0.515005897 -1.053247748 143 127 104 0
0.632560999 0.515005897 -1.075319781 143 127 104 0
0.635206113 0.515005897 -1.097668240 143 127 104 0
0.636089634 0.515005897 -1.120155339 143 127 104 0
0.635206113 0.515005897 -1.142642438 143 127 104 0
0.632560999 0.515005897 -1.164990898 143 127 104 0
0.628170599 0.515005897 -1.187062930 143 127 104 0
0.622061981 0.515005897 -1.208722456 143 127 104 0
0.614272807 0.515005897 -1.229835935 143 127 104 0
0.604851100 0.515005897 -1.250273198 143 127 104 0
0.593854948 0.515005897 -1.269908240 143 127 104 0
0.581352145 0.515005897 -1.288620006 143 127 104 0
0.567419777 0.515005897 -1.306293131 143 127 104 0
0.552143740 0.515005897 -1.322818655 143 127 104 0
0.535618216 0.515005897 -1.338094692 143 127 104 0
0.517945091 0.515005897 -1.352027061 143 127 104 0
0.499233325 0.515005897 -1.364529863 143 127 104 0
0.479598282 0.515005897 -1.375526015 143 127 104 0
0.459161020 0.515005897 -1.384947722 143 127 104 0
0.438047540 0.515005897 -1.392736896 143 127 104 0
0.416388015 0.515005897 -1.398845514 143 127 104 0
0.394315982 0.515005897 -1.403235914 143 127 104 0
0.371967523 0.515005897 -1.405881029 143 127 104 0
0.349480424 0.465941296 -1.120155339 143 127 104 0
0.349480424 0.515005897 -1.120155339 143 127 104 0
0.140552933 0.004515180 -1.259747793 121 109 90 1
0.138714965 0.004715487 -1.259662192 121 109 90 1
0.136888328 0.004905297 -1.259432087 121 109 90 1
0.135084285 0.005083442 -1.259058897 121 109 90 1
0.133313958 0.005248822 -1.258544923 121 109 90 1
0.131588262 0.005400419 -1.257893334 121 109 90 1
0.129917836 0.005537297 -1.257108147 121 109 90 1
0.128312979 0.005658613 -1.256194204 121 109 90 1
0.126783585 0.005763618 -1.255157138 121 109 90 1
0.125339084 0.005851665 -1.254003343 121 109 90 1
0.123988381 0.005922212 -1.252739934 121 109 90 1
0.122739804 0.005974823 -1.251374700 121 109 90 1
0.121601051 0.006009175 -1.249916057 121 109 90 1
0.120579143 0.006025054 -1.248372999 121 109 90 1
0.119680380 0.006022364 -1.246755039 121 109 90 1
0.118910303 0.006001121 -1.245072152 121 109 90 1
0.118273660 0.005961456 -1.243334714 121 109 90 1
0.117774376 0.005903614 -1.241553437 121 109 90 1
0.117415529 0.005827950 -1.239739303 121 109 90 1
0.117199333 0.005734932 -1.237903497 121 109 90 1
0.117127119 0.005625133 -1.236057337 121 109 90 1
0.117199333 0.005499231 -1.234212206 121 109 90 1
0.117415529 0.005358000 -1.232379478 121 109 90 1
0.117774376 0.005202313 -1.230570454 121 109 90 1
0.118273660 0.005033128 -1.228796287 121 109 90 1
0.118910303 0.004851489 -1.227067915 121 109 90 1
0.119680380 0.004658516 -1.225395993 121 109 90 1
0.120579143 0.004455399 -1.223790831 121 109 90 1
0.121601051 0.004243389 -1.222262325 121 109 90 1
0.122739804 0.004023795 -1.220819897 121 109 90 1
0.123988381 0.003797969 -1.219472442 121 109 90 1
0.125339084 0.003567304 -1.218228266 121 109 90 1
0.126783585 0.003333223 -1.217095041 121 109 90 1
0.128312979 0.003097168 -1.216079753 121 109 90 1
0.129917836 0.002860595 -1.215188661 121 109 90 1
0.131588262 0.002624962 -1.214427260 121 109 90 1
0.133313958 0.002391722 -1.213800245 121 109 90 1
0.135084285 0.002162313 -1.213311479 121 109 90 1
0.136888328 0.001938150 -1.212963978 121 109 90 1
0.138714965 0.001720614 -1.212759884 121 109 90 1
0.140552933 0.001511047 -1.212700454 121 109 90 1
0.142390901 0.001310740 -1.212786056 121 109 90 1
0.144217538 0.001120930 -1.213016161 121 109 90 1
0.146021581 0.000942785 -1.213389350 121 109 90 1
0.147791908 0.000777405 -1.213903324 121 109 90 1
0.149517604 0.000625808 -1.214554913 121 109 90 1
0.151188030 0.000488930 -1.215340100 121 109 90 1
0.152792887 0.000367614 -1.216254044 121 109 90 1
0.154322281 0.000262609 -1.217291110 121 109 90 1
0.155766782 0.000174562 -1.218444904 121 109 90 1
0.157117485 0.000104015 -1.219708313 121 109 90 1
0.158366062 0.000051404 -1.221073548 121 109 90 1
0.159504815 0.000017052 -1.222532191 121 109 90 1
0.160526723 0.000001173 -1.224075249 121 109 90 1
0.161425486 0.000003863 -1.225693209 121 109 90 1
0.162195563 0.000025106 -1.227376096 121 109 90 1
0.162832206 0.000064771 -1.229113533 121 109 90 1
0.163331490 0.000122613 -1.230894810 121 109 90 1
0.163690337 0.000198277 -1.232708944 121 109 90 1
0.163906533 0.000291295 -1.234544750 121 109 90 1
0.163978747 0.000401093 -1.236390910 121 109 90 1
0.163906533 0.000526996 -1.238236042 121 109 90 1
0.163690337 0.000668227 -1.240068769 121 109 90 1
0.163331490 0.000823914 -1.241877793 121 109 90 1
0.162832206 0.000993099 -1.243651961 121 109 90 1
0.162195563 0.001174738 -1.245380333 121 109 90 1
0.161425486 0.001367711 -1.247052254 121 109 90 1
0.160526723 0.001570828 -1.248657416 121 109 90 1
0.159504815 0.001782838 -1.250185923 121 109 90 1
0.158366062 0.002002432 -1.251628350 121 109 90 1
0.157117485 0.002228258 -1.252975806 121 109 90 1
0.155766782 0.002458923 -1.254219982 121 109 90 1
0.154322281 0.002693004 -1.255353207 121 109 90 1
0.152792887 0.002929059 -1.256368495 121 109 90 1
0.151188030 0.003165632 -1.257259586 121 109 90 1
0.149517604 0.003401265 -1.258020987 121 109 90 1
0.147791908 0.003634505 -1.258648003 121 109 90 1
0.146021581 0.003863914 -1.259136768 121 109 90 1
0.144217538 0.004088077 -1.259484269 121 109 90 1
0.142390901 0.004305613 -1.259688364 121 109 90 1
0.195127255 0.491975663 -1.228621775 121 109 90 1
0.193289287 0.492175969 -1.228536174 121 109 90 1
0.191462650 0.492365780 -1.228306069 121 109 90 1
0.189658607 0.492543925 -1.227932879 121 109 90 1
0.187888280 0.492709305 -1.227418905 121 109 90 1
0.186162584 0.492860902 -1.226767316 121 109 90 1
0.184492158 0.492997780 -1.225982129 121 109 90 1
0.182887301 0.493119095 -1.225068185 121 109 90 1
0.181357907 0.493224101 -1.224031120 121 109 90 1
0.179913406 0.493312148 -1.222877325 121 109 90 1
0.178562703 0.493382695 -1.221613916 121 109 90 1
0.177314126 0.493435306 -1.220248682 121 109 90 1
0.176175373 0.493469658 -1.218790039 121 109 90 1
0.175153465 0.493485537 -1.217246980 121 109 90 1
0.174254702 0.493482847 -1.215629020 121 109 90 1
0.173484625 0.493461604 -1.213946134 121 109 90 1
0.172847982 0.493421939 -1.212208696 121 109 90 1
0.172348698 0.493364097 -1.210427419 121 109 90 1
0.171989851 0.493288433 -1.208613285 121 109 90 1
0.171773655 0.493195415 -1.206777479 121 109 90 1
0.171701441 0.493085616 -1.204931319 121 109 90 1
0.171773655 0.492959714 -1.203086187 121 109 90 1
0.171989851 0.492818483 -1.201253460 121 109 90 1
0.172348698 0.492662795 -1.199444436 121 109 90 1
0.172847982 0.492493611 -1.197670269 121 109 90 1
0.173484625 0.492311972 -1.195941896 121 109 90 1
0.174254702 0.492118999 -1.194269975 121 109 90 1
0.175153465 0.491915882 -1.192664813 121 109 90 1
0.176175373 0.491703872 -1.191136306 121 109 90 1
0.177314126 0.491484278 -1.189693879 121 109 90 1
0.178562703 0.491258452 -1.188346423 121 109 90 1
0.179913406 0.491027787 -1.187102248 121 109 90 1
0.181357907 0.490793706 -1.185969022 121 109 90 1
0.182887301 0.490557651 -1.184953734 121 109 90 1
0.184492158 0.490321077 -1.184062643 121 109 90 1
0.186162584 0.490085444 -1.183301242 121 109 90 1
0.187888280 0.489852205 -1.182674226 121 109 90 1
0.189658607 0.489622796 -1.182185461 121 109 90 1
0.191462650 0.489398632 -1.181837960 121 109 90 1
0.193289287 0.489181097 -1.181633866 121 109 90 1
0.195127255 0.488971530 -1.181574436 121 109 90 1
0.196965223 0.488771223 -1.181660037 121 109 90 1
0.198791860 0.488581413 -1.181890142 121 109 90 1
0.200595903 0.488403268 -1.182263332 121 109 90 1
0.202366230 0.488237887 -1.182777306 121 109 90 1
0.204091926 0.488086291 -1.183428895 121 109 90 1
0.205762352 0.487949413 -1.184214082 121 109 90 1
0.207367209 0.487828097 -1.185128026 121 109 90 1
0.208896603 0.487723092 -1.186165092 121 109 90 1
0.210341104 0.487635045 -1.187318886 121 109 90 1
0.211691807 0.487564498 -1.188582295 121 109 90 1
0.212940384 0.487511886 -1.189947530 121 109 90 1
0.214079137 0.487477535 -1.191406172 121 109 90 1
0.215101045 0.487461655 -1.192949231 121 109 90 1
0.215999808 0.487464345 -1.194567191 121 109 90 1
0.216769885 0.487485588 -1.196250077 121 109 90 1
0.217406528 0.487525254 -1.197987515 121 109 90 1
0.217905812 0.487583096 -1.199768792 121 109 90 1
0.218264658 0.487658760 -1.201582926 121 109 90 1
0.218480855 0.487751778 -1.203418732 121 109 90 1
0.218553069 0.487861576 -1.205264892 121 109 90 1
0.218480855 0.487987479 -1.207110024 121 109 90 1
0.218264658 0.488128710 -1.208942751 121 109 90 1
0.217905812 0.488284397 -1.210751775 121 109 90 1
0.217406528 0.488453582 -1.212525943 121 109 90 1
0.216769885 0.488635221 -1.214254315 121 109 90 1
0.215999808 0.488828194 -1.215926236 121 109 90 1
0.215101045 0.489031311 -1.217531398 121 109 90 1
0.214079137 0.489243320 -1.219059905 121 109 90 1
0.212940384 0.489462915 -1.220502332 121 109 90 1
0.211691807 0.489688741 -1.221849788 121 109 90 1
0.210341104 0.489919406 -1.223093963 121 109 90 1
0.208896603 0.490153487 -1.224227189 121 109 90 1
0.207367209 0.490389542 -1.225242477 121 109 90 1
0.205762352 0.490626115 -1.226133568 121 109 90 1
0.204091926 0.490861748 -1.226894969 121 109 90 1
0.202366230 0.491094988 -1.227521985 121 109 90 1
0.200595903 0.491324397 -1.228010750 121 109 90 1
0.198791860 0.491548560 -1.228358251 121 109 90 1
0.196965223 0.491766096 -1.228562346 121 109 90 1
0.140552933 0.003013113 -1.236224124 121 109 90 1
0.195127255 0.490473596 -1.205098106 121 109 90 1
0.555042715 0.004752969 -1.267924993 125 112 93 2
0.553190835 0.004545097 -1.267866307 125 112 93 2
0.551350373 0.004328185 -1.267661952 125 112 93 2
0.549532676 0.004103570 -1.267313189 125 112 93 2
0.547748950 0.003872635 -1.266822168 125 112 93 2
0.546010192 0.003636806 -1.266191915 125 112 93 2
0.544327123 0.003397536 -1.265426318 125 112 93 2
0.542710119 0.003156300 -1.264530095 125 112 93 2
0.541169150 0.002914586 -1.263508773 125 112 93 2
0.539713715 0.002673883 -1.262368648 125 112 93 2
0.538352789 0.002435677 -1.261116749 125 112 93 2
0.537094763 0.002201434 -1.259760796 125 112 93 2
0.535947391 0.001972601 -1.258309147 125 112 93 2
0.534917748 0.001750586 -1.256770753 125 112 93 2
0.534012182 0.001536760 -1.255155098 125 112 93 2
0.533236277 0.001332441 -1.253472143 125 112 93 2
0.532594815 0.001138888 -1.251732265 125 112 93 2
0.532091752 0.000957294 -1.249946190 125 112 93 2
0.531730190 0.000788780 -1.248124930 125 112 93 2
0.531512357 0.000634384 -1.246279714 125 112 93 2
0.531439596 0.000495057 -1.244421919 125 112 93 2
0.531512357 0.000371660 -1.242562997 125 112 93 2
0.531730190 0.000264953 -1.240714410 125 112 93 2
0.532091752 0.000175593 -1.238887555 125 112 93 2
0.532594815 0.000104132 -1.237093695 125 112 93 2
0.533236277 0.000051010 -1.235343890 125 112 93 2
0.534012182 0.000016554 -1.233648928 125 112 93 2
0.534917748 0.000000978 -1.232019260 125 112 93 2
0.535947391 0.000004377 -1.230464932 125 112 93 2
0.537094763 0.000026730 -1.228995527 125 112 93 2
0.538352789 0.000067900 -1.227620106 125 112 93 2
0.539713715 0.000127632 -1.226347147 125 112 93 2
0.541169150 0.000205559 -1.225184499 125 112 93 2
0.542710119 0.000301199 -1.224139330 125 112 93 2
0.544327123 0.000413963 -1.223218084 125 112 93 2
0.546010192 0.000543157 -1.222426441 125 112 93 2
0.547748950 0.000687983 -1.221769281 125 112 93 2
0.549532676 0.000847548 -1.221250657 125 112 93 2
0.551350373 0.001020870 -1.220873765 125 112 93 2
0.553190835 0.001206878 -1.220640929 125 112 93 2
0.555042715 0.001404427 -1.220553585 125 112 93 2
0.556894594 0.001612298 -1.220612271 125 112 93 2
0.558735056 0.001829211 -1.220816626 125 112 93 2
0.560552753 0.002053826 -1.221165389 125 112 93 2
0.562336479 0.002284761 -1.221656410 125 112 93 2
0.564075237 0.002520590 -1.222286662 125 112 93 2
0.565758306 0.002759860 -1.223052260 125 112 93 2
0.567375310 0.003001096 -1.223948482 125 112 93 2
0.568916280 0.003242810 -1.224969805 125 112 93 2
0.570371714 0.003483513 -1.226109930 125 112 93 2
0.571732640 0.003721719 -1.227361828 125 112 93 2
0.572990667 0.003955962 -1.228717782 125 112 93 2
0.574138039 0.004184795 -1.230169431 125 112 93 2
0.575167682 0.004406809 -1.231707825 125 112 93 2
0.576073247 0.004620635 -1.233323480 125 112 93 2
0.576849153 0.004824955 -1.235006434 125 112 93 2
0.577490614 0.005018508 -1.236746313 125 112 93 2
0.577993677 0.005200101 -1.238532387 125 112 93 2
0.578355240 0.005368616 -1.240353647 125 112 93 2
0.578573073 0.005523012 -1.242198863 125 112 93 2
0.578645833 0.005662338 -1.244056659 125 112 93 2
0.578573073 0.005785736 -1.245915581 125 112 93 2
0.578355240 0.005892443 -1.247764168 125 112 93 2
0.577993677 0.005981803 -1.249591023 125 112 93 2
0.577490614 0.006053264 -1.251384883 125 112 93 2
0.576849153 0.006106386 -1.253134687 125 112 93 2
0.576073247 0.006140842 -1.254829649 125 112 93 2
0.575167682 0.006156418 -1.256459318 125 112 93 2
0.574138039 0.006153019 -1.258013646 125 112 93 2
0.572990667 0.006130666 -1.259483050 125 112 93 2
0.571732640 0.006089496 -1.260858472 125 112 93 2
0.570371714 0.006029764 -1.262131431 125 112 93 2
0.568916280 0.005951837 -1.263294079 125 112 93 2
0.567375310 0.005856197 -1.264339248 125 112 93 2
0.565758306 0.005743432 -1.265260493 125 112 93 2
0.564075237 0.005614239 -1.266052137 125 112 93 2
0.562336479 0.005469413 -1.266709296 125 112 93 2
0.560552753 0.005309847 -1.267227921 125 112 93 2
0.558735056 0.005136526 -1.267604813 125 112 93 2
0.556894594 0.004950518 -1.267837649 125 112 93 2
0.501425002 0.492147867 -1.233472520 125 112 93 2
0.499573123 0.491939996 -1.233413834 125 112 93 2
0.497732661 0.491723084 -1.233209479 125 112 93 2
0.495914963 0.491498468 -1.232860716 125 112 93 2
0.494131237 0.491267534 -1.232369695 125 112 93 2
0.492392480 0.491031705 -1.231739442 125 112 93 2
0.490709410 0.490792434 -1.230973845 125 112 93 2
0.489092406 0.490551198 -1.230077622 125 112 93 2
0.487551437 0.490309484 -1.229056300 125 112 93 2
0.486096003 0.490068782 -1.227916175 125 112 93 2
0.484735077 0.489830575 -1.226664276 125 112 93 2
0.483477050 0.489596333 -1.225308323 125 112 93 2
0.482329678 0.489367499 -1.223856674 125 112 93 2
0.481300035 0.489145485 -1.222318279 125 112 93 2
0.480394469 0.488931659 -1.220702625 125 112 93 2
0.479618564 0.488727340 -1.219019670 125 112 93 2
0.478977102 0.488533786 -1.217279792 125 112 93 2
0.478474039 0.488352193 -1.215493717 125 112 93 2
0.478112477 0.488183678 -1.213672457 125 112 93 2
0.477894644 0.488029282 -1.211827241 125 112 93 2
0.477821883 0.487889956 -1.209969445 125 112 93 2
0.477894644 0.487766559 -1.208110524 125 112 93 2
0.478112477 0.487659851 -1.206261937 125 112 93 2
0.478474039 0.487570491 -1.204435082 125 112 93 2
0.478977102 0.487499030 -1.202641222 125 112 93 2
0.479618564 0.487445908 -1.200891417 125 112 93 2
0.480394469 0.487411453 -1.199196455 125 112 93 2
0.481300035 0.487395877 -1.197566787 125 112 93 2
0.482329678 0.487399276 -1.196012459 125 112 93 2
0.483477050 0.487421629 -1.194543054 125 112 93 2
0.484735077 0.487462798 -1.193167633 125 112 93 2
0.486096003 0.487522531 -1.191894674 125 112 93 2
0.487551437 0.487600457 -1.190732026 125 112 93 2
0.489092406 0.487696097 -1.189686857 125 112 93 2
0.490709410 0.487808862 -1.188765611 125 112 93 2
0.492392480 0.487938055 -1.187973968 125 112 93 2
0.494131237 0.488082881 -1.187316808 125 112 93 2
0.495914963 0.488242447 -1.186798184 125 112 93 2
0.497732661 0.488415768 -1.186421292 125 112 93 2
0.499573123 0.488601777 -1.186188456 125 112 93 2
0.501425002 0.488799325 -1.186101112 125 112 93 2
0.503276881 0.489007197 -1.186159798 125 112 93 2
0.505117343 0.489224109 -1.186364152 125 112 93 2
0.506935041 0.489448725 -1.186712916 125 112 93 2
0.508718767 0.489679659 -1.187203937 125 112 93 2
0.510457524 0.489915488 -1.187834189 125 112 93 2
0.512140594 0.490154758 -1.188599787 125 112 93 2
0.513757598 0.490395994 -1.189496009 125 112 93 2
0.515298567 0.490637709 -1.190517332 125 112 93 2
0.516754001 0.490878411 -1.191657457 125 112 93 2
0.518114927 0.491116618 -1.192909355 125 112 93 2
0.519372954 0.491350860 -1.194265309 125 112 93 2
0.520520326 0.491579694 -1.195716958 125 112 93 2
0.521549969 0.491801708 -1.197255352 125 112 93 2
0.522455535 0.492015534 -1.198871007 125 112 93 2
0.523231440 0.492219853 -1.200553961 125 112 93 2
0.523872902 0.492413406 -1.202293839 125 112 93 2
0.524375964 0.492595000 -1.204079914 125 112 93 2
0.524737527 0.492763514 -1.205901174 125 112 93 2
0.524955360 0.492917911 -1.207746390 125 112 93 2
0.525028120 0.493057237 -1.209604186 125 112 93 2
0.524955360 0.493180634 -1.211463108 125 112 93 2
0.524737527 0.493287342 -1.213311695 125 112 93 2
0.524375964 0.493376701 -1.215138550 125 112 93 2
0.523872902 0.493448163 -1.216932410 125 112 93 2
0.523231440 0.493501285 -1.218682214 125 112 93 2
0.522455535 0.493535740 -1.220377176 125 112 93 2
0.521549969 0.493551316 -1.222006845 125 112 93 2
0.520520326 0.493547917 -1.223561173 125 112 93 2
0.519372954 0.493525564 -1.225030577 125 112 93 2
0.518114927 0.493484394 -1.226405999 125 112 93 2
0.516754001 0.493424662 -1.227678958 125 112 93 2
0.515298567 0.493346736 -1.228841606 125 112 93 2
0.513757598 0.493251095 -1.229886774 125 112 93 2
0.512140594 0.493138331 -1.230808020 125 112 93 2
0.510457524 0.493009137 -1.231599663 125 112 93 2
0.508718767 0.492864311 -1.232256823 125 112 93 2
0.506935041 0.492704746 -1.232775448 125 112 93 2
0.505117343 0.492531425 -1.233152340 125 112 93 2
0.503276881 0.492345416 -1.233385176 125 112 93 2
0.555042715 0.003078698 -1.244239289 125 112 93 2
0.501425002 0.490473596 -1.209786816 125 112 93 2
0.353231393 0.000000572 -0.902007897 125 111 93 3
0.351384346 0.000015029 -0.901936622 125 111 93 3
0.349548686 0.000048878 -0.901721957 125 111 93 3
0.347735732 0.000101909 -0.901365227 125 111 93 3
0.345956660 0.000173796 -0.900868631 125 111 93 3
0.344222439 0.000264095 -0.900235229 125 111 93 3
0.342543762 0.000372250 -0.899468929 125 111 93 3
0.340930977 0.000497594 -0.898574453 125 111 93 3
0.339394029 0.000639354 -0.897557317 125 111 93 3
0.337942392 0.000796656 -0.896423791 125 111 93 3
0.336585017 0.000968531 -0.895180865 125 111 93 3
0.335330273 0.001153918 -0.893836201 125 111 93 3
0.334185895 0.001351674 -0.892398090 125 111 93 3
0.333158939 0.001560581 -0.890875398 125 111 93 3
0.332255736 0.001779351 -0.889277513 125 111 93 3
0.331481855 0.002006634 -0.887614286 125 111 93 3
0.330842067 0.002241030 -0.885895972 125 111 93 3
0.330340317 0.002481092 -0.884133165 125 111 93 3
0.329979698 0.002725342 -0.882336733 125 111 93 3
0.329762433 0.002972274 -0.880517752 125 111 93 3
0.329689863 0.003220364 -0.878687435 125 111 93 3
0.329762433 0.003468083 -0.876857069 125 111 93 3
0.329979698 0.003713905 -0.875037937 125 111 93 3
0.330340317 0.003956313 -0.873241256 125 111 93 3
0.330842067 0.004193813 -0.871478102 125 111 93 3
0.331481855 0.004424940 -0.869759345 125 111 93 3
0.332255736 0.004648271 -0.868095583 125 111 93 3
0.333158939 0.004862427 -0.866497073 125 111 93 3
0.334185895 0.005066088 -0.864973670 125 111 93 3
0.335330273 0.005258000 -0.863534767 125 111 93 3
0.336585017 0.005436978 -0.862189236 125 111 93 3
0.337942392 0.005601919 -0.860945370 125 111 93 3
0.339394029 0.005751807 -0.859810841 125 111 93 3
0.340930977 0.005885716 -0.858792641 125 111 93 3
0.342543762 0.006002822 -0.857897050 125 111 93 3
0.344222439 0.006102403 -0.857129588 125 111 93 3
0.345956660 0.006183844 -0.856494987 125 111 93 3
0.347735732 0.006246644 -0.855997160 125 111 93 3
0.349548686 0.006290415 -0.855639175 125 111 93 3
0.351384346 0.006314888 -0.855423241 125 111 93 3
0.353231393 0.006319911 -0.855350687 125 111 93 3
0.355078440 0.006305453 -0.855421963 125 111 93 3
0.356914099 0.006271605 -0.855636627 125 111 93 3
0.358727054 0.006218573 -0.855993358 125 111 93 3
0.360506126 0.006146687 -0.856489954 125 111 93 3
0.362240346 0.006056387 -0.857123355 125 111 93 3
0.363919024 0.005948232 -0.857889656 125 111 93 3
0.365531808 0.005822888 -0.858784132 125 111 93 3
0.367068757 0.005681128 -0.859801268 125 111 93 3
0.368520394 0.005523826 -0.860934793 125 111 93 3
0.369877768 0.005351952 -0.862177720 125 111 93 3
0.371132513 0.005166565 -0.863522383 125 111 93 3
0.372276891 0.004968808 -0.864960494 125 111 93 3
0.373303847 0.004759901 -0.866483187 125 111 93 3
0.374207050 0.004541132 -0.868081072 125 111 93 3
0.374980931 0.004313849 -0.869744298 125 111 93 3
0.375620718 0.004079453 -0.871462612 125 111 93 3
0.376122469 0.003839390 -0.873225420 125 111 93 3
0.376483088 0.003595140 -0.875021852 125 111 93 3
0.376700352 0.003348209 -0.876840833 125 111 93 3
0.376772923 0.003100119 -0.878671149 125 111 93 3
0.376700352 0.002852399 -0.880501516 125 111 93 3
0.376483088 0.002606578 -0.882320647 125 111 93 3
0.376122469 0.002364170 -0.884117329 125 111 93 3
0.375620718 0.002126670 -0.885880483 125 111 93 3
0.374980931 0.001895542 -0.887599240 125 111 93 3
0.374207050 0.001672212 -0.889263002 125 111 93 3
0.373303847 0.001458056 -0.890861512 125 111 93 3
0.372276891 0.001254394 -0.892384914 125 111 93 3
0.371132513 0.001062483 -0.893823817 125 111 93 3
0.369877768 0.000883505 -0.895169349 125 111 93 3
0.368520394 0.000718563 -0.896413214 125 111 93 3
0.367068757 0.000568676 -0.897547744 125 111 93 3
0.365531808 0.000434766 -0.898565943 125 111 93 3
0.363919024 0.000317660 -0.899461535 125 111 93 3
0.362240346 0.000218080 -0.900228997 125 111 93 3
0.360506126 0.000136638 -0.900863598 125 111 93 3
0.358727054 0.000073839 -0.901361425 125 111 93 3
0.356914099 0.000030068 -0.901719410 125 111 93 3
0.355078440 0.000005595 -0.901935344 125 111 93 3
0.354498768 0.487313927 -0.968010519 125 111 93 3
0.352651721 0.487328384 -0.967939243 125 111 93 3
0.350816061 0.487362233 -0.967724579 125 111 93 3
0.349003107 0.487415264 -0.967367848 125 111 93 3
0.347224035 0.487487151 -0.966871252 125 111 93 3
0.345489814 0.487577450 -0.966237851 125 111 93 3
0.343811137 0.487685605 -0.965471550 125 111 93 3
0.342198352 0.487810949 -0.964577074 125 111 93 3
0.340661404 0.487952709 -0.963559938 125 111 93 3
0.339209767 0.488110011 -0.962426413 125 111 93 3
0.337852392 0.488281886 -0.961183487 125 111 93 3
0.336597648 0.488467273 -0.959838823 125 111 93 3
0.335453270 0.488665029 -0.958400712 125 111 93 3
0.334426314 0.488873936 -0.956878019 125 111 93 3
0.333523111 0.489092706 -0.955280134 125 111 93 3
0.332749230 0.489319989 -0.953616908 125 111 93 3
0.332109442 0.489554385 -0.951898594 125 111 93 3
0.331607692 0.489794447 -0.950135787 125 111 93 3
0.331247073 0.490038697 -0.948339354 125 111 93 3
0.331029808 0.490285629 -0.946520373 125 111 93 3
0.330957238 0.490533719 -0.944690057 125 111 93 3
0.331029808 0.490781438 -0.942859690 125 111 93 3
0.331247073 0.491027260 -0.941040559 125 111 93 3
0.331607692 0.491269668 -0.939243877 125 111 93 3
0.332109442 0.491507168 -0.937480723 125 111 93 3
0.332749230 0.491738295 -0.935761966 125 111 93 3
0.333523111 0.491961626 -0.934098204 125 111 93 3
0.334426314 0.492175782 -0.932499694 125 111 93 3
0.335453270 0.492379444 -0.930976292 125 111 93 3
0.336597648 0.492571355 -0.929537389 125 111 93 3
0.337852392 0.492750333 -0.928191857 125 111 93 3
0.339209767 0.492915274 -0.926947992 125 111 93 3
0.340661404 0.493065162 -0.925813462 125 111 93 3
0.342198352 0.493199071 -0.924795263 125 111 93 3
0.343811137 0.493316177 -0.923899671 125 111 93 3
0.345489814 0.493415758 -0.923132209 125 111 93 3
0.347224035 0.493497199 -0.922497608 125 111 93 3
0.349003107 0.493559999 -0.921999781 125 111 93 3
0.350816061 0.493603770 -0.921641796 125 111 93 3
0.352651721 0.493628243 -0.921425862 125 111 93 3
0.354498768 0.493633266 -0.921353309 125 111 93 3
0.356345815 0.493618808 -0.921424584 125 111 93 3
0.358181475 0.493584960 -0.921639249 125 111 93 3
0.359994429 0.493531928 -0.921995979 125 111 93 3
0.361773501 0.493460042 -0.922492576 125 111 93 3
0.363507722 0.493369742 -0.923125977 125 111 93 3
0.365186399 0.493261587 -0.923892278 125 111 93 3
0.366799184 0.493136243 -0.924786753 125 111 93 3
0.368336132 0.492994483 -0.925803889 125 111 93 3
0.369787769 0.492837181 -0.926937415 125 111 93 3
0.371145144 0.492665307 -0.928180341 125 111 93 3
0.372399888 0.492479920 -0.929525005 125 111 93 3
0.373544266 0.492282163 -0.930963116 125 111 93 3
0.374571222 0.492073256 -0.932485808 125 111 93 3
0.375474425 0.491854487 -0.934083693 125 111 93 3
0.376248306 0.491627204 -0.935746920 125 111 93 3
0.376888094 0.491392808 -0.937465234 125 111 93 3
0.377389844 0.491152745 -0.939228041 125 111 93 3
0.377750463 0.490908495 -0.941024473 125 111 93 3
0.377967727 0.490661564 -0.942843454 125 111 93 3
0.378040298 0.490413474 -0.944673771 125 111 93 3
0.377967727 0.490165754 -0.946504137 125 111 93 3
0.377750463 0.489919933 -0.948323269 125 111 93 3
0.377389844 0.489677525 -0.950119950 125 111 93 3
0.376888094 0.489440025 -0.951883105 125 111 93 3
0.376248306 0.489208897 -0.953601861 125 111 93 3
0.375474425 0.488985567 -0.955265623 125 111 93 3
0.374571222 0.488771411 -0.956864133 125 111 93 3
0.373544266 0.488567749 -0.958387536 125 111 93 3
0.372399888 0.488375838 -0.959826439 125 111 93 3
0.371145144 0.488196860 -0.961171970 125 111 93 3
0.369787769 0.488031918 -0.962415836 125 111 93 3
0.368336132 0.487882031 -0.963550365 125 111 93 3
0.366799184 0.487748121 -0.964568565 125 111 93 3
0.365186399 0.487631015 -0.965464156 125 111 93 3
0.363507722 0.487531435 -0.966231618 125 111 93 3
0.361773501 0.487449993 -0.966866219 125 111 93 3
0.359994429 0.487387194 -0.967364047 125 111 93 3
0.358181475 0.487343423 -0.967722031 125 111 93 3
0.356345815 0.487318950 -0.967937966 125 111 93 3
0.353231393 0.003160241 -0.878679292 125 111 93 3
0.354498768 0.490473596 -0.944681914 125 111 93 3
0.161546455 0.179046149 -1.224250640 137 124 105 4
0.161530177 0.179081544 -1.225151370 137 124 105 4
0.161514000 0.179187513 -1.226046546 137 124 105 4
0.161498023 0.179363401 -1.226930649 137 124 105 4
0.161482344 0.179608123 -1.227798230 137 124 105 4
0.161467061 0.179920173 -1.228643938 137 124 105 4
0.161452268 0.180297624 -1.229462561 137 124 105 4
0.161438055 0.180738151 -1.230249050 137 124 105 4
0.161424510 0.181239038 -1.230998557 137 124 105 4
0.161411717 0.181797195 -1.231706460 137 124 105 4
0.161399755 0.182409182 -1.232368397 137 124 105 4
0.161388697 0.183071227 -1.232980284 137 124 105 4
0.161378612 0.183779246 -1.233538350 137 124 105 4
0.161369562 0.184528875 -1.234039155 137 124 105 4
0.161361602 0.185315493 -1.234479610 137 124 105 4
0.161354782 0.186134249 -1.234857000 137 124 105 4
0.161349144 0.186980095 -1.235168998 137 124 105 4
0.161344722 0.187847818 -1.235413681 137 124 105 4
0.161341544 0.188732066 -1.235589540 137 124 105 4
0.161339629 0.189627388 -1.235695492 137 124 105 4
0.161338990 0.190528264 -1.235730881 137 124 105 4
0.161339629 0.191429141 -1.235695492 137 124 105 4
0.161341544 0.192324463 -1.235589540 137 124 105 4
0.161344722 0.193208711 -1.235413681 137 124 105 4
0.161349144 0.194076433 -1.235168998 137 124 105 4
0.161354782 0.194922279 -1.234857000 137 124 105 4
0.161361602 0.195741035 -1.234479610 137 124 105 4
0.161369562 0.196527653 -1.234039155 137 124 105 4
0.161378612 0.197277282 -1.233538350 137 124 105 4
0.161388697 0.197985302 -1.232980284 137 124 105 4
0.161399755 0.198647346 -1.232368397 137 124 105 4
0.161411717 0.199259333 -1.231706460 137 124 105 4
0.161424510 0.199817491 -1.230998557 137 124 105 4
0.161438055 0.200318377 -1.230249050 137 124 105 4
0.161452268 0.200758904 -1.229462561 137 124 105 4
0.161467061 0.201136355 -1.228643938 137 124 105 4
0.161482344 0.201448405 -1.227798230 137 124 105 4
0.161498023 0.201693128 -1.226930649 137 124 105 4
0.161514000 0.201869016 -1.226046546 137 124 105 4
0.161530177 0.201974984 -1.225151370 137 124 105 4
0.161546455 0.202010379 -1.224250640 137 124 105 4
0.161562732 0.201974984 -1.223349911 137 124 105 4
0.161578909 0.201869016 -1.222454735 137 124 105 4
0.161594886 0.201693128 -1.221570631 137 124 105 4
0.161610565 0.201448405 -1.220703051 137 124 105 4
0.161625848 0.201136355 -1.219857342 137 124 105 4
0.161640642 0.200758904 -1.219038720 137 124 105 4
0.161654855 0.200318377 -1.218252231 137 124 105 4
0.161668399 0.199817491 -1.217502724 137 124 105 4
0.161681192 0.199259333 -1.216794820 137 124 105 4
0.161693155 0.198647346 -1.216132884 137 124 105 4
0.161704212 0.197985302 -1.215520997 137 124 105 4
0.161714297 0.197277282 -1.214962930 137 124 105 4
0.161723348 0.196527653 -1.214462126 137 124 105 4
0.161731307 0.195741035 -1.214021671 137 124 105 4
0.161738127 0.194922279 -1.213644281 137 124 105 4
0.161743766 0.194076433 -1.213332282 137 124 105 4
0.161748187 0.193208711 -1.213087599 137 124 105 4
0.161751365 0.192324463 -1.212911740 137 124 105 4
0.161753280 0.191429141 -1.212805789 137 124 105 4
0.161753920 0.190528264 -1.212770399 137 124 105 4
0.161753280 0.189627388 -1.212805789 137 124 105 4
0.161751365 0.188732066 -1.212911740 137 124 105 4
0.161748187 0.187847818 -1.213087599 137 124 105 4
0.161743766 0.186980095 -1.213332282 137 124 105 4
0.161738127 0.186134249 -1.213644281 137 124 105 4
0.161731307 0.185315493 -1.214021671 137 124 105 4
0.161723348 0.184528875 -1.214462126 137 124 105 4
0.161714297 0.183779246 -1.214962930 137 124 105 4
0.161704212 0.183071227 -1.215520997 137 124 105 4
0.161693155 0.182409182 -1.216132884 137 124 105 4
0.161681192 0.181797195 -1.216794820 137 124 105 4
0.161668399 0.181239038 -1.217502724 137 124 105 4
0.161654855 0.180738151 -1.218252231 137 124 105 4
0.161640642 0.180297624 -1.219038720 137 124 105 4
0.161625848 0.179920173 -1.219857342 137 124 105 4
0.161610565 0.179608123 -1.220703051 137 124 105 4
0.161594886 0.179363401 -1.221570631 137 124 105 4
0.161578909 0.179187513 -1.222454735 137 124 105 4
0.161562732 0.179081544 -1.223349911 137 124 105 4
0.534421619 0.179046149 -1.230989045 137 124 105 4
0.534405341 0.179081544 -1.231889775 137 124 105 4
0.534389164 0.179187513 -1.232784951 137 124 105 4
0.534373187 0.179363401 -1.233669054 137 124 105 4
0.534357508 0.179608123 -1.234536635 137 124 105 4
0.534342225 0.179920173 -1.235382343 137 124 105 4
0.534327432 0.180297624 -1.236200965 137 124 105 4
0.534313219 0.180738151 -1.236987455 137 124 105 4
0.534299674 0.181239038 -1.237736961 137 124 105 4
0.534286881 0.181797195 -1.238444865 137 124 105 4
0.534274919 0.182409182 -1.239106801 137 124 105 4
0.534263861 0.183071227 -1.239718689 137 124 105 4
0.534253776 0.183779246 -1.240276755 137 124 105 4
0.534244726 0.184528875 -1.240777560 137 124 105 4
0.534236766 0.185315493 -1.241218015 137 124 105 4
0.534229946 0.186134249 -1.241595405 137 124 105 4
0.534224308 0.186980095 -1.241907403 137 124 105 4
0.534219886 0.187847818 -1.242152086 137 124 105 4
0.534216708 0.188732066 -1.242327945 137 124 105 4
0.534214793 0.189627388 -1.242433896 137 124 105 4
0.534214154 0.190528264 -1.242469286 137 124 105 4
0.534214793 0.191429141 -1.242433896 137 124 105 4
0.534216708 0.192324463 -1.242327945 137 124 105 4
0.534219886 0.193208711 -1.242152086 137 124 105 4
0.534224308 0.194076433 -1.241907403 137 124 105 4
0.534229946 0.194922279 -1.241595405 137 124 105 4
0.534236766 0.195741035 -1.241218015 137 124 105 4
0.534244726 0.196527653 -1.240777560 137 124 105 4
0.534253776 0.197277282 -1.240276755 137 124 105 4
0.534263861 0.197985302 -1.239718689 137 124 105 4
0.534274919 0.198647346 -1.239106801 137 124 105 4
0.534286881 0.199259333 -1.238444865 137 124 105 4
0.534299674 0.199817491 -1.237736961 137 124 105 4
0.534313219 0.200318377 -1.236987455 137 124 105 4
0.534327432 0.200758904 -1.236200965 137 124 105 4
0.534342225 0.201136355 -1.235382343 137 124 105 4
0.534357508 0.201448405 -1.234536635 137 124 105 4
0.534373187 0.201693128 -1.233669054 137 124 105 4
0.534389164 0.201869016 -1.232784951 137 124 105 4
0.534405341 0.201974984 -1.231889775 137 124 105 4
0.534421619 0.202010379 -1.230989045 137 124 105 4
0.534437896 0.201974984 -1.230088316 137 124 105 4
0.534454073 0.201869016 -1.229193140 137 124 105 4
0.534470050 0.201693128 -1.228309036 137 124 105 4
0.534485729 0.201448405 -1.227441456 137 124 105 4
0.534501012 0.201136355 -1.226595747 137 124 105 4
0.534515806 0.200758904 -1.225777125 137 124 105 4
0.534530019 0.200318377 -1.224990636 137 124 105 4
0.534543563 0.199817491 -1.224241129 137 124 105 4
0.534556356 0.199259333 -1.223533225 137 124 105 4
0.534568319 0.198647346 -1.222871289 137 124 105 4
0.534579376 0.197985302 -1.222259402 137 124 105 4
0.534589461 0.197277282 -1.221701335 137 124 105 4
0.534598512 0.196527653 -1.221200531 137 124 105 4
0.534606471 0.195741035 -1.220760076 137 124 105 4
0.534613291 0.194922279 -1.220382686 137 124 105 4
0.534618930 0.194076433 -1.220070687 137 124 105 4
0.534623351 0.193208711 -1.219826004 137 124 105 4
0.534626529 0.192324463 -1.219650145 137 124 105 4
0.534628444 0.191429141 -1.219544194 137 124 105 4
0.534629084 0.190528264 -1.219508804 137 124 105 4
0.534628444 0.189627388 -1.219544194 137 124 105 4
0.534626529 0.188732066 -1.219650145 137 124 105 4
0.534623351 0.187847818 -1.219826004 137 124 105 4
0.534618930 0.186980095 -1.220070687 137 124 105 4
0.534613291 0.186134249 -1.220382686 137 124 105 4
0.534606471 0.185315493 -1.220760076 137 124 105 4
0.534598512 0.184528875 -1.221200531 137 124 105 4
0.534589461 0.183779246 -1.221701335 137 124 105 4
0.534579376 0.183071227 -1.222259402 137 124 105 4
0.534568319 0.182409182 -1.222871289 137 124 105 4
0.534556356 0.181797195 -1.223533225 137 124 105 4
0.534543563 0.181239038 -1.224241129 137 124 105 4
0.534530019 0.180738151 -1.224990636 137 124 105 4
0.534515806 0.180297624 -1.225777125 137 124 105 4
0.534501012 0.179920173 -1.226595747 137 124 105 4
0.534485729 0.179608123 -1.227441456 137 124 105 4
0.534470050 0.179363401 -1.228309036 137 124 105 4
0.534454073 0.179187513 -1.229193140 137 124 105 4
0.534437896 0.179081544 -1.230088316 137 124 105 4
0.161546455 0.190528264 -1.224250640 137 124 105 4
0.534421619 0.190528264 -1.230989045 137 124 105 4
0.534439073 0.202157653 -1.231000261 139 126 106 5
0.533629611 0.202121314 -1.231447668 139 126 106 5
0.532825139 0.202012522 -1.231892318 139 126 106 5
0.532030618 0.201831948 -1.232331467 139 126 106 5
0.531250946 0.201580705 -1.232762409 139 126 106 5
0.530490929 0.201260341 -1.233182487 139 126 106 5
0.529755255 0.200872832 -1.233589111 139 126 106 5
0.529048457 0.200420568 -1.233979773 139 126 106 5
0.528374895 0.199906335 -1.234352066 139 126 106 5
0.527738720 0.199333306 -1.234703694 139 126 106 5
0.527143855 0.198705013 -1.235032489 139 126 106 5
0.526593967 0.198025329 -1.235336424 139 126 106 5
0.526092447 0.197298444 -1.235613626 139 126 106 5
0.525642387 0.196528841 -1.235862384 139 126 106 5
0.525246562 0.195721265 -1.236081165 139 126 106 5
0.524907411 0.194880693 -1.236268621 139 126 106 5
0.524627026 0.194012310 -1.236423596 139 126 106 5
0.524407136 0.193121467 -1.236545135 139 126 106 5
0.524249096 0.192213659 -1.236632487 139 126 106 5
0.524153880 0.191294481 -1.236685115 139 126 106 5
0.524122076 0.190369601 -1.236702693 139 126 106 5
0.524153880 0.189444722 -1.236685115 139 126 106 5
0.524249096 0.188525544 -1.236632487 139 126 106 5
0.524407136 0.187617736 -1.236545135 139 126 106 5
0.524627026 0.186726893 -1.236423596 139 126 106 5
0.524907411 0.185858509 -1.236268621 139 126 106 5
0.525246562 0.185017938 -1.236081165 139 126 106 5
0.525642387 0.184210362 -1.235862384 139 126 106 5
0.526092447 0.183440759 -1.235613626 139 126 106 5
0.526593967 0.182713874 -1.235336424 139 126 106 5
0.527143855 0.182034190 -1.235032489 139 126 106 5
0.527738720 0.181405897 -1.234703694 139 126 106 5
0.528374895 0.180832868 -1.234352066 139 126 106 5
0.529048457 0.180318635 -1.233979773 139 126 106 5
0.529755255 0.179866371 -1.233589111 139 126 106 5
0.530490929 0.179478862 -1.233182487 139 126 106 5
0.531250946 0.179158498 -1.232762409 139 126 106 5
0.532030618 0.178907255 -1.232331467 139 126 106 5
0.532825139 0.178726680 -1.231892318 139 126 106 5
0.533629611 0.178617889 -1.231447668 139 126 106 5
0.534439073 0.178581550 -1.231000261 139 126 106 5
0.535248535 0.178617889 -1.230552853 139 126 106 5
0.536053007 0.178726680 -1.230108204 139 126 106 5
0.536847528 0.178907255 -1.229669054 139 126 106 5
0.537627200 0.179158498 -1.229238112 139 126 106 5
0.538387217 0.179478862 -1.228818034 139 126 106 5
0.539122891 0.179866371 -1.228411410 139 126 106 5
0.539829689 0.180318635 -1.228020748 139 126 106 5
0.540503251 0.180832868 -1.227648455 139 126 106 5
0.541139426 0.181405897 -1.227296827 139 126 106 5
0.541734291 0.182034190 -1.226968032 139 126 106 5
0.542284179 0.182713874 -1.226664097 139 126 106 5
0.542785699 0.183440759 -1.226386896 139 126 106 5
0.543235759 0.184210362 -1.226138137 139 126 106 5
0.543631584 0.185017938 -1.225919356 139 126 106 5
0.543970735 0.185858509 -1.225731900 139 126 106 5
0.544251120 0.186726893 -1.225576925 139 126 106 5
0.544471010 0.187617736 -1.225455386 139 126 106 5
0.544629050 0.188525544 -1.225368034 139 126 106 5
0.544724266 0.189444722 -1.225315407 139 126 106 5
0.544756070 0.190369601 -1.225297828 139 126 106 5
0.544724266 0.191294481 -1.225315407 139 126 106 5
0.544629050 0.192213659 -1.225368034 139 126 106 5
0.544471010 0.193121467 -1.225455386 139 126 106 5
0.544251120 0.194012310 -1.225576925 139 126 106 5
0.543970735 0.194880693 -1.225731900 139 126 106 5
0.543631584 0.195721265 -1.225919356 139 126 106 5
0.543235759 0.196528841 -1.226138137 139 126 106 5
0.542785699 0.197298444 -1.226386896 139 126 106 5
0.542284179 0.198025329 -1.226664097 139 126 106 5
0.541734291 0.198705013 -1.226968032 139 126 106 5
0.541139426 0.199333306 -1.227296827 139 126 106 5
0.540503251 0.199906335 -1.227648455 139 126 106 5
0.539829689 0.200420568 -1.228020748 139 126 106 5
0.539122891 0.200872832 -1.228411410 139 126 106 5
0.538387217 0.201260341 -1.228818034 139 126 106 5
0.537627200 0.201580705 -1.229238112 139 126 106 5
0.536847528 0.201831948 -1.229669054 139 126 106 5
0.536053007 0.202012522 -1.230108204 139 126 106 5
0.535248535 0.202121314 -1.230552853 139 126 106 5
0.353718276 0.202157653 -0.904035274 139 126 106 5
0.352908813 0.202121314 -0.904482682 139 126 106 5
0.352104342 0.202012522 -0.904927331 139 126 106 5
0.351309821 0.201831948 -0.905366481 139 126 106 5
0.350530148 0.201580705 -0.905797423 139 126 106 5
0.349770132 0.201260341 -0.906217501 139 126 106 5
0.349034457 0.200872832 -0.906624124 139 126 106 5
0.348327660 0.200420568 -0.907014787 139 126 106 5
0.347654097 0.199906335 -0.907387080 139 126 106 5
0.347017922 0.199333306 -0.907738708 139 126 106 5
0.346423057 0.198705013 -0.908067503 139 126 106 5
0.345873170 0.198025329 -0.908371438 139 126 106 5
0.345371650 0.197298444 -0.908648639 139 126 106 5
0.344921590 0.196528841 -0.908897397 139 126 106 5
0.344525764 0.195721265 -0.909116179 139 126 106 5
0.344186614 0.194880693 -0.909303635 139 126 106 5
0.343906229 0.194012310 -0.909458610 139 126 106 5
0.343686338 0.193121467 -0.909580148 139 126 106 5
0.343528298 0.192213659 -0.909667500 139 126 106 5
0.343433083 0.191294481 -0.909720128 139 126 106 5
0.343401279 0.190369601 -0.909737707 139 126 106 5
0.343433083 0.189444722 -0.909720128 139 126 106 5
0.343528298 0.188525544 -0.909667500 139 126 106 5
0.343686338 0.187617736 -0.909580148 139 126 106 5
0.343906229 0.186726893 -0.909458610 139 126 106 5
0.344186614 0.185858509 -0.909303635 139 126 106 5
0.344525764 0.185017938 -0.909116179 139 126 106 5
0.344921590 0.184210362 -0.908897397 139 126 106 5
0.345371650 0.183440759 -0.908648639 139 126 106 5
0.345873170 0.182713874 -0.908371438 139 126 106 5
0.346423057 0.182034190 -0.908067503 139 126 106 5
0.347017922 0.181405897 -0.907738708 139 126 106 5
0.347654097 0.180832868 -0.907387080 139 126 106 5
0.348327660 0.180318635 -0.907014787 139 126 106 5
0.349034457 0.179866371 -0.906624124 139 126 106 5
0.349770132 0.179478862 -0.906217501 139 126 106 5
0.350530148 0.179158498 -0.905797423 139 126 106 5
0.351309821 0.178907255 -0.905366481 139 126 106 5
0.352104342 0.178726680 -0.904927331 139 126 106 5
0.352908813 0.178617889 -0.904482682 139 126 106 5
0.353718276 0.178581550 -0.904035274 139 126 106 5
0.354527738 0.178617889 -0.903587866 139 126 106 5
0.355332209 0.178726680 -0.903143217 139 126 106 5
0.356126731 0.178907255 -0.902704068 139 126 106 5
0.356906403 0.179158498 -0.902273125 139 126 106 5
0.357666419 0.179478862 -0.901853048 139 126 106 5
0.358402094 0.179866371 -0.901446424 139 126 106 5
0.359108891 0.180318635 -0.901055761 139 126 106 5
0.359782454 0.180832868 -0.900683468 139 126 106 5
0.360418629 0.181405897 -0.900331840 139 126 106 5
0.361013494 0.182034190 -0.900003045 139 126 106 5
0.361563381 0.182713874 -0.899699110 139 126 106 5
0.362064901 0.183440759 -0.899421909 139 126 106 5
0.362514961 0.184210362 -0.899173151 139 126 106 5
0.362910787 0.185017938 -0.898954369 139 126 106 5
0.363249938 0.185858509 -0.898766913 139 126 106 5
0.363530322 0.186726893 -0.898611938 139 126 106 5
0.363750213 0.187617736 -0.898490400 139 126 106 5
0.363908253 0.188525544 -0.898403048 139 126 106 5
0.364003468 0.189444722 -0.898350420 139 126 106 5
0.364035272 0.190369601 -0.898332841 139 126 106 5
0.364003468 0.191294481 -0.898350420 139 126 106 5
0.363908253 0.192213659 -0.898403048 139 126 106 5
0.363750213 0.193121467 -0.898490400 139 126 106 5
0.363530322 0.194012310 -0.898611938 139 126 106 5
0.363249938 0.194880693 -0.898766913 139 126 106 5
0.362910787 0.195721265 -0.898954369 139 126 106 5
0.362514961 0.196528841 -0.899173151 139 126 106 5
0.362064901 0.197298444 -0.899421909 139 126 106 5
0.361563381 0.198025329 -0.899699110 139 126 106 5
0.361013494 0.198705013 -0.900003045 139 126 106 5
0.360418629 0.199333306 -0.900331840 139 126 106 5
0.359782454 0.199906335 -0.900683468 139 126 106 5
0.359108891 0.200420568 -0.901055761 139 126 106 5
0.358402094 0.200872832 -0.901446424 139 126 106 5
0.357666419 0.201260341 -0.901853048 139 126 106 5
0.356906403 0.201580705 -0.902273125 139 126 106 5
0.356126731 0.201831948 -0.902704068 139 126 106 5
0.355332209 0.202012522 -0.903143217 139 126 106 5
0.354527738 0.202121314 -0.903587866 139 126 106 5
0.534439073 0.190369601 -1.231000261 139 126 106 5
0.353718276 0.190369601 -0.904035274 139 126 106 5
0.353717549 0.178077903 -0.903997433 132 120 100 6
0.352909441 0.178114933 -0.903512438 132 120 100 6
0.352106315 0.178225795 -0.903030434 132 120 100 6
0.351313122 0.178409804 -0.902554391 132 120 100 6
0.350534754 0.178665828 -0.902087245 132 120 100 6
0.349776009 0.178992286 -0.901631876 132 120 100 6
0.349041565 0.179387167 -0.901191092 132 120 100 6
0.348335950 0.179848035 -0.900767609 132 120 100 6
0.347663514 0.180372050 -0.900364040 132 120 100 6
0.347028403 0.180955981 -0.899982871 132 120 100 6
0.346434533 0.181596227 -0.899626454 132 120 100 6
0.345885565 0.182288842 -0.899296985 132 120 100 6
0.345384884 0.183029554 -0.898996496 132 120 100 6
0.344935577 0.183813798 -0.898726840 132 120 100 6
0.344540413 0.184636738 -0.898489678 132 120 100 6
0.344201830 0.185493301 -0.898286474 132 120 100 6
0.343921914 0.186378205 -0.898118479 132 120 100 6
0.343702392 0.187285994 -0.897986730 132 120 100 6
0.343544616 0.188211073 -0.897892040 132 120 100 6
0.343449560 0.189147737 -0.897834991 132 120 100 6
0.343417809 0.190090212 -0.897815935 132 120 100 6
0.343449560 0.191032687 -0.897834991 132 120 100 6
0.343544616 0.191969351 -0.897892040 132 120 100 6
0.343702392 0.192894430 -0.897986730 132 120 100 6
0.343921914 0.193802220 -0.898118479 132 120 100 6
0.344201830 0.194687124 -0.898286474 132 120 100 6
0.344540413 0.195543686 -0.898489678 132 120 100 6
0.344935577 0.196366626 -0.898726840 132 120 100 6
0.345384884 0.197150870 -0.898996496 132 120 100 6
0.345885565 0.197891583 -0.899296985 132 120 100 6
0.346434533 0.198584197 -0.899626454 132 120 100 6
0.347028403 0.199224443 -0.899982871 132 120 100 6
0.347663514 0.199808374 -0.900364040 132 120 100 6
0.348335950 0.200332389 -0.900767609 132 120 100 6
0.349041565 0.200793258 -0.901191092 132 120 100 6
0.349776009 0.201188138 -0.901631876 132 120 100 6
0.350534754 0.201514597 -0.902087245 132 120 100 6
0.351313122 0.201770620 -0.902554391 132 120 100 6
0.352106315 0.201954629 -0.903030434 132 120 100 6
0.352909441 0.202065491 -0.903512438 132 120 100 6
0.353717549 0.202102521 -0.903997433 132 120 100 6
0.354525657 0.202065491 -0.904482428 132 120 100 6
0.355328783 0.201954629 -0.904964432 132 120 100 6
0.356121976 0.201770620 -0.905440475 132 120 100 6
0.356900344 0.201514597 -0.905907621 132 120 100 6
0.357659089 0.201188138 -0.906362990 132 120 100 6
0.358393533 0.200793258 -0.906803774 132 120 100 6
0.359099148 0.200332389 -0.907227257 132 120 100 6
0.359771584 0.199808374 -0.907630826 132 120 100 6
0.360406695 0.199224443 -0.908011995 132 120 100 6
0.361000565 0.198584197 -0.908368412 132 120 100 6
0.361549533 0.197891583 -0.908697881 132 120 100 6
0.362050214 0.197150870 -0.908998370 132 120 100 6
0.362499521 0.196366626 -0.909268026 132 120 100 6
0.362894685 0.195543686 -0.909505188 132 120 100 6
0.363233268 0.194687124 -0.909708392 132 120 100 6
0.363513184 0.193802220 -0.909876387 132 120 100 6
0.363732706 0.192894430 -0.910008136 132 120 100 6
0.363890482 0.191969351 -0.910102826 132 120 100 6
0.363985538 0.191032687 -0.910159876 132 120 100 6
0.364017289 0.190090212 -0.910178931 132 120 100 6
0.363985538 0.189147737 -0.910159876 132 120 100 6
0.363890482 0.188211073 -0.910102826 132 120 100 6
0.363732706 0.187285994 -0.910008136 132 120 100 6
0.363513184 0.186378205 -0.909876387 132 120 100 6
0.363233268 0.185493301 -0.909708392 132 120 100 6
0.362894685 0.184636738 -0.909505188 132 120 100 6
0.362499521 0.183813798 -0.909268026 132 120 100 6
0.362050214 0.183029554 -0.908998370 132 120 100 6
0.361549533 0.182288842 -0.908697881 132 120 100 6
0.361000565 0.181596227 -0.908368412 132 120 100 6
0.360406695 0.180955981 -0.908011995 132 120 100 6
0.359771584 0.180372050 -0.907630826 132 120 100 6
0.359099148 0.179848035 -0.907227257 132 120 100 6
0.358393533 0.179387167 -0.906803774 132 120 100 6
0.357659089 0.178992286 -0.906362990 132 120 100 6
0.356900344 0.178665828 -0.905907621 132 120 100 6
0.356121976 0.178409804 -0.905440475 132 120 100 6
0.355328783 0.178225795 -0.904964432 132 120 100 6
0.354525657 0.178114933 -0.904482428 132 120 100 6
0.161497412 0.178077903 -1.224278611 132 120 100 6
0.160689304 0.178114933 -1.223793617 132 120 100 6
0.159886178 0.178225795 -1.223311612 132 120 100 6
0.159092985 0.178409804 -1.222835569 132 120 100 6
0.158314617 0.178665828 -1.222368424 132 120 100 6
0.157555872 0.178992286 -1.221913055 132 120 100 6
0.156821428 0.179387167 -1.221472270 132 120 100 6
0.156115813 0.179848035 -1.221048788 132 120 100 6
0.155443377 0.180372050 -1.220645218 132 120 100 6
0.154808266 0.180955981 -1.220264050 132 120 100 6
0.154214396 0.181596227 -1.219907632 132 120 100 6
0.153665428 0.182288842 -1.219578164 132 120 100 6
0.153164747 0.183029554 -1.219277675 132 120 100 6
0.152715440 0.183813798 -1.219008018 132 120 100 6
0.152320276 0.184636738 -1.218770856 132 120 100 6
0.151981693 0.185493301 -1.218567652 132 120 100 6
0.151701777 0.186378205 -1.218399658 132 120 100 6
0.151482254 0.187285994 -1.218267909 132 120 100 6
0.151324479 0.188211073 -1.218173218 132 120 100 6
0.151229423 0.189147737 -1.218116169 132 120 100 6
0.151197672 0.190090212 -1.218097114 132 120 100 6
0.151229423 0.191032687 -1.218116169 132 120 100 6
0.151324479 0.191969351 -1.218173218 132 120 100 6
0.151482254 0.192894430 -1.218267909 132 120 100 6
0.151701777 0.193802220 -1.218399658 132 120 100 6
0.151981693 0.194687124 -1.218567652 132 120 100 6
0.152320276 0.195543686 -1.218770856 132 120 100 6
0.152715440 0.196366626 -1.219008018 132 120 100 6
0.153164747 0.197150870 -1.219277675 132 120 100 6
0.153665428 0.197891583 -1.219578164 132 120 100 6
0.154214396 0.198584197 -1.219907632 132 120 100 6
0.154808266 0.199224443 -1.220264050 132 120 100 6
0.155443377 0.199808374 -1.220645218 132 120 100 6
0.156115813 0.200332389 -1.221048788 132 120 100 6
0.156821428 0.200793258 -1.221472270 132 120 100 6
0.157555872 0.201188138 -1.221913055 132 120 100 6
0.158314617 0.201514597 -1.222368424 132 120 100 6
0.159092985 0.201770620 -1.222835569 132 120 100 6
0.159886178 0.201954629 -1.223311612 132 120 100 6
0.160689304 0.202065491 -1.223793617 132 120 100 6
0.161497412 0.202102521 -1.224278611 132 120 100 6
0.162305520 0.202065491 -1.224763606 132 120 100 6
0.163108646 0.201954629 -1.225245611 132 120 100 6
0.163901839 0.201770620 -1.225721654 132 120 100 6
0.164680207 0.201514597 -1.226188799 132 120 100 6
0.165438952 0.201188138 -1.226644168 132 120 100 6
0.166173396 0.200793258 -1.227084953 132 120 100 6
0.166879011 0.200332389 -1.227508435 132 120 100 6
0.167551447 0.199808374 -1.227912005 132 120 100 6
0.168186558 0.199224443 -1.228293173 132 120 100 6
0.168780428 0.198584197 -1.228649591 132 120 100 6
0.169329396 0.197891583 -1.228979059 132 120 100 6
0.169830077 0.197150870 -1.229279548 132 120 100 6
0.170279384 0.196366626 -1.229549205 132 120 100 6
0.170674548 0.195543686 -1.229786366 132 120 100 6
0.171013131 0.194687124 -1.229989571 132 120 100 6
0.171293047 0.193802220 -1.230157565 132 120 100 6
0.171512569 0.192894430 -1.230289314 132 120 100 6
0.171670345 0.191969351 -1.230384005 132 120 100 6
0.171765401 0.191032687 -1.230441054 132 120 100 6
0.171797152 0.190090212 -1.230460109 132 120 100 6
0.171765401 0.189147737 -1.230441054 132 120 100 6
0.171670345 0.188211073 -1.230384005 132 120 100 6
0.171512569 0.187285994 -1.230289314 132 120 100 6
0.171293047 0.186378205 -1.230157565 132 120 100 6
0.171013131 0.185493301 -1.229989571 132 120 100 6
0.170674548 0.184636738 -1.229786366 132 120 100 6
0.170279384 0.183813798 -1.229549205 132 120 100 6
0.169830077 0.183029554 -1.229279548 132 120 100 6
0.169329396 0.182288842 -1.228979059 132 120 100 6
0.168780428 0.181596227 -1.228649591 132 120 100 6
0.168186558 0.180955981 -1.228293173 132 120 100 6
0.167551447 0.180372050 -1.227912005 132 120 100 6
0.166879011 0.179848035 -1.227508435 132 120 100 6
0.166173396 0.179387167 -1.227084953 132 120 100 6
0.165438952 0.178992286 -1.226644168 132 120 100 6
0.164680207 0.178665828 -1.226188799 132 120 100 6
0.163901839 0.178409804 -1.225721654 132 120 100 6
0.163108646 0.178225795 -1.225245611 132 120 100 6
0.162305520 0.178114933 -1.224763606 132 120 100 6
0.353717549 0.190090212 -0.903997433 132 120 100 6
0.161497412 0.190090212 -1.224278611 132 120 100 6
3 0 1 81 0
3 0 81 80 0
3 160 1 0 0
3 161 80 81 0
3 1 2 82 0
3 1 82 81 0
3 160 2 1 0
3 161 81 82 0
3 2 3 83 0
3 2 83 82 0
3 160 3 2 0
3 161 82 83 0
3 3 4 84 0
3 3 84 83 0
3 160 4 3 0
3 161 83 84 0
3 4 5 85 0
3 4 85 84 0
3 160 5 4 0
3 161 84 85 0
3 5 6 86 0
3 5 86 85 0
3 160 6 5 0
3 161 85 86 0
3 6 7 87 0
3 6 87 86 0
3 160 7 6 0
3 161 86 87 0
3 7 8 88 0
3 7 88 87 0
3 160 8 7 0
3 161 87 88 0
3 8 9 89 0
3 8 89 88 0
3 160 9 8 0
3 161 88 89 0
3 9 10 90 0
3 9 90 89 0
3 160 10 9 0
3 161 89 90 0
3 10 11 91 0
3 10 91 90 0
3 160 11 10 0
3 161 90 91 0
3 11 12 92 0
3 11 92 91 0
3 160 12 11 0
3 161 91 92 0
3 12 13 93 0
3 12 93 92 0
3 160 13 12 0
3 161 92 93 0
3 13 14 94 0
3 13 94 93 0
3 160 14 13 0
3 161 93 94 0
3 14 15 95 0
3 14 95 94 0
3 160 15 14 0
3 161 94 95 0
3 15 16 96 0
3 15 96 95 0
3 160 16 15 0
3 161 95 96 0
3 16 17 97 0
3 16 97 96 0
3 160 17 16 0
3 161 96 97 0
3 17 18 98 0
3 17 98 97 0
3 160 18 17 0
3 161 97 98 0
3 18 19 99 0
3 18 99 98 0
3 160 19 18 0
3 161 98 99 0
3 19 20 100 0
3 19 100 99 0
3 160 20 19 0
3 161 99 100 0
3 20 21 101 0
3 20 101 100 0
3 160 21 20 0
3 161 100 101 0
3 21 22 102 0
3 21 102 101 0
3 160 22 21 0
3 161 101 102 0
3 22 23 103 0
3 22 103 102 0
3 160 23 22 0
3 161 102 103 0
3 23 24 104 0
3 23 104 103 0
3 160 24 23 0
3 161 103 104 0
3 24 25 105 0
3 24 105 104 0
3 160 25 24 0
3 161 104 105 0
3 25 26 106 0
3 25 106 105 0
3 160 26 25 0
3 161 105 106 0
3 26 27 107 0
3 26 107 106 0
3 160 27 26 0
3 161 106 107 0
3 27 28 108 0
3 27 108 107 0
3 160 28 27 0
3 161 107 108 0
3 28 29 109 0
3 28 109 108 0
3 160 29 28 0
3 161 108 109 0
3 29 30 110 0
3 29 110 109 0
3 160 30 29 0
3 161 109 110 0
3 30 31 111 0
3 30 111 110 0
3 160 31 30 0
3 161 110 111 0
3 31 32 112 0
3 31 112 111 0
3 160 32 31 0
3 161 111 112 0
3 32 33 113 0
3 32 113 112 0
3 160 33 32 0
3 161 112 113 0
3 33 34 114 0
3 33 114 113 0
3 160 34 33 0
3 161 113 114 0
3 34 35 115 0
3 34 115 114 0
3 160 35 34 0
3 161 114 115 0
3 35 36 116 0
3 35 116 115 0
3 160 36 35 0
3 161 115 116 0
3 36 37 117 0
3 36 117 116 0
3 160 37 36 0
3 161 116 117 0
3 37 38 118 0
3 37 118 117 0
3 160 38 37 0
3 161 117 118 0
3 38 39 119 0
3 38 119 118 0
3 160 39 38 0
3 161 118 119 0
3 39 40 120 0
3 39 120 119 0
3 160 40 39 0
3 161 119 120 0
3 40 41 121 0
3 40 121 120 0
3 160 41 40 0
3 161 120 121 0
3 41 42 122 0
3 41 122 121 0
3 160 42 41 0
3 161 121 122 0
3 42 43 123 0
3 42 123 122 0
3 160 43 42 0
3 161 122 123 0
3 43 44 124 0
3 43 124 123 0
3 160 44 43 0
3 161 123 124 0
3 44 45 125 0
3 44 125 124 0
3 160 45 44 0
3 161 124 125 0
3 45 46 126 0
3 45 126 125 0
3 160 46 45 0
3 161 125 126 0
3 46 47 127 0
3 46 127 126 0
3 160 47 46 0
3 161 126 127 0
3 47 48 128 0
3 47 128 127 0
3 160 48 47 0
3 161 127 128 0
3 48 49 129 0
3 48 129 128 0
3 160 49 48 0
3 161 128 129 0
3 49 50 130 0
3 49 130 129 0
3 160 50 49 0
3 161 129 130 0
3 50 51 131 0
3 50 131 130 0
3 160 51 50 0
3 161 130 131 0
3 51 52 132 0
3 51 132 131 0
3 160 52 51 0
3 161 131 132 0
3 52 53 133 0
3 52 133 132 0
3 160 53 52 0
3 161 132 133 0
3 53 54 134 0
3 53 134 133 0
3 160 54 53 0
3 161 133 134 0
3 54 55 135 0
3 54 135 134 0
3 160 55 54 0
3 161 134 135 0
3 55 56 136 0
3 55 136 135 0
3 160 56 55 0
3 161 135 136 0
3 56 57 137 0
3 56 137 136 0
3 160 57 56 0
3 161 136 137 0
3 57 58 138 0
3 57 138 137 0
3 160 58 57 0
3 161 137 138 0
3 58 59 139 0
3 58 139 138 0
3 160 59 58 0
3 161 138 139 0
3 59 60 140 0
3 59 140 139 0
3 160 60 59 0
3 161 139 140 0
3 60 61 141 0
3 60 141 140 0
3 160 61 60 0
3 161 140 141 0
3 61 62 142 0
3 61 142 141 0
3 160 62 61 0
3 161 141 142 0
3 62 63 143 0
3 62 143 142 0
3 160 63 62 0
3 161 142 143 0
3 63 64 144 0
3 63 144 143 0
3 160 64 63 0
3 161 143 144 0
3 64 65 145 0
3 64 145 144 0
3 160 65 64 0
3 161 144 145 0
3 65 66 146 0
3 65 146 145 0
3 160 66 65 0
3 161 145 146 0
3 66 67 147 0
3 66 147 146 0
3 160 67 66 0
3 161 146 147 0
3 67 68 148 0
3 67 148 147 0
3 160 68 67 0
3 161 147 148 0
3 68 69 149 0
3 68 149 148 0
3 160 69 68 0
3 161 148 149 0
3 69 70 150 0
3 69 150 149 0
3 160 70 69 0
3 161 149 150 0
3 70 71 151 0
3 70 151 150 0
3 160 71 70 0
3 161 150 151 0
3 71 72 152 0
3 71 152 151 0
3 160 72 71 0
3 161 151 152 0
3 72 73 153 0
3 72 153 152 0
3 160 73 72 0
3 161 152 153 0
3 73 74 154 0
3 73 154 153 0
3 160 74 73 0
3 161 153 154 0
3 74 75 155 0
3 74 155 154 0
3 160 75 74 0
3 161 154 155 0
3 75 76 156 0
3 75 156 155 0
3 160 76 75 0
3 161 155 156 0
3 76 77 157 0
3 76 157 156 0
3 160 77 76 0
3 161 156 157 0
3 77 78 158 0
3 77 158 157 0
3 160 78 77 0
3 161 157 158 0
3 78 79 159 0
3 78 159 158 0
3 160 79 78 0
3 161 158 159 0
3 79 0 80 0
3 79 80 159 0
3 160 0 79 0
3 161 159 80 0
3 162 163 243 1
3 162 243 242 1
3 322 163 162 1
3 323 242 243 1
3 163 164 244 1
3 163 244 243 1
3 322 164 163 1
3 323 243 244 1
3 164 165 245 1
3 164 245 244 1
3 322 165 164 1
3 323 244 245 1
3 165 166 246 1
3 165 246 245 1
3 322 166 165 1
3 323 245 246 1
3 166 167 247 1
3 166 247 246 1
3 322 167 166 1
3 323 246 247 1
3 167 168 248 1
3 167 248 247 1
3 322 168 167 1
3 323 247 248 1
3 168 169 249 1
3 168 249 248 1
3 322 169 168 1
3 323 248 249 1
3 169 170 250 1
3 169 250 249 1
3 322 170 169 1
3 323 249 250 1
3 170 171 251 1
3 170 251 250 1
3 322 171 170 1
3 323 250 251 1
3 171 172 252 1
3 171 252 251 1
3 322 172 171 1
3 323 251 252 1
3 172 173 253 1
3 172 253 252 1
3 322 173 172 1
3 323 252 253 1
3 173 174 254 1
3 173 254 253 1
3 322 174 173 1
3 323 253 254 1
3 174 175 255 1
3 174 255 254 1
3 322 175 174 1
3 323 254 255 1
3 175 176 256 1
3 175 256 255 1
3 322 176 175 1
3 323 255 256 1
3 176 177 257 1
3 176 257 256 1
3 322 177 176 1
3 323 256 257 1
3 177 178 258 1
3 177 258 257 1
3 322 178 177 1
3 323 257 258 1
3 178 179 259 1
3 178 259 258 1
3 322 179 178 1
3 323 258 259 1
3 179 180 260 1
3 179 260 259 1
3 322 180 179 1
3 323 259 260 1
3 180 181 261 1
3 180 261 260 1
3 322 181 180 1
3 323 260 261 1
3 181 182 262 1
3 181 262 261 1
3 322 182 181 1
3 323 261 262 1
3 182 183 263 1
3 182 263 262 1
3 322 183 182 1
3 323 262 263 1
3 183 184 264 1
3 183 264 263 1
3 322 184 183 1
3 323 263 264 1
3 184 185 265 1
3 184 265 264 1
3 322 185 184 1
3 323 264 265 1
3 185 186 266 1
3 185 266 265 1
3 322 186 185 1
3 323 265 266 1
3 186 187 267 1
3 186 267 266 1
3 322 187 186 1
3 323 266 267 1
3 187 188 268 1
3 187 268 267 1
3 322 188 187 1
3 323 267 268 1
3 188 189 269 1
3 188 269 268 1
3 322 189 188 1
3 323 268 269 1
3 189 190 270 1
3 189 270 269 1
3 322 190 189 1
3 323 269 270 1
3 190 191 271 1
3 190 271 270 1
3 322 191 190 1
3 323 270 271 1
3 191 192 272 1
3 191 272 271 1
3 322 192 191 1
3 323 271 272 1
3 192 193 273 1
3 192 273 272 1
3 322 193 192 1
3 323 272 273 1
3 193 194 274 1
3 193 274 273 1
3 322 194 193 1
3 323 273 274 1
3 194 195 275 1
3 194 275 274 1
3 322 195 194 1
3 323 274 275 1
3 195 196 276 1
3 195 276 275 1
3 322 196 195 1
3 323 275 276 1
3 196 197 277 1
3 196 277 276 1
3 322 197 196 1
3 323 276 277 1
3 197 198 278 1
3 197 278 277 1
3 322 198 197 1
3 323 277 278 1
3 198 199 279 1
3 198 279 278 1
3 322 199 198 1
3 323 278 279 1
3 199 200 280 1
3 199 280 279 1
3 322 200 199 1
3 323 279 280 1
3 200 201 281 1
3 200 281 280 1
3 322 201 200 1
3 323 280 281 1
3 201 202 282 1
3 201 282 281 1
3 322 202 201 1
3 323 281 282 1
3 202 203 283 1
3 202 283 282 1
3 322 203 202 1
3 323 282 283 1
3 203 204 284 1
3 203 284 283 1
3 322 204 203 1
3 323 283 284 1
3 204 205 285 1
3 204 285 284 1
3 322 205 204 1
3 323 284 285 1
3 205 206 286 1
3 205 286 285 1
3 322 206 205 1
3 323 285 286 1
3 206 207 287 1
3 206 287 286 1
3 322 207 206 1
3 323 286 287 1
3 207 208 288 1
3 207 288 287 1
3 322 208 207 1
3 323 287 288 1
3 208 209 289 1
3 208 289 288 1
3 322 209 208 1
3 323 288 289 1
3 209 210 290 1
3 209 290 289 1
3 322 210 209 1
3 323 289 290 1
3 210 211 291 1
3 210 291 290 1
3 322 211 210 1
3 323 290 291 1
3 211 212 292 1
3 211 292 291 1
3 322 212 211 1
3 323 291 292 1
3 212 213 293 1
3 212 293 292 1
3 322 213 212 1
3 323 292 293 1
3 213 214 294 1
3 213 294 293 1
3 322 214 213 1
3 323 293 294 1
3 214 215 295 1
3 214 295 294 1
3 322 215 214 1
3 323 294 295 1
3 215 216 296 1
3 215 296 295 1
3 322 216 215 1
3 323 295 296 1
3 216 217 297 1
3 216 297 296 1
3 322 217 216 1
3 323 296 297 1
3 217 218 298 1
3 217 298 297 1
3 322 218 217 1
3 323 297 298 1
3 218 219 299 1
3 218 299 298 1
3 322 219 218 1
3 323 298 299 1
3 219 220 300 1
3 219 300 299 1
3 322 220 219 1
3 323 299 300 1
3 220 221 301 1
3 220 301 300 1
3 322 221 220 1
3 323 300 301 1
3 221 222 302 1
3 221 302 301 1
3 322 222 221 1
3 323 301 302 1
3 222 223 303 1
3 222 303 302 1
3 322 223 222 1
3 323 302 303 1
3 223 224 304 1
3 223 304 303 1
3 322 224 223 1
3 323 303 304 1
3 224 225 305 1
3 224 305 304 1
3 322 225 224 1
3 323 304 305 1
3 225 226 306 1
3 225 306 305 1
3 322 226 225 1
3 323 305 306 1
3 226 227 307 1
3 226 307 306 1
3 322 227 226 1
3 323 306 307 1
3 227 228 308 1
3 227 308 307 1
3 322 228 227 1
3 323 307 308 1
3 228 229 309 1
3 228 309 308 1
3 322 229 228 1
3 323 308 309 1
3 229 230 310 1
3 229 310 309 1
3 322 230 229 1
3 323 309 310 1
3 230 231 311 1
3 230 311 310 1
3 322 231 230 1
3 323 310 311 1
3 231 232 312 1
3 231 312 311 1
3 322 232 231 1
3 323 311 312 1
3 232 233 313 1
3 232 313 312 1
3 322 233 232 1
3 323 312 313 1
3 233 234 314 1
3 233 314 313 1
3 322 234 233 1
3 323 313 314 1
3 234 235 315 1
3 234 315 314 1
3 322 235 234 1
3 323 314 315 1
3 235 236 316 1
3 235 316 315 1
3 322 236 235 1
3 323 315 316 1
3 236 237 317 1
3 236 317 316 1
3 322 237 236 1
3 323 316 317 1
3 237 238 318 1
3 237 318 317 1
3 322 238 237 1
3 323 317 318 1
3 238 239 319 1
3 238 319 318 1
3 322 239 238 1
3 323 318 319 1
3 239 240 320 1
3 239 320 319 1
3 322 240 239 1
3 323 319 320 1
3 240 241 321 1
3 240 321 320 1
3 322 241 240 1
3 323 320 321 1
3 241 162 242 1
3 241 242 321 1
3 322 162 241 1
3 323 321 242 1
3 324 325 405 2
3 324 405 404 2
3 484 325 324 2
3 485 404 405 2
3 325 326 406 2
3 325 406 405 2
3 484 326 325 2
3 485 405 406 2
3 326 327 407 2
3 326 407 406 2
3 484 327 326 2
3 485 406 407 2
3 327 328 408 2
3 327 408 407 2
3 484 328 327 2
3 485 407 408 2
3 328 329 409 2
3 328 409 408 2
3 484 329 328 2
3 485 408 409 2
3 329 330 410 2
3 329 410 409 2
3 484 330 329 2
3 485 409 410 2
3 330 331 411 2
3 330 411 410 2
3 484 331 330 2
3 485 410 411 2
3 331 332 412 2
3 331 412 411 2
3 484 332 331 2
3 485 411 412 2
3 332 333 413 2
3 332 413 412 2
3 484 333 332 2
3 485 412 413 2
3 333 334 414 2
3 333 414 413 2
3 484 334 333 2
3 485 413 414 2
3 334 335 415 2
3 334 415 414 2
3 484 335 334 2
3 485 414 415 2
3 335 336 416 2
3 335 416 415 2
3 484 336 335 2
3 485 415 416 2
3 336 337 417 2
3 336 417 416 2
3 484 337 336 2
3 485 416 417 2
3 337 338 418 2
3 337 418 417 2
3 484 338 337 2
3 485 417 418 2
3 338 339 419 2
3 338 419 418 2
3 484 339 338 2
3 485 418 419 2
3 339 340 420 2
3 339 420 419 2
3 484 340 339 2
3 485 419 420 2
3 340 341 421 2
3 340 421 420 2
3 484 341 340 2
3 485 420 421 2
3 341 342 422 2
3 341 422 421 2
3 484 342 341 2
3 485 421 422 2
3 342 343 423 2
3 342 423 422 2
3 484 343 342 2
3 485 422 423 2
3 343 344 424 2
3 343 424 423 2
3 484 344 343 2
3 485 423 424 2
3 344 345 425 2
3 344 425 424 2
3 484 345 344 2
3 485 424 425 2
3 345 346 426 2
3 345 426 425 2
3 484 346 345 2
3 485 425 426 2
3 346 347 427 2
3 346 427 426 2
3 484 347 346 2
3 485 426 427 2
3 347 348 428 2
3 347 428 427 2
3 484 348 347 2
3 485 427 428 2
3 348 349 429 2
3 348 429 428 2
3 484 349 348 2
3 485 428 429 2
3 349 350 430 2
3 349 430 429 2
3 484 350 349 2
3 485 429 430 2
3 350 351 431 2
3 350 431 430 2
3 484 351 350 2
3 485 430 431 2
3 351 352 432 2
3 351 432 431 2
3 484 352 351 2
3 485 431 432 2
3 352 353 433 2
3 352 433 432 2
3 484 353 352 2
3 485 432 433 2
3 353 354 434 2
3 353 434 433 2
3 484 354 353 2
3 485 433 434 2
3 354 355 435 2
3 354 435 434 2
3 484 355 354 2
3 485 434 435 2
3 355 356 436 2
3 355 436 435 2
3 484 356 355 2
3 485 435 436 2
3 356 357 437 2
3 356 437 436 2
3 484 357 356 2
3 485 436 437 2
3 357 358 438 2
3 357 438 437 2
3 484 358 357 2
3 485 437 438 2
3 358 359 439 2
3 358 439 438 2
3 484 359 358 2
3 485 438 439 2
3 359 360 440 2
3 359 440 439 2
3 484 360 359 2
3 485 439 440 2
3 360 361 441 2
3 360 441 440 2
3 484 361 360 2
3 485 440 441 2
3 361 362 442 2
3 361 442 441 2
3 484 362 361 2
3 485 441 442 2
3 362 363 443 2
3 362 443 442 2
3 484 363 362 2
3 485 442 443 2
3 363 364 444 2
3 363 444 443 2
3 484 364 363 2
3 485 443 444 2
3 364 365 445 2
3 364 445 444 2
3 484 365 364 2
3 485 444 445 2
3 365 366 446 2
3 365 446 445 2
3 484 366 365 2
3 485 445 446 2
3 366 367 447 2
3 366 447 446 2
3 484 367 366 2
3 485 446 447 2
3 367 368 448 2
3 367 448 447 2
3 484 368 367 2
3 485 447 448 2
3 368 369 449 2
3 368 449 448 2
3 484 369 368 2
3 485 448 449 2
3 369 370 450 2
3 369 450 449 2
3 484 370 369 2
3 485 449 450 2
3 370 371 451 2
3 370 451 450 2
3 484 371 370 2
3 485 450 451 2
3 371 372 452 2
3 371 452 451 2
3 484 372 371 2
3 485 451 452 2
3 372 373 453 2
3 372 453 452 2
3 484 373 372 2
3 485 452 453 2
3 373 374 454 2
3 373 454 453 2
3 484 374 373 2
3 485 453 454 2
3 374 375 455 2
3 374 455 454 2
3 484 375 374 2
3 485 454 455 2
3 375 376 456 2
3 375 456 455 2
3 484 376 375 2
3 485 455 456 2
3 376 377 457 2
3 376 457 456 2
3 484 377 376 2
3 485 456 457 2
3 377 378 458 2
3 377 458 457 2
3 484 378 377 2
3 485 457 458 2
3 378 379 459 2
3 378 459 458 2
3 484 379 378 2
3 485 458 459 2
3 379 380 460 2
3 379 460 459 2
3 484 380 379 2
3 485 459 460 2
3 380 381 461 2
3 380 461 460 2
3 484 381 380 2
3 485 460 461 2
3 381 382 462 2
3 381 462 461 2
3 484 382 381 2
3 485 461 462 2
3 382 383 463 2
3 382 463 462 2
3 484 383 382 2
3 485 462 463 2
3 383 384 464 2
3 383 464 463 2
3 484 384 383 2
3 485 463 464 2
3 384 385 465 2
3 384 465 464 2
3 484 385 384 2
3 485 464 465 2
3 385 386 466 2
3 385 466 465 2
3 484 386 385 2
3 485 465 466 2
3 386 387 467 2
3 386 467 466 2
3 484 387 386 2
3 485 466 467 2
3 387 388 468 2
3 387 468 467 2
3 484 388 387 2
3 485 467 468 2
3 388 389 469 2
3 388 469 468 2
3 484 389 388 2
3 485 468 469 2
3 389 390 470 2
3 389 470 469 2
3 484 390 389 2
3 485 469 470 2
3 390 391 471 2
3 390 471 470 2
3 484 391 390 2
3 485 470 471 2
3 391 392 472 2
3 391 472 471 2
3 484 392 391 2
3 485 471 472 2
3 392 393 473 2
3 392 473 472 2
3 484 393 392 2
3 485 472 473 2
3 393 394 474 2
3 393 474 473 2
3 484 394 393 2
3 485 473 474 2
3 394 395 475 2
3 394 475 474 2
3 484 395 394 2
3 485 474 475 2
3 395 396 476 2
3 395 476 475 2
3 484 396 395 2
3 485 475 476 2
3 396 397 477 2
3 396 477 476 2
3 484 397 396 2
3 485 476 477 2
3 397 398 478 2
3 397 478 477 2
3 484 398 397 2
3 485 477 478 2
3 398 399 479 2
3 398 479 478 2
3 484 399 398 2
3 485 478 479 2
3 399 400 480 2
3 399 480 479 2
3 484 400 399 2
3 485 479 480 2
3 400 401 481 2
3 400 481 480 2
3 484 401 400 2
3 485 480 481 2
3 401 402 482 2
3 401 482 481 2
3 484 402 401 2
3 485 481 482 2
3 402 403 483 2
3 402 483 482 2
3 484 403 402 2
3 485 482 483 2
3 403 324 404 2
3 403 404 483 2
3 484 324 403 2
3 485 483 404 2
3 486 487 567 3
3 486 567 566 3
3 646 487 486 3
3 647 566 567 3
3 487 488 568 3
3 487 568 567 3
3 646 488 487 3
3 647 567 568 3
3 488 489 569 3
3 488 569 568 3
3 646 489 488 3
3 647 568 569 3
3 489 490 570 3
3 489 570 569 3
3 646 490 489 3
3 647 569 570 3
3 490 491 571 3
3 490 571 570 3
3 646 491 490 3
3 647 570 571 3
3 491 492 572 3
3 491 572 571 3
3 646 492 491 3
3 647 571 572 3
3 492 493 573 3
3 492 573 572 3
3 646 493 492 3
3 647 572 573 3
3 493 494 574 3
3 493 574 573 3
3 646 494 493 3
3 647 573 574 3
3 494 495 575 3
3 494 575 574 3
3 646 495 494 3
3 647 574 575 3
3 495 496 576 3
3 495 576 575 3
3 646 496 495 3
3 647 575 576 3
3 496 497 577 3
3 496 577 576 3
3 646 497 496 3
3 647 576 577 3
3 497 498 578 3
3 497 578 577 3
3 646 498 497 3
3 647 577 578 3
3 498 499 579 3
3 498 579 578 3
3 646 499 498 3
3 647 578 579 3
3 499 500 580 3
3 499 580 579 3
3 646 500 499 3
3 647 579 580 3
3 500 501 581 3
3 500 581 580 3
3 646 501 500 3
3 647 580 581 3
3 501 502 582 3
3 501 582 581 3
3 646 502 501 3
3 647 581 582 3
3 502 503 583 3
3 502 583 582 3
3 646 503 502 3
3 647 582 583 3
3 503 504 584 3
3 503 584 583 3
3 646 504 503 3
3 647 583 584 3
3 504 505 585 3
3 504 585 584 3
3 646 505 504 3
3 647 584 585 3
3 505 506 586 3
3 505 586 585 3
3 646 506 505 3
3 647 585 586 3
3 506 507 587 3
3 506 587 586 3
3 646 507 506 3
3 647 586 587 3
3 507 508 588 3
3 507 588 587 3
3 646 508 507 3
3 647 587 588 3
3 508 509 589 3
3 508 589 588 3
3 646 509 508 3
3 647 588 589 3
3 509 510 590 3
3 509 590 589 3
3 646 510 509 3
3 647 589 590 3
3 510 511 591 3
3 510 591 590 3
3 646 511 510 3
3 647 590 591 3
3 511 512 592 3
3 511 592 591 3
3 646 512 511 3
3 647 591 592 3
3 512 513 593 3
3 512 593 592 3
3 646 513 512 3
3 647 592 593 3
3 513 514 594 3
3 513 594 593 3
3 646 514 513 3
3 647 593 594 3
3 514 515 595 3
3 514 595 594 3
3 646 515 514 3
3 647 594 595 3
3 515 516 596 3
3 515 596 595 3
3 646 516 515 3
3 647 595 596 3
3 516 517 597 3
3 516 597 596 3
3 646 517 516 3
3 647 596 597 3
3 517 518 598 3
3 517 598 597 3
3 646 518 517 3
3 647 597 598 3
3 518 519 599 3
3 518 599 598 3
3 646 519 518 3
3 647 598 599 3
3 519 520 600 3
3 519 600 599 3
3 646 520 519 3
3 647 599 600 3
3 520 521 601 3
3 520 601 600 3
3 646 521 520 3
3 647 600 601 3
3 521 522 602 3
3 521 602 601 3
3 646 522 521 3
3 647 601 602 3
3 522 523 603 3
3 522 603 602 3
3 646 523 522 3
3 647 602 603 3
3 523 524 604 3
3 523 604 603 3
3 646 524 523 3
3 647 603 604 3
3 524 525 605 3
3 524 605 604 3
3 646 525 524 3
3 647 604 605 3
3 525 526 606 3
3 525 606 605 3
3 646 526 525 3
3 647 605 606 3
3 526 527 607 3
3 526 607 606 3
3 646 527 526 3
3 647 606 607 3
3 527 528 608 3
3 527 608 607 3
3 646 528 527 3
3 647 607 608 3
3 528 529 609 3
3 528 609 608 3
3 646 529 528 3
3 647 608 609 3
3 529 530 610 3
3 529 610 609 3
3 646 530 529 3
3 647 609 610 3
3 530 531 611 3
3 530 611 610 3
3 646 531 530 3
3 647 610 611 3
3 531 532 612 3
3 531 612 611 3
3 646 532 531 3
3 647 611 612 3
3 532 533 613 3
3 532 613 612 3
3 646 533 532 3
3 647 612 613 3
3 533 534 614 3
3 533 614 613 3
3 646 534 533 3
3 647 613 614 3
3 534 535 615 3
3 534 615 614 3
3 646 535 534 3
3 647 614 615 3
3 535 536 616 3
3 535 616 615 3
3 646 536 535 3
3 647 615 616 3
3 536 537 617 3
3 536 617 616 3
3 646 537 536 3
3 647 616 617 3
3 537 538 618 3
3 537 618 617 3
3 646 538 537 3
3 647 617 618 3
3 538 539 619 3
3 538 619 618 3
3 646 539 538 3
3 647 618 619 3
3 539 540 620 3
3 539 620 619 3
3 646 540 539 3
3 647 619 620 3
3 540 541 621 3
3 540 621 620 3
3 646 541 540 3
3 647 620 621 3
3 541 542 622 3
3 541 622 621 3
3 646 542 541 3
3 647 621 622 3
3 542 543 623 3
3 542 623 622 3
3 646 543 542 3
3 647 622 623 3
3 543 544 624 3
3 543 624 623 3
3 646 544 543 3
3 647 623 624 3
3 544 545 625 3
3 544 625 624 3
3 646 545 544 3
3 647 624 625 3
3 545 546 626 3
3 545 626 625 3
3 646 546 545 3
3 647 625 626 3
3 546 547 627 3
3 546 627 626 3
3 646 547 546 3
3 647 626 627 3
3 547 548 628 3
3 547 628 627 3
3 646 548 547 3
3 647 627 628 3
3 548 549 629 3
3 548 629 628 3
3 646 549 548 3
3 647 628 629 3
3 549 550 630 3
3 549 630 629 3
3 646 550 549 3
3 647 629 630 3
3 550 551 631 3
3 550 631 630 3
3 646 551 550 3
3 647 630 631 3
3 551 552 632 3
3 551 632 631 3
3 646 552 551 3
3 647 631 632 3
3 552 553 633 3
3 552 633 632 3
3 646 553 552 3
3 647 632 633 3
3 553 554 634 3
3 553 634 633 3
3 646 554 553 3
3 647 633 634 3
3 554 555 635 3
3 554 635 634 3
3 646 555 554 3
3 647 634 635 3
3 555 556 636 3
3 555 636 635 3
3 646 556 555 3
3 647 635 636 3
3 556 557 637 3
3 556 637 636 3
3 646 557 556 3
3 647 636 637 3
3 557 558 638 3
3 557 638 637 3
3 646 558 557 3
3 647 637 638 3
3 558 559 639 3
3 558 639 638 3
3 646 559 558 3
3 647 638 639 3
3 559 560 640 3
3 559 640 639 3
3 646 560 559 3
3 647 639 640 3
3 560 561 641 3
3 560 641 640 3
3 646 561 560 3
3 647 640 641 3
3 561 562 642 3
3 561 642 641 3
3 646 562 561 3
3 647 641 642 3
3 562 563 643 3
3 562 643 642 3
3 646 563 562 3
3 647 642 643 3
3 563 564 644 3
3 563 644 643 3
3 646 564 563 3
3 647 643 644 3
3 564 565 645 3
3 564 645 644 3
3 646 565 564 3
3 647 644 645 3
3 565 486 566 3
3 565 566 645 3
3 646 486 565 3
3 647 645 566 3
3 648 649 729 4
3 648 729 728 4
3 808 649 648 4
3 809 728 729 4
3 649 650 730 4
3 649 730 729 4
3 808 650 649 4
3 809 729 730 4
3 650 651 731 4
3 650 731 730 4
3 808 651 650 4
3 809 730 731 4
3 651 652 732 4
3 651 732 731 4
3 808 652 651 4
3 809 731 732 4
3 652 653 733 4
3 652 733 732 4
3 808 653 652 4
3 809 732 733 4
3 653 654 734 4
3 653 734 733 4
3 808 654 653 4
3 809 733 734 4
3 654 655 735 4
3 654 735 734 4
3 808 655 654 4
3 809 734 735 4
3 655 656 736 4
3 655 736 735 4
3 808 656 655 4
3 809 735 736 4
3 656 657 737 4
3 656 737 736 4
3 808 657 656 4
3 809 736 737 4
3 657 658 738 4
3 657 738 737 4
3 808 658 657 4
3 809 737 738 4
3 658 659 739 4
3 658 739 738 4
3 808 659 658 4
3 809 738 739 4
3 659 660 740 4
3 659 740 739 4
3 808 660 659 4
3 809 739 740 4
3 660 661 741 4
3 660 741 740 4
3 808 661 660 4
3 809 740 741 4
3 661 662 742 4
3 661 742 741 4
3 808 662 661 4
3 809 741 742 4
3 662 663 743 4
3 662 743 742 4
3 808 663 662 4
3 809 742 743 4
3 663 664 744 4
3 663 744 743 4
3 808 664 663 4
3 809 743 744 4
3 664 665 745 4
3 664 745 744 4
3 808 665 664 4
3 809 744 745 4
3 665 666 746 4
3 665 746 745 4
3 808 666 665 4
3 809 745 746 4
3 666 667 747 4
3 666 747 746 4
3 808 667 666 4
3 809 746 747 4
3 667 668 748 4
3 667 748 747 4
3 808 668 667 4
3 809 747 748 4
3 668 669 749 4
3 668 749 748 4
3 808 669 668 4
3 809 748 749 4
3 669 670 750 4
3 669 750 749 4
3 808 670 669 4
3 809 749 750 4
3 670 671 751 4
3 670 751 750 4
3 808 671 670 4
3 809 750 751 4
3 671 672 752 4
3 671 752 751 4
3 808 672 671 4
3 809 751 752 4
3 672 673 753 4
3 672 753 752 4
3 808 673 672 4
3 809 752 753 4
3 673 674 754 4
3 673 754 753 4
3 808 674 673 4
3 809 753 754 4
3 674 675 755 4
3 674 755 754 4
3 808 675 674 4
3 809 754 755 4
3 675 676 756 4
3 675 756 755 4
3 808 676 675 4
3 809 755 756 4
3 676 677 757 4
3 676 757 756 4
3 808 677 676 4
3 809 756 757 4
3 677 678 758 4
3 677 758 757 4
3 808 678 677 4
3 809 757 758 4
3 678 679 759 4
3 678 759 758 4
3 808 679 678 4
3 809 758 759 4
3 679 680 760 4
3 679 760 759 4
3 808 680 679 4
3 809 759 760 4
3 680 681 761 4
3 680 761 760 4
3 808 681 680 4
3 809 760 761 4
3 681 682 762 4
3 681 762 761 4
3 808 682 681 4
3 809 761 762 4
3 682 683 763 4
3 682 763 762 4
3 808 683 682 4
3 809 762 763 4
3 683 684 764 4
3 683 764 763 4
3 808 684 683 4
3 809 763 764 4
3 684 685 765 4
3 684 765 764 4
3 808 685 684 4
3 809 764 765 4
3 685 686 766 4
3 685 766 765 4
3 808 686 685 4
3 809 765 766 4
3 686 687 767 4
3 686 767 766 4
3 808 687 686 4
3 809 766 767 4
3 687 688 768 4
3 687 768 767 4
3 808 688 687 4
3 809 767 768 4
3 688 689 769 4
3 688 769 768 4
3 808 689 688 4
3 809 768 769 4
3 689 690 770 4
3 689 770 769 4
3 808 690 689 4
3 809 769 770 4
3 690 691 771 4
3 690 771 770 4
3 808 691 690 4
3 809 770 771 4
3 691 692 772 4
3 691 772 771 4
3 808 692 691 4
3 809 771 772 4
3 692 693 773 4
3 692 773 772 4
3 808 693 692 4
3 809 772 773 4
3 693 694 774 4
3 693 774 773 4
3 808 694 693 4
3 809 773 774 4
3 694 695 775 4
3 694 775 774 4
3 808 695 694 4
3 809 774 775 4
3 695 696 776 4
3 695 776 775 4
3 808 696 695 4
3 809 775 776 4
3 696 697 777 4
3 696 777 776 4
3 808 697 696 4
3 809 776 777 4
3 697 698 778 4
3 697 778 777 4
3 808 698 697 4
3 809 777 778 4
3 698 699 779 4
3 698 779 778 4
3 808 699 698 4
3 809 778 779 4
3 699 700 780 4
3 699 780 779 4
3 808 700 699 4
3 809 779 780 4
3 700 701 781 4
3 700 781 780 4
3 808 701 700 4
3 809 780 781 4
3 701 702 782 4
3 701 782 781 4
3 808 702 701 4
3 809 781 782 4
3 702 703 783 4
3 702 783 782 4
3 808 703 702 4
3 809 782 783 4
3 703 704 784 4
3 703 784 783 4
3 808 704 703 4
3 809 783 784 4
3 704 705 785 4
3 704 785 784 4
3 808 705 704 4
3 809 784 785 4
3 705 706 786 4
3 705 786 785 4
3 808 706 705 4
3 809 785 786 4
3 706 707 787 4
3 706 787 786 4
3 808 707 706 4
3 809 786 787 4
3 707 708 788 4
3 707 788 787 4
3 808 708 707 4
3 809 787 788 4
3 708 709 789 4
3 708 789 788 4
3 808 709 708 4
3 809 788 789 4
3 709 710 790 4
3 709 790 789 4
3 808 710 709 4
3 809 789 790 4
3 710 711 791 4
3 710 791 790 4
3 808 711 710 4
3 809 790 791 4
3 711 712 792 4
3 711 792 791 4
3 808 712 711 4
3 809 791 792 4
3 712 713 793 4
3 712 793 792 4
3 808 713 712 4
3 809 792 793 4
3 713 714 794 4
3 713 794 793 4
3 808 714 713 4
3 809 793 794 4
3 714 715 795 4
3 714 795 794 4
3 808 715 714 4
3 809 794 795 4
3 715 716 796 4
3 715 796 795 4
3 808 716 715 4
3 809 795 796 4
3 716 717 797 4
3 716 797 796 4
3 808 717 716 4
3 809 796 797 4
3 717 718 798 4
3 717 798 797 4
3 808 718 717 4
3 809 797 798 4
3 718 719 799 4
3 718 799 798 4
3 808 719 718 4
3 809 798 799 4
3 719 720 800 4
3 719 800 799 4
3 808 720 719 4
3 809 799 800 4
3 720 721 801 4
3 720 801 800 4
3 808 721 720 4
3 809 800 801 4
3 721 722 802 4
3 721 802 801 4
3 808 722 721 4
3 809 801 802 4
3 722 723 803 4
3 722 803 802 4
3 808 723 722 4
3 809 802 803 4
3 723 724 804 4
3 723 804 803 4
3 808 724 723 4
3 809 803 804 4
3 724 725 805 4
3 724 805 804 4
3 808 725 724 4
3 809 804 805 4
3 725 726 806 4
3 725 806 805 4
3 808 726 725 4
3 809 805 806 4
3 726 727 807 4
3 726 807 806 4
3 808 727 726 4
3 809 806 807 4
3 727 648 728 4
3 727 728 807 4
3 808 648 727 4
3 809 807 728 4
3 810 811 891 5
3 810 891 890 5
3 970 811 810 5
3 971 890 891 5
3 811 812 892 5
3 811 892 891 5
3 970 812 811 5
3 971 891 892 5
3 812 813 893 5
3 812 893 892 5
3 970 813 812 5
3 971 892 893 5
3 813 814 894 5
3 813 894 893 5
3 970 814 813 5
3 971 893 894 5
3 814 815 895 5
3 814 895 894 5
3 970 815 814 5
3 971 894 895 5
3 815 816 896 5
3 815 896 895 5
3 970 816 815 5
3 971 895 896 5
3 816 817 897 5
3 816 897 896 5
3 970 817 816 5
3 971 896 897 5
3 817 818 898 5
3 817 898 897 5
3 970 818 817 5
3 971 897 898 5
3 818 819 899 5
3 818 899 898 5
3 970 819 818 5
3 971 898 899 5
3 819 820 900 5
3 819 900 899 5
3 970 820 819 5
3 971 899 900 5
3 820 821 901 5
3 820 901 900 5
3 970 821 820 5
3 971 900 901 5
3 821 822 902 5
3 821 902 901 5
3 970 822 821 5
3 971 901 902 5
3 822 823 903 5
3 822 903 902 5
3 970 823 822 5
3 971 902 903 5
3 823 824 904 5
3 823 904 903 5
3 970 824 823 5
3 971 903 904 5
3 824 825 905 5
3 824 905 904 5
3 970 825 824 5
3 971 904 905 5
3 825 826 906 5
3 825 906 905 5
3 970 826 825 5
3 971 905 906 5
3 826 827 907 5
3 826 907 906 5
3 970 827 826 5
3 971 906 907 5
3 827 828 908 5
3 827 908 907 5
3 970 828 827 5
3 971 907 908 5
3 828 829 909 5
3 828 909 908 5
3 970 829 828 5
3 971 908 909 5
3 829 830 910 5
3 829 910 909 5
3 970 830 829 5
3 971 909 910 5
3 830 831 911 5
3 830 911 910 5
3 970 831 830 5
3 971 910 911 5
3 831 832 912 5
3 831 912 911 5
3 970 832 831 5
3 971 911 912 5
3 832 833 913 5
3 832 913 912 5
3 970 833 832 5
3 971 912 913 5
3 833 834 914 5
3 833 914 913 5
3 970 834 833 5
3 971 913 914 5
3 834 835 915 5
3 834 915 914 5
3 970 835 834 5
3 971 914 915 5
3 835 836 916 5
3 835 916 915 5
3 970 836 835 5
3 971 915 916 5
3 836 837 917 5
3 836 917 916 5
3 970 837 836 5
3 971 916 917 5
3 837 838 918 5
3 837 918 917 5
3 970 838 837 5
3 971 917 918 5
3 838 839 919 5
3 838 919 918 5
3 970 839 838 5
3 971 918 919 5
3 839 840 920 5
3 839 920 919 5
3 970 840 839 5
3 971 919 920 5
3 840 841 921 5
3 840 921 920 5
3 970 841 840 5
3 971 920 921 5
3 841 842 922 5
3 841 922 921 5
3 970 842 841 5
3 971 921 922 5
3 842 843 923 5
3 842 923 922 5
3 970 843 842 5
3 971 922 923 5
3 843 844 924 5
3 843 924 923 5
3 970 844 843 5
3 971 923 924 5
3 844 845 925 5
3 844 925 924 5
3 970 845 844 5
3 971 924 925 5
3 845 846 926 5
3 845 926 925 5
3 970 846 845 5
3 971 925 926 5
3 846 847 927 5
3 846 927 926 5
3 970 847 846 5
3 971 926 927 5
3 847 848 928 5
3 847 928 927 5
3 970 848 847 5
3 971 927 928 5
3 848 849 929 5
3 848 929 928 5
3 970 849 848 5
3 971 928 929 5
3 849 850 930 5
3 849 930 929 5
3 970 850 849 5
3 971 929 930 5
3 850 851 931 5
3 850 931 930 5
3 970 851 850 5
3 971 930 931 5
3 851 852 932 5
3 851 932 931 5
3 970 852 851 5
3 971 931 932 5
3 852 853 933 5
3 852 933 932 5
3 970 853 852 5
3 971 932 933 5
3 853 854 934 5
3 853 934 933 5
3 970 854 853 5
3 971 933 934 5
3 854 855 935 5
3 854 935 934 5
3 970 855 854 5
3 971 934 935 5
3 855 856 936 5
3 855 936 935 5
3 970 856 855 5
3 971 935 936 5
3 856 857 937 5
3 856 937 936 5
3 970 857 856 5
3 971 936 937 5
3 857 858 938 5
3 857 938 937 5
3 970 858 857 5
3 971 937 938 5
3 858 859 939 5
3 858 939 938 5
3 970 859 858 5
3 971 938 939 5
3 859 860 940 5
3 859 940 939 5
3 970 860 859 5
3 971 939 940 5
3 860 861 941 5
3 860 941 940 5
3 970 861 860 5
3 971 940 941 5
3 861 862 942 5
3 861 942 941 5
3 970 862 861 5
3 971 941 942 5
3 862 863 943 5
3 862 943 942 5
3 970 863 862 5
3 971 942 943 5
3 863 864 944 5
3 863 944 943 5
3 970 864 863 5
3 971 943 944 5
3 864 865 945 5
3 864 945 944 5
3 970 865 864 5
3 971 944 945 5
3 865 866 946 5
3 865 946 945 5
3 970 866 865 5
3 971 945 946 5
3 866 867 947 5
3 866 947 946 5
3 970 867 866 5
3 971 946 947 5
3 867 868 948 5
3 867 948 947 5
3 970 868 867 5
3 971 947 948 5
3 868 869 949 5
3 868 949 948 5
3 970 869 868 5
3 971 948 949 5
3 869 870 950 5
3 869 950 949 5
3 970 870 869 5
3 971 949 950 5
3 870 871 951 5
3 870 951 950 5
3 970 871 870 5
3 971 950 951 5
3 871 872 952 5
3 871 952 951 5
3 970 872 871 5
3 971 951 952 5
3 872 873 953 5
3 872 953 952 5
3 970 873 872 5
3 971 952 953 5
3 873 874 954 5
3 873 954 953 5
3 970 874 873 5
3 971 953 954 5
3 874 875 955 5
3 874 955 954 5
3 970 875 874 5
3 971 954 955 5
3 875 876 956 5
3 875 956 955 5
3 970 876 875 5
3 971 955 956 5
3 876 877 957 5
3 876 957 956 5
3 970 877 876 5
3 971 956 957 5
3 877 878 958 5
3 877 958 957 5
3 970 878 877 5
3 971 957 958 5
3 878 879 959 5
3 878 959 958 5
3 970 879 878 5
3 971 958 959 5
3 879 880 960 5
3 879 960 959 5
3 970 880 879 5
3 971 959 960 5
3 880 881 961 5
3 880 961 960 5
3 970 881 880 5
3 971 960 961 5
3 881 882 962 5
3 881 962 961 5
3 970 882 881 5
3 971 961 962 5
3 882 883 963 5
3 882 963 962 5
3 970 883 882 5
3 971 962 963 5
3 883 884 964 5
3 883 964 963 5
3 970 884 883 5
3 971 963 964 5
3 884 885 965 5
3 884 965 964 5
3 970 885 884 5
3 971 964 965 5
3 885 886 966 5
3 885 966 965 5
3 970 886 885 5
3 971 965 966 5
3 886 887 967 5
3 886 967 966 5
3 970 887 886 5
3 971 966 967 5
3 887 888 968 5
3 887 968 967 5
3 970 888 887 5
3 971 967 968 5
3 888 889 969 5
3 888 969 968 5
3 970 889 888 5
3 971 968 969 5
3 889 810 890 5
3 889 890 969 5
3 970 810 889 5
3 971 969 890 5
3 972 973 1053 6
3 972 1053 1052 6
3 1132 973 972 6
3 1133 1052 1053 6
3 973 974 1054 6
3 973 1054 1053 6
3 1132 974 973 6
3 1133 1053 1054 6
3 974 975 1055 6
3 974 1055 1054 6
3 1132 975 974 6
3 1133 1054 1055 6
3 975 976 1056 6
3 975 1056 1055 6
3 1132 976 975 6
3 1133 1055 1056 6
3 976 977 1057 6
3 976 1057 1056 6
3 1132 977 976 6
3 1133 1056 1057 6
3 977 978 1058 6
3 977 1058 1057 6
3 1132 978 977 6
3 1133 1057 1058 6
3 978 979 1059 6
3 978 1059 1058 6
3 1132 979 978 6
3 1133 1058 1059 6
3 979 980 1060 6
3 979 1060 1059 6
3 1132 980 979 6
3 1133 1059 1060 6
3 980 981 1061 6
3 980 1061 1060 6
3 1132 981 980 6
3 1133 1060 1061 6
3 981 982 1062 6
3 981 1062 1061 6
3 1132 982 981 6
3 1133 1061 1062 6
3 982 983 1063 6
3 982 1063 1062 6
3 1132 983 982 6
3 1133 1062 1063 6
3 983 984 1064 6
3 983 1064 1063 6
3 1132 984 983 6
3 1133 1063 1064 6
3 984 985 1065 6
3 984 1065 1064 6
3 1132 985 984 6
3 1133 1064 1065 6
3 985 986 1066 6
3 985 1066 1065 6
3 1132 986 985 6
3 1133 1065 1066 6
3 986 987 1067 6
3 986 1067 1066 6
3 1132 987 986 6
3 1133 1066 1067 6
3 987 988 1068 6
3 987 1068 1067 6
3 1132 988 987 6
3 1133 1067 1068 6
3 988 989 1069 6
3 988 1069 1068 6
3 1132 989 988 6
3 1133 1068 1069 6
3 989 990 1070 6
3 989 1070 1069 6
3 1132 990 989 6
3 1133 1069 1070 6
3 990 991 1071 6
3 990 1071 1070 6
3 1132 991 990 6
3 1133 1070 1071 6
3 991 992 1072 6
3 991 1072 1071 6
3 1132 992 991 6
3 1133 1071 1072 6
3 992 993 1073 6
3 992 1073 1072 6
3 1132 993 992 6
3 1133 1072 1073 6
3 993 994 1074 6
3 993 1074 1073 6
3 1132 994 993 6
3 1133 1073 1074 6
3 994 995 1075 6
3 994 1075 1074 6
3 1132 995 994 6
3 1133 1074 1075 6
3 995 996 1076 6
3 995 1076 1075 6
3 1132 996 995 6
3 1133 1075 1076 6
3 996 997 1077 6
3 996 1077 1076 6
3 1132 997 996 6
3 1133 1076 1077 6
3 997 998 1078 6
3 997 1078 1077 6
3 1132 998 997 6
3 1133 1077 1078 6
3 998 999 1079 6
3 998 1079 1078 6
3 1132 999 998 6
3 1133 1078 1079 6
3 999 1000 1080 6
3 999 1080 1079 6
3 1132 1000 999 6
3 1133 1079 1080 6
3 1000 1001 1081 6
3 1000 1081 1080 6
3 1132 1001 1000 6
3 1133 1080 1081 6
3 1001 1002 1082 6
3 1001 1082 1081 6
3 1132 1002 1001 6
3 1133 1081 1082 6
3 1002 1003 1083 6
3 1002 1083 1082 6
3 1132 1003 1002 6
3 1133 1082 1083 6
3 1003 1004 1084 6
3 1003 1084 1083 6
3 1132 1004 1003 6
3 1133 1083 1084 6
3 1004 1005 1085 6
3 1004 1085 1084 6
3 1132 1005 1004 6
3 1133 1084 1085 6
3 1005 1006 1086 6
3 1005 1086 1085 6
3 1132 1006 1005 6
3 1133 1085 1086 6
3 1006 1007 1087 6
3 1006 1087 1086 6
3 1132 1007 1006 6
3 1133 1086 1087 6
3 1007 1008 1088 6
3 1007 1088 1087 6
3 1132 1008 1007 6
3 1133 1087 1088 6
3 1008 1009 1089 6
3 1008 1089 1088 6
3 1132 1009 1008 6
3 1133 1088 1089 6
3 1009 1010 1090 6
3 1009 1090 1089 6
3 1132 1010 1009 6
3 1133 1089 1090 6
3 1010 1011 1091 6
3 1010 1091 1090 6
3 1132 1011 1010 6
3 1133 1090 1091 6
3 1011 1012 1092 6
3 1011 1092 1091 6
3 1132 1012 1011 6
3 1133 1091 1092 6
3 1012 1013 1093 6
3 1012 1093 1092 6
3 1132 1013 1012 6
3 1133 1092 1093 6
3 1013 1014 1094 6
3 1013 1094 1093 6
3 1132 1014 1013 6
3 1133 1093 1094 6
3 1014 1015 1095 6
3 1014 1095 1094 6
3 1132 1015 1014 6
3 1133 1094 1095 6
3 1015 1016 1096 6
3 1015 1096 1095 6
3 1132 1016 1015 6
3 1133 1095 1096 6
3 1016 1017 1097 6
3 1016 1097 1096 6
3 1132 1017 1016 6
3 1133 1096 1097 6
3 1017 1018 1098 6
3 1017 1098 1097 6
3 1132 1018 1017 6
3 1133 1097 1098 6
3 1018 1019 1099 6
3 1018 1099 1098 6
3 1132 1019 1018 6
3 1133 1098 1099 6
3 1019 1020 1100 6
3 1019 1100 1099 6
3 1132 1020 1019 6
3 1133 1099 1100 6
3 1020 1021 1101 6
3 1020 1101 1100 6
3 1132 1021 1020 6
3 1133 1100 1101 6
3 1021 1022 1102 6
3 1021 1102 1101 6
3 1132 1022 1021 6
3 1133 1101 1102 6
3 1022 1023 1103 6
3 1022 1103 1102 6
3 1132 1023 1022 6
3 1133 1102 1103 6
3 1023 1024 1104 6
3 1023 1104 1103 6
3 1132 1024 1023 6
3 1133 1103 1104 6
3 1024 1025 1105 6
3 1024 1105 1104 6
3 1132 1025 1024 6
3 1133 1104 1105 6
3 1025 1026 1106 6
3 1025 1106 1105 6
3 1132 1026 1025 6
3 1133 1105 1106 6
3 1026 1027 1107 6
3 1026 1107 1106 6
3 1132 1027 1026 6
3 1133 1106 1107 6
3 1027 1028 1108 6
3 1027 1108 1107 6
3 1132 1028 1027 6
3 1133 1107 1108 6
3 1028 1029 1109 6
3 1028 1109 1108 6
3 1132 1029 1028 6
3 1133 1108 1109 6
3 1029 1030 1110 6
3 1029 1110 1109 6
3 1132 1030 1029 6
3 1133 1109 1110 6
3 1030 1031 1111 6
3 1030 1111 1110 6
3 1132 1031 1030 6
3 1133 1110 1111 6
3 1031 1032 1112 6
3 1031 1112 1111 6
3 1132 1032 1031 6
3 1133 1111 1112 6
3 1032 1033 1113 6
3 1032 1113 1112 6
3 1132 1033 1032 6
3 1133 1112 1113 6
3 1033 1034 1114 6
3 1033 1114 1113 6
3 1132 1034 1033 6
3 1133 1113 1114 6
3 1034 1035 1115 6
3 1034 1115 1114 6
3 1132 1035 1034 6
3 1133 1114 1115 6
3 1035 1036 1116 6
3 1035 1116 1115 6
3 1132 1036 1035 6
3 1133 1115 1116 6
3 1036 1037 1117 6
3 1036 1117 1116 6
3 1132 1037 1036 6
3 1133 1116 1117 6
3 1037 1038 1118 6
3 1037 1118 1117 6
3 1132 1038 1037 6
3 1133 1117 1118 6
3 1038 1039 1119 6
3 1038 1119 1118 6
3 1132 1039 1038 6
3 1133 1118 1119 6
3 1039 1040 1120 6
3 1039 1120 1119 6
3 1132 1040 1039 6
3 1133 1119 1120 6
3 1040 1041 1121 6
3 1040 1121 1120 6
3 1132 1041 1040 6
3 1133 1120 1121 6
3 1041 1042 1122 6
3 1041 1122 1121 6
3 1132 1042 1041 6
3 1133 1121 1122 6
3 1042 1043 1123 6
3 1042 1123 1122 6
3 1132 1043 1042 6
3 1133 1122 1123 6
3 1043 1044 1124 6
3 1043 1124 1123 6
3 1132 1044 1043 6
3 1133 1123 1124 6
3 1044 1045 1125 6
3 1044 1125 1124 6
3 1132 1045 1044 6
3 1133 1124 1125 6
3 1045 1046 1126 6
3 1045 1126 1125 6
3 1132 1046 1045 6
3 1133 1125 1126 6
3 1046 1047 1127 6
3 1046 1127 1126 6
3 1132 1047 1046 6
3 1133 1126 1127 6
3 1047 1048 1128 6
3 1047 1128 1127 6
3 1132 1048 1047 6
3 1133 1127 1128 6
3 1048 1049 1129 6
3 1048 1129 1128 6
3 1132 1049 1048 6
3 1133 1128 1129 6
3 1049 1050 1130 6
3 1049 1130 1129 6
3 1132 1050 1049 6
3 1133 1129 1130 6
3 1050 1051 1131 6
3 1050 1131 1130 6
3 1132 1051 1050 6
3 1133 1130 1131 6
3 1051 972 1052 6
3 1051 1052 1131 6
3 1132 972 1051 6
3 1133 1131 1052 6
