ply
format ascii 1.0
comment provenance fitted_structural_not_observed_identity
comment seven editable closed parts with intentional joint overlap
element vertex 162
property float x
property float y
property float z
property uchar red
property uchar green
property uchar blue
property int part_id
element face 320
property list uchar int vertex_indices
property int part_id
end_header
0.555042715 0.004752969 -1.267924993 125 112 93 2
0.553190835 0.004545097 -1.267866307 125 112 93 2
0.551350373 0.004328185 -1.267661952 125 112 93 2
0.549532676 0.004103570 -1.267313189 125 112 93 2
0.547748950 0.003872635 -1.266822168 125 112 93 2
0.546010192 0.003636806 -1.266191915 125 112 93 2
0.544327123 0.003397536 -1.265426318 125 112 93 2
0.542710119 0.003156300 -1.264530095 125 112 93 2
0.541169150 0.002914586 -1.263508773 125 112 93 2
0.539713715 0.002673883 -1.262368648 125 112 93 2
0.538352789 0.002435677 -1.261116749 125 112 93 2
0.537094763 0.002201434 -1.259760796 125 112 93 2
0.535947391 0.001972601 -1.258309147 125 112 93 2
0.534917748 0.001750586 -1.256770753 125 112 93 2
0.534012182 0.001536760 -1.255155098 125 112 93 2
0.533236277 0.001332441 -1.253472143 125 112 93 2
0.532594815 0.001138888 -1.251732265 125 112 93 2
0.532091752 0.000957294 -1.249946190 125 112 93 2
0.531730190 0.000788780 -1.248124930 125 112 93 2
0.531512357 0.000634384 -1.246279714 125 112 93 2
0.531439596 0.000495057 -1.244421919 125 112 93 2
0.531512357 0.000371660 -1.242562997 125 112 93 2
0.531730190 0.000264953 -1.240714410 125 112 93 2
0.532091752 0.000175593 -1.238887555 125 112 93 2
0.532594815 0.000104132 -1.237093695 125 112 93 2
0.533236277 0.000051010 -1.235343890 125 112 93 2
0.534012182 0.000016554 -1.233648928 125 112 93 2
0.534917748 0.000000978 -1.232019260 125 112 93 2
0.535947391 0.000004377 -1.230464932 125 112 93 2
0.537094763 0.000026730 -1.228995527 125 112 93 2
0.538352789 0.000067900 -1.227620106 125 112 93 2
0.539713715 0.000127632 -1.226347147 125 112 93 2
0.541169150 0.000205559 -1.225184499 125 112 93 2
0.542710119 0.000301199 -1.224139330 125 112 93 2
0.544327123 0.000413963 -1.223218084 125 112 93 2
0.546010192 0.000543157 -1.222426441 125 112 93 2
0.547748950 0.000687983 -1.221769281 125 112 93 2
0.549532676 0.000847548 -1.221250657 125 112 93 2
0.551350373 0.001020870 -1.220873765 125 112 93 2
0.553190835 0.001206878 -1.220640929 125 112 93 2
0.555042715 0.001404427 -1.220553585 125 112 93 2
0.556894594 0.001612298 -1.220612271 125 112 93 2
0.558735056 0.001829211 -1.220816626 125 112 93 2
0.560552753 0.002053826 -1.221165389 125 112 93 2
0.562336479 0.002284761 -1.221656410 125 112 93 2
0.564075237 0.002520590 -1.222286662 125 112 93 2
0.565758306 0.002759860 -1.223052260 125 112 93 2
0.567375310 0.003001096 -1.223948482 125 112 93 2
0.568916280 0.003242810 -1.224969805 125 112 93 2
0.570371714 0.003483513 -1.226109930 125 112 93 2
0.571732640 0.003721719 -1.227361828 125 112 93 2
0.572990667 0.003955962 -1.228717782 125 112 93 2
0.574138039 0.004184795 -1.230169431 125 112 93 2
0.575167682 0.004406809 -1.231707825 125 112 93 2
0.576073247 0.004620635 -1.233323480 125 112 93 2
0.576849153 0.004824955 -1.235006434 125 112 93 2
0.577490614 0.005018508 -1.236746313 125 112 93 2
0.577993677 0.005200101 -1.238532387 125 112 93 2
0.578355240 0.005368616 -1.240353647 125 112 93 2
0.578573073 0.005523012 -1.242198863 125 112 93 2
0.578645833 0.005662338 -1.244056659 125 112 93 2
0.578573073 0.005785736 -1.245915581 125 112 93 2
0.578355240 0.005892443 -1.247764168 125 112 93 2
0.577993677 0.005981803 -1.249591023 125 112 93 2
0.577490614 0.006053264 -1.251384883 125 112 93 2
0.576849153 0.006106386 -1.253134687 125 112 93 2
0.576073247 0.006140842 -1.254829649 125 112 93 2
0.575167682 0.006156418 -1.256459318 125 112 93 2
0.574138039 0.006153019 -1.258013646 125 112 93 2
0.572990667 0.006130666 -1.259483050 125 112 93 2
0.571732640 0.006089496 -1.260858472 125 112 93 2
0.570371714 0.006029764 -1.262131431 125 112 93 2
0.568916280 0.005951837 -1.263294079 125 112 93 2
0.567375310 0.005856197 -1.264339248 125 112 93 2
0.565758306 0.005743432 -1.265260493 125 112 93 2
0.564075237 0.005614239 -1.266052137 125 112 93 2
0.562336479 0.005469413 -1.266709296 125 112 93 2
0.560552753 0.005309847 -1.267227921 125 112 93 2
0.558735056 0.005136526 -1.267604813 125 112 93 2
0.556894594 0.004950518 -1.267837649 125 112 93 2
0.501425002 0.492147867 -1.233472520 125 112 93 2
0.499573123 0.491939996 -1.233413834 125 112 93 2
0.497732661 0.491723084 -1.233209479 125 112 93 2
0.495914963 0.491498468 -1.232860716 125 112 93 2
0.494131237 0.491267534 -1.232369695 125 112 93 2
0.492392480 0.491031705 -1.231739442 125 112 93 2
0.490709410 0.490792434 -1.230973845 125 112 93 2
0.489092406 0.490551198 -1.230077622 125 112 93 2
0.487551437 0.490309484 -1.229056300 125 112 93 2
0.486096003 0.490068782 -1.227916175 125 112 93 2
0.484735077 0.489830575 -1.226664276 125 112 93 2
0.483477050 0.489596333 -1.225308323 125 112 93 2
0.482329678 0.489367499 -1.223856674 125 112 93 2
0.481300035 0.489145485 -1.222318279 125 112 93 2
0.480394469 0.488931659 -1.220702625 125 112 93 2
0.479618564 0.488727340 -1.219019670 125 112 93 2
0.478977102 0.488533786 -1.217279792 125 112 93 2
0.478474039 0.488352193 -1.215493717 125 112 93 2
0.478112477 0.488183678 -1.213672457 125 112 93 2
0.477894644 0.488029282 -1.211827241 125 112 93 2
0.477821883 0.487889956 -1.209969445 125 112 93 2
0.477894644 0.487766559 -1.208110524 125 112 93 2
0.478112477 0.487659851 -1.206261937 125 112 93 2
0.478474039 0.487570491 -1.204435082 125 112 93 2
0.478977102 0.487499030 -1.202641222 125 112 93 2
0.479618564 0.487445908 -1.200891417 125 112 93 2
0.480394469 0.487411453 -1.199196455 125 112 93 2
0.481300035 0.487395877 -1.197566787 125 112 93 2
0.482329678 0.487399276 -1.196012459 125 112 93 2
0.483477050 0.487421629 -1.194543054 125 112 93 2
0.484735077 0.487462798 -1.193167633 125 112 93 2
0.486096003 0.487522531 -1.191894674 125 112 93 2
0.487551437 0.487600457 -1.190732026 125 112 93 2
0.489092406 0.487696097 -1.189686857 125 112 93 2
0.490709410 0.487808862 -1.188765611 125 112 93 2
0.492392480 0.487938055 -1.187973968 125 112 93 2
0.494131237 0.488082881 -1.187316808 125 112 93 2
0.495914963 0.488242447 -1.186798184 125 112 93 2
0.497732661 0.488415768 -1.186421292 125 112 93 2
0.499573123 0.488601777 -1.186188456 125 112 93 2
0.501425002 0.488799325 -1.186101112 125 112 93 2
0.503276881 0.489007197 -1.186159798 125 112 93 2
0.505117343 0.489224109 -1.186364152 125 112 93 2
0.506935041 0.489448725 -1.186712916 125 112 93 2
0.508718767 0.489679659 -1.187203937 125 112 93 2
0.510457524 0.489915488 -1.187834189 125 112 93 2
0.512140594 0.490154758 -1.188599787 125 112 93 2
0.513757598 0.490395994 -1.189496009 125 112 93 2
0.515298567 0.490637709 -1.190517332 125 112 93 2
0.516754001 0.490878411 -1.191657457 125 112 93 2
0.518114927 0.491116618 -1.192909355 125 112 93 2
0.519372954 0.491350860 -1.194265309 125 112 93 2
0.520520326 0.491579694 -1.195716958 125 112 93 2
0.521549969 0.491801708 -1.197255352 125 112 93 2
0.522455535 0.492015534 -1.198871007 125 112 93 2
0.523231440 0.492219853 -1.200553961 125 112 93 2
0.523872902 0.492413406 -1.202293839 125 112 93 2
0.524375964 0.492595000 -1.204079914 125 112 93 2
0.524737527 0.492763514 -1.205901174 125 112 93 2
0.524955360 0.492917911 -1.207746390 125 112 93 2
0.525028120 0.493057237 -1.209604186 125 112 93 2
0.524955360 0.493180634 -1.211463108 125 112 93 2
0.524737527 0.493287342 -1.213311695 125 112 93 2
0.524375964 0.493376701 -1.215138550 125 112 93 2
0.523872902 0.493448163 -1.216932410 125 112 93 2
0.523231440 0.493501285 -1.218682214 125 112 93 2
0.522455535 0.493535740 -1.220377176 125 112 93 2
0.521549969 0.493551316 -1.222006845 125 112 93 2
0.520520326 0.493547917 -1.223561173 125 112 93 2
0.519372954 0.493525564 -1.225030577 125 112 93 2
0.518114927 0.493484394 -1.226405999 125 112 93 2
0.516754001 0.493424662 -1.227678958 125 112 93 2
0.515298567 0.493346736 -1.228841606 125 112 93 2
0.513757598 0.493251095 -1.229886774 125 112 93 2
0.512140594 0.493138331 -1.230808020 125 112 93 2
0.510457524 0.493009137 -1.231599663 125 112 93 2
0.508718767 0.492864311 -1.232256823 125 112 93 2
0.506935041 0.492704746 -1.232775448 125 112 93 2
0.505117343 0.492531425 -1.233152340 125 112 93 2
0.503276881 0.492345416 -1.233385176 125 112 93 2
0.555042715 0.003078698 -1.244239289 125 112 93 2
0.501425002 0.490473596 -1.209786816 125 112 93 2
3 0 1 81 2
3 0 81 80 2
3 160 1 0 2
3 161 80 81 2
3 1 2 82 2
3 1 82 81 2
3 160 2 1 2
3 161 81 82 2
3 2 3 83 2
3 2 83 82 2
3 160 3 2 2
3 161 82 83 2
3 3 4 84 2
3 3 84 83 2
3 160 4 3 2
3 161 83 84 2
3 4 5 85 2
3 4 85 84 2
3 160 5 4 2
3 161 84 85 2
3 5 6 86 2
3 5 86 85 2
3 160 6 5 2
3 161 85 86 2
3 6 7 87 2
3 6 87 86 2
3 160 7 6 2
3 161 86 87 2
3 7 8 88 2
3 7 88 87 2
3 160 8 7 2
3 161 87 88 2
3 8 9 89 2
3 8 89 88 2
3 160 9 8 2
3 161 88 89 2
3 9 10 90 2
3 9 90 89 2
3 160 10 9 2
3 161 89 90 2
3 10 11 91 2
3 10 91 90 2
3 160 11 10 2
3 161 90 91 2
3 11 12 92 2
3 11 92 91 2
3 160 12 11 2
3 161 91 92 2
3 12 13 93 2
3 12 93 92 2
3 160 13 12 2
3 161 92 93 2
3 13 14 94 2
3 13 94 93 2
3 160 14 13 2
3 161 93 94 2
3 14 15 95 2
3 14 95 94 2
3 160 15 14 2
3 161 94 95 2
3 15 16 96 2
3 15 96 95 2
3 160 16 15 2
3 161 95 96 2
3 16 17 97 2
3 16 97 96 2
3 160 17 16 2
3 161 96 97 2
3 17 18 98 2
3 17 98 97 2
3 160 18 17 2
3 161 97 98 2
3 18 19 99 2
3 18 99 98 2
3 160 19 18 2
3 161 98 99 2
3 19 20 100 2
3 19 100 99 2
3 160 20 19 2
3 161 99 100 2
3 20 21 101 2
3 20 101 100 2
3 160 21 20 2
3 161 100 101 2
3 21 22 102 2
3 21 102 101 2
3 160 22 21 2
3 161 101 102 2
3 22 23 103 2
3 22 103 102 2
3 160 23 22 2
3 161 102 103 2
3 23 24 104 2
3 23 104 103 2
3 160 24 23 2
3 161 103 104 2
3 24 25 105 2
3 24 105 104 2
3 160 25 24 2
3 161 104 105 2
3 25 26 106 2
3 25 106 105 2
3 160 26 25 2
3 161 105 106 2
3 26 27 107 2
3 26 107 106 2
3 160 27 26 2
3 161 106 107 2
3 27 28 108 2
3 27 108 107 2
3 160 28 27 2
3 161 107 108 2
3 28 29 109 2
3 28 109 108 2
3 160 29 28 2
3 161 108 109 2
3 29 30 110 2
3 29 110 109 2
3 160 30 29 2
3 161 109 110 2
3 30 31 111 2
3 30 111 110 2
3 160 31 30 2
3 161 110 111 2
3 31 32 112 2
3 31 112 111 2
3 160 32 31 2
3 161 111 112 2
3 32 33 113 2
3 32 113 112 2
3 160 33 32 2
3 161 112 113 2
3 33 34 114 2
3 33 114 113 2
3 160 34 33 2
3 161 113 114 2
3 34 35 115 2
3 34 115 114 2
3 160 35 34 2
3 161 114 115 2
3 35 36 116 2
3 35 116 115 2
3 160 36 35 2
3 161 115 116 2
3 36 37 117 2
3 36 117 116 2
3 160 37 36 2
3 161 116 117 2
3 37 38 118 2
3 37 118 117 2
3 160 38 37 2
3 161 117 118 2
3 38 39 119 2
3 38 119 118 2
3 160 39 38 2
3 161 118 119 2
3 39 40 120 2
3 39 120 119 2
3 160 40 39 2
3 161 119 120 2
3 40 41 121 2
3 40 121 120 2
3 160 41 40 2
3 161 120 121 2
3 41 42 122 2
3 41 122 121 2
3 160 42 41 2
3 161 121 122 2
3 42 43 123 2
3 42 123 122 2
3 160 43 42 2
3 161 122 123 2
3 43 44 124 2
3 43 124 123 2
3 160 44 43 2
3 161 123 124 2
3 44 45 125 2
3 44 125 124 2
3 160 45 44 2
3 161 124 125 2
3 45 46 126 2
3 45 126 125 2
3 160 46 45 2
3 161 125 126 2
3 46 47 127 2
3 46 127 126 2
3 160 47 46 2
3 161 126 127 2
3 47 48 128 2
3 47 128 127 2
3 160 48 47 2
3 161 127 128 2
3 48 49 129 2
3 48 129 128 2
3 160 49 48 2
3 161 128 129 2
3 49 50 130 2
3 49 130 129 2
3 160 50 49 2
3 161 129 130 2
3 50 51 131 2
3 50 131 130 2
3 160 51 50 2
3 161 130 131 2
3 51 52 132 2
3 51 132 131 2
3 160 52 51 2
3 161 131 132 2
3 52 53 133 2
3 52 133 132 2
3 160 53 52 2
3 161 132 133 2
3 53 54 134 2
3 53 134 133 2
3 160 54 53 2
3 161 133 134 2
3 54 55 135 2
3 54 135 134 2
3 160 55 54 2
3 161 134 135 2
3 55 56 136 2
3 55 136 135 2
3 160 56 55 2
3 161 135 136 2
3 56 57 137 2
3 56 137 136 2
3 160 57 56 2
3 161 136 137 2
3 57 58 138 2
3 57 138 137 2
3 160 58 57 2
3 161 137 138 2
3 58 59 139 2
3 58 139 138 2
3 160 59 58 2
3 161 138 139 2
3 59 60 140 2
3 59 140 139 2
3 160 60 59 2
3 161 139 140 2
3 60 61 141 2
3 60 141 140 2
3 160 61 60 2
3 161 140 141 2
3 61 62 142 2
3 61 142 141 2
3 160 62 61 2
3 161 141 142 2
3 62 63 143 2
3 62 143 142 2
3 160 63 62 2
3 161 142 143 2
3 63 64 144 2
3 63 144 143 2
3 160 64 63 2
3 161 143 144 2
3 64 65 145 2
3 64 145 144 2
3 160 65 64 2
3 161 144 145 2
3 65 66 146 2
3 65 146 145 2
3 160 66 65 2
3 161 145 146 2
3 66 67 147 2
3 66 147 146 2
3 160 67 66 2
3 161 146 147 2
3 67 68 148 2
3 67 148 147 2
3 160 68 67 2
3 161 147 148 2
3 68 69 149 2
3 68 149 148 2
3 160 69 68 2
3 161 148 149 2
3 69 70 150 2
3 69 150 149 2
3 160 70 69 2
3 161 149 150 2
3 70 71 151 2
3 70 151 150 2
3 160 71 70 2
3 161 150 151 2
3 71 72 152 2
3 71 152 151 2
3 160 72 71 2
3 161 151 152 2
3 72 73 153 2
3 72 153 152 2
3 160 73 72 2
3 161 152 153 2
3 73 74 154 2
3 73 154 153 2
3 160 74 73 2
3 161 153 154 2
3 74 75 155 2
3 74 155 154 2
3 160 75 74 2
3 161 154 155 2
3 75 76 156 2
3 75 156 155 2
3 160 76 75 2
3 161 155 156 2
3 76 77 157 2
3 76 157 156 2
3 160 77 76 2
3 161 156 157 2
3 77 78 158 2
3 77 158 157 2
3 160 78 77 2
3 161 157 158 2
3 78 79 159 2
3 78 159 158 2
3 160 79 78 2
3 161 158 159 2
3 79 0 80 2
3 79 80 159 2
3 160 0 79 2
3 161 159 80 2
