ply
format ascii 1.0
comment provenance fitted_structural_not_observed_identity
comment seven editable closed parts with intentional joint overlap
element vertex 162
property float x
property float y
property float z
property uchar red
property uchar green
property uchar blue
property int part_id
element face 320
property list uchar int vertex_indices
property int part_id
end_header
0.140552933 0.004515180 -1.259747793 121 109 90 1
0.138714965 0.004715487 -1.259662192 121 109 90 1
0.136888328 0.004905297 -1.259432087 121 109 90 1
0.135084285 0.005083442 -1.259058897 121 109 90 1
0.133313958 0.005248822 -1.258544923 121 109 90 1
0.131588262 0.005400419 -1.257893334 121 109 90 1
0.129917836 0.005537297 -1.257108147 121 109 90 1
0.128312979 0.005658613 -1.256194204 121 109 90 1
0.126783585 0.005763618 -1.255157138 121 109 90 1
0.125339084 0.005851665 -1.254003343 121 109 90 1
0.123988381 0.005922212 -1.252739934 121 109 90 1
0.122739804 0.005974823 -1.251374700 121 109 90 1
0.121601051 0.006009175 -1.249916057 121 109 90 1
0.120579143 0.006025054 -1.248372999 121 109 90 1
0.119680380 0.006022364 -1.246755039 121 109 90 1
0.118910303 0.006001121 -1.245072152 121 109 90 1
0.118273660 0.005961456 -1.243334714 121 109 90 1
0.117774376 0.005903614 -1.241553437 121 109 90 1
0.117415529 0.005827950 -1.239739303 121 109 90 1
0.117199333 0.005734932 -1.237903497 121 109 90 1
0.117127119 0.005625133 -1.236057337 121 109 90 1
0.117199333 0.005499231 -1.234212206 121 109 90 1
0.117415529 0.005358000 -1.232379478 121 109 90 1
0.117774376 0.005202313 -1.230570454 121 109 90 1
0.118273660 0.005033128 -1.228796287 121 109 90 1
0.118910303 0.004851489 -1.227067915 121 109 90 1
0.119680380 0.004658516 -1.225395993 121 109 90 1
0.120579143 0.004455399 -1.223790831 121 109 90 1
0.121601051 0.004243389 -1.222262325 121 109 90 1
0.122739804 0.004023795 -1.220819897 121 109 90 1
0.123988381 0.003797969 -1.219472442 121 109 90 1
0.125339084 0.003567304 -1.218228266 121 109 90 1
0.126783585 0.003333223 -1.217095041 121 109 90 1
0.128312979 0.003097168 -1.216079753 121 109 90 1
0.129917836 0.002860595 -1.215188661 121 109 90 1
0.131588262 0.002624962 -1.214427260 121 109 90 1
0.133313958 0.002391722 -1.213800245 121 109 90 1
0.135084285 0.002162313 -1.213311479 121 109 90 1
0.136888328 0.001938150 -1.212963978 121 109 90 1
0.138714965 0.001720614 -1.212759884 121 109 90 1
0.140552933 0.001511047 -1.212700454 121 109 90 1
0.142390901 0.001310740 -1.212786056 121 109 90 1
0.144217538 0.001120930 -1.213016161 121 109 90 1
0.146021581 0.000942785 -1.213389350 121 109 90 1
0.147791908 0.000777405 -1.213903324 121 109 90 1
0.149517604 0.000625808 -1.214554913 121 109 90 1
0.151188030 0.000488930 -1.215340100 121 109 90 1
0.152792887 0.000367614 -1.216254044 121 109 90 1
0.154322281 0.000262609 -1.217291110 121 109 90 1
0.155766782 0.000174562 -1.218444904 121 109 90 1
0.157117485 0.000104015 -1.219708313 121 109 90 1
0.158366062 0.000051404 -1.221073548 121 109 90 1
0.159504815 0.000017052 -1.222532191 121 109 90 1
0.160526723 0.000001173 -1.224075249 121 109 90 1
0.161425486 0.000003863 -1.225693209 121 109 90 1
0.162195563 0.000025106 -1.227376096 121 109 90 1
0.162832206 0.000064771 -1.229113533 121 109 90 1
0.163331490 0.000122613 -1.230894810 121 109 90 1
0.163690337 0.000198277 -1.232708944 121 109 90 1
0.163906533 0.000291295 -1.234544750 121 109 90 1
0.163978747 0.000401093 -1.236390910 121 109 90 1
0.163906533 0.000526996 -1.238236042 121 109 90 1
0.163690337 0.000668227 -1.240068769 121 109 90 1
0.163331490 0.000823914 -1.241877793 121 109 90 1
0.162832206 0.000993099 -1.243651961 121 109 90 1
0.162195563 0.001174738 -1.245380333 121 109 90 1
0.161425486 0.001367711 -1.247052254 121 109 90 1
0.160526723 0.001570828 -1.248657416 121 109 90 1
0.159504815 0.001782838 -1.250185923 121 109 90 1
0.158366062 0.002002432 -1.251628350 121 109 90 1
0.157117485 0.002228258 -1.252975806 121 109 90 1
0.155766782 0.002458923 -1.254219982 121 109 90 1
0.154322281 0.002693004 -1.255353207 121 109 90 1
0.152792887 0.002929059 -1.256368495 121 109 90 1
0.151188030 0.003165632 -1.257259586 121 109 90 1
0.149517604 0.003401265 -1.258020987 121 109 90 1
0.147791908 0.003634505 -1.258648003 121 109 90 1
0.146021581 0.003863914 -1.259136768 121 109 90 1
0.144217538 0.004088077 -1.259484269 121 109 90 1
0.142390901 0.004305613 -1.259688364 121 109 90 1
0.195127255 0.491975663 -1.228621775 121 109 90 1
0.193289287 0.492175969 -1.228536174 121 109 90 1
0.191462650 0.492365780 -1.228306069 121 109 90 1
0.189658607 0.492543925 -1.227932879 121 109 90 1
0.187888280 0.492709305 -1.227418905 121 109 90 1
0.186162584 0.492860902 -1.226767316 121 109 90 1
0.184492158 0.492997780 -1.225982129 121 109 90 1
0.182887301 0.493119095 -1.225068185 121 109 90 1
0.181357907 0.493224101 -1.224031120 121 109 90 1
0.179913406 0.493312148 -1.222877325 121 109 90 1
0.178562703 0.493382695 -1.221613916 121 109 90 1
0.177314126 0.493435306 -1.220248682 121 109 90 1
0.176175373 0.493469658 -1.218790039 121 109 90 1
0.175153465 0.493485537 -1.217246980 121 109 90 1
0.174254702 0.493482847 -1.215629020 121 109 90 1
0.173484625 0.493461604 -1.213946134 121 109 90 1
0.172847982 0.493421939 -1.212208696 121 109 90 1
0.172348698 0.493364097 -1.210427419 121 109 90 1
0.171989851 0.493288433 -1.208613285 121 109 90 1
0.171773655 0.493195415 -1.206777479 121 109 90 1
0.171701441 0.493085616 -1.204931319 121 109 90 1
0.171773655 0.492959714 -1.203086187 121 109 90 1
0.171989851 0.492818483 -1.201253460 121 109 90 1
0.172348698 0.492662795 -1.199444436 121 109 90 1
0.172847982 0.492493611 -1.197670269 121 109 90 1
0.173484625 0.492311972 -1.195941896 121 109 90 1
0.174254702 0.492118999 -1.194269975 121 109 90 1
0.175153465 0.491915882 -1.192664813 121 109 90 1
0.176175373 0.491703872 -1.191136306 121 109 90 1
0.177314126 0.491484278 -1.189693879 121 109 90 1
0.178562703 0.491258452 -1.188346423 121 109 90 1
0.179913406 0.491027787 -1.187102248 121 109 90 1
0.181357907 0.490793706 -1.185969022 121 109 90 1
0.182887301 0.490557651 -1.184953734 121 109 90 1
0.184492158 0.490321077 -1.184062643 121 109 90 1
0.186162584 0.490085444 -1.183301242 121 109 90 1
0.187888280 0.489852205 -1.182674226 121 109 90 1
0.189658607 0.489622796 -1.182185461 121 109 90 1
0.191462650 0.489398632 -1.181837960 121 109 90 1
0.193289287 0.489181097 -1.181633866 121 109 90 1
0.195127255 0.488971530 -1.181574436 121 109 90 1
0.196965223 0.488771223 -1.181660037 121 109 90 1
0.198791860 0.488581413 -1.181890142 121 109 90 1
0.200595903 0.488403268 -1.182263332 121 109 90 1
0.202366230 0.488237887 -1.182777306 121 109 90 1
0.204091926 0.488086291 -1.183428895 121 109 90 1
0.205762352 0.487949413 -1.184214082 121 109 90 1
0.207367209 0.487828097 -1.185128026 121 109 90 1
0.208896603 0.487723092 -1.186165092 121 109 90 1
0.210341104 0.487635045 -1.187318886 121 109 90 1
0.211691807 0.487564498 -1.188582295 121 109 90 1
0.212940384 0.487511886 -1.189947530 121 109 90 1
0.214079137 0.487477535 -1.191406172 121 109 90 1
0.215101045 0.487461655 -1.192949231 121 109 90 1
0.215999808 0.487464345 -1.194567191 121 109 90 1
0.216769885 0.487485588 -1.196250077 121 109 90 1
0.217406528 0.487525254 -1.197987515 121 109 90 1
0.217905812 0.487583096 -1.199768792 121 109 90 1
0.218264658 0.487658760 -1.201582926 121 109 90 1
0.218480855 0.487751778 -1.203418732 121 109 90 1
0.218553069 0.487861576 -1.205264892 121 109 90 1
0.218480855 0.487987479 -1.207110024 121 109 90 1
0.218264658 0.488128710 -1.208942751 121 109 90 1
0.217905812 0.488284397 -1.210751775 121 109 90 1
0.217406528 0.488453582 -1.212525943 121 109 90 1
0.216769885 0.488635221 -1.214254315 121 109 90 1
0.215999808 0.488828194 -1.215926236 121 109 90 1
0.215101045 0.489031311 -1.217531398 121 109 90 1
0.214079137 0.489243320 -1.219059905 121 109 90 1
0.212940384 0.489462915 -1.220502332 121 109 90 1
0.211691807 0.489688741 -1.221849788 121 109 90 1
0.210341104 0.489919406 -1.223093963 121 109 90 1
0.208896603 0.490153487 -1.224227189 121 109 90 1
0.207367209 0.490389542 -1.225242477 121 109 90 1
0.205762352 0.490626115 -1.226133568 121 109 90 1
0.204091926 0.490861748 -1.226894969 121 109 90 1
0.202366230 0.491094988 -1.227521985 121 109 90 1
0.200595903 0.491324397 -1.228010750 121 109 90 1
0.198791860 0.491548560 -1.228358251 121 109 90 1
0.196965223 0.491766096 -1.228562346 121 109 90 1
0.140552933 0.003013113 -1.236224124 121 109 90 1
0.195127255 0.490473596 -1.205098106 121 109 90 1
3 0 1 81 1
3 0 81 80 1
3 160 1 0 1
3 161 80 81 1
3 1 2 82 1
3 1 82 81 1
3 160 2 1 1
3 161 81 82 1
3 2 3 83 1
3 2 83 82 1
3 160 3 2 1
3 161 82 83 1
3 3 4 84 1
3 3 84 83 1
3 160 4 3 1
3 161 83 84 1
3 4 5 85 1
3 4 85 84 1
3 160 5 4 1
3 161 84 85 1
3 5 6 86 1
3 5 86 85 1
3 160 6 5 1
3 161 85 86 1
3 6 7 87 1
3 6 87 86 1
3 160 7 6 1
3 161 86 87 1
3 7 8 88 1
3 7 88 87 1
3 160 8 7 1
3 161 87 88 1
3 8 9 89 1
3 8 89 88 1
3 160 9 8 1
3 161 88 89 1
3 9 10 90 1
3 9 90 89 1
3 160 10 9 1
3 161 89 90 1
3 10 11 91 1
3 10 91 90 1
3 160 11 10 1
3 161 90 91 1
3 11 12 92 1
3 11 92 91 1
3 160 12 11 1
3 161 91 92 1
3 12 13 93 1
3 12 93 92 1
3 160 13 12 1
3 161 92 93 1
3 13 14 94 1
3 13 94 93 1
3 160 14 13 1
3 161 93 94 1
3 14 15 95 1
3 14 95 94 1
3 160 15 14 1
3 161 94 95 1
3 15 16 96 1
3 15 96 95 1
3 160 16 15 1
3 161 95 96 1
3 16 17 97 1
3 16 97 96 1
3 160 17 16 1
3 161 96 97 1
3 17 18 98 1
3 17 98 97 1
3 160 18 17 1
3 161 97 98 1
3 18 19 99 1
3 18 99 98 1
3 160 19 18 1
3 161 98 99 1
3 19 20 100 1
3 19 100 99 1
3 160 20 19 1
3 161 99 100 1
3 20 21 101 1
3 20 101 100 1
3 160 21 20 1
3 161 100 101 1
3 21 22 102 1
3 21 102 101 1
3 160 22 21 1
3 161 101 102 1
3 22 23 103 1
3 22 103 102 1
3 160 23 22 1
3 161 102 103 1
3 23 24 104 1
3 23 104 103 1
3 160 24 23 1
3 161 103 104 1
3 24 25 105 1
3 24 105 104 1
3 160 25 24 1
3 161 104 105 1
3 25 26 106 1
3 25 106 105 1
3 160 26 25 1
3 161 105 106 1
3 26 27 107 1
3 26 107 106 1
3 160 27 26 1
3 161 106 107 1
3 27 28 108 1
3 27 108 107 1
3 160 28 27 1
3 161 107 108 1
3 28 29 109 1
3 28 109 108 1
3 160 29 28 1
3 161 108 109 1
3 29 30 110 1
3 29 110 109 1
3 160 30 29 1
3 161 109 110 1
3 30 31 111 1
3 30 111 110 1
3 160 31 30 1
3 161 110 111 1
3 31 32 112 1
3 31 112 111 1
3 160 32 31 1
3 161 111 112 1
3 32 33 113 1
3 32 113 112 1
3 160 33 32 1
3 161 112 113 1
3 33 34 114 1
3 33 114 113 1
3 160 34 33 1
3 161 113 114 1
3 34 35 115 1
3 34 115 114 1
3 160 35 34 1
3 161 114 115 1
3 35 36 116 1
3 35 116 115 1
3 160 36 35 1
3 161 115 116 1
3 36 37 117 1
3 36 117 116 1
3 160 37 36 1
3 161 116 117 1
3 37 38 118 1
3 37 118 117 1
3 160 38 37 1
3 161 117 118 1
3 38 39 119 1
3 38 119 118 1
3 160 39 38 1
3 161 118 119 1
3 39 40 120 1
3 39 120 119 1
3 160 40 39 1
3 161 119 120 1
3 40 41 121 1
3 40 121 120 1
3 160 41 40 1
3 161 120 121 1
3 41 42 122 1
3 41 122 121 1
3 160 42 41 1
3 161 121 122 1
3 42 43 123 1
3 42 123 122 1
3 160 43 42 1
3 161 122 123 1
3 43 44 124 1
3 43 124 123 1
3 160 44 43 1
3 161 123 124 1
3 44 45 125 1
3 44 125 124 1
3 160 45 44 1
3 161 124 125 1
3 45 46 126 1
3 45 126 125 1
3 160 46 45 1
3 161 125 126 1
3 46 47 127 1
3 46 127 126 1
3 160 47 46 1
3 161 126 127 1
3 47 48 128 1
3 47 128 127 1
3 160 48 47 1
3 161 127 128 1
3 48 49 129 1
3 48 129 128 1
3 160 49 48 1
3 161 128 129 1
3 49 50 130 1
3 49 130 129 1
3 160 50 49 1
3 161 129 130 1
3 50 51 131 1
3 50 131 130 1
3 160 51 50 1
3 161 130 131 1
3 51 52 132 1
3 51 132 131 1
3 160 52 51 1
3 161 131 132 1
3 52 53 133 1
3 52 133 132 1
3 160 53 52 1
3 161 132 133 1
3 53 54 134 1
3 53 134 133 1
3 160 54 53 1
3 161 133 134 1
3 54 55 135 1
3 54 135 134 1
3 160 55 54 1
3 161 134 135 1
3 55 56 136 1
3 55 136 135 1
3 160 56 55 1
3 161 135 136 1
3 56 57 137 1
3 56 137 136 1
3 160 57 56 1
3 161 136 137 1
3 57 58 138 1
3 57 138 137 1
3 160 58 57 1
3 161 137 138 1
3 58 59 139 1
3 58 139 138 1
3 160 59 58 1
3 161 138 139 1
3 59 60 140 1
3 59 140 139 1
3 160 60 59 1
3 161 139 140 1
3 60 61 141 1
3 60 141 140 1
3 160 61 60 1
3 161 140 141 1
3 61 62 142 1
3 61 142 141 1
3 160 62 61 1
3 161 141 142 1
3 62 63 143 1
3 62 143 142 1
3 160 63 62 1
3 161 142 143 1
3 63 64 144 1
3 63 144 143 1
3 160 64 63 1
3 161 143 144 1
3 64 65 145 1
3 64 145 144 1
3 160 65 64 1
3 161 144 145 1
3 65 66 146 1
3 65 146 145 1
3 160 66 65 1
3 161 145 146 1
3 66 67 147 1
3 66 147 146 1
3 160 67 66 1
3 161 146 147 1
3 67 68 148 1
3 67 148 147 1
3 160 68 67 1
3 161 147 148 1
3 68 69 149 1
3 68 149 148 1
3 160 69 68 1
3 161 148 149 1
3 69 70 150 1
3 69 150 149 1
3 160 70 69 1
3 161 149 150 1
3 70 71 151 1
3 70 151 150 1
3 160 71 70 1
3 161 150 151 1
3 71 72 152 1
3 71 152 151 1
3 160 72 71 1
3 161 151 152 1
3 72 73 153 1
3 72 153 152 1
3 160 73 72 1
3 161 152 153 1
3 73 74 154 1
3 73 154 153 1
3 160 74 73 1
3 161 153 154 1
3 74 75 155 1
3 74 155 154 1
3 160 75 74 1
3 161 154 155 1
3 75 76 156 1
3 75 156 155 1
3 160 76 75 1
3 161 155 156 1
3 76 77 157 1
3 76 157 156 1
3 160 77 76 1
3 161 156 157 1
3 77 78 158 1
3 77 158 157 1
3 160 78 77 1
3 161 157 158 1
3 78 79 159 1
3 78 159 158 1
3 160 79 78 1
3 161 158 159 1
3 79 0 80 1
3 79 80 159 1
3 160 0 79 1
3 161 159 80 1
