ply
format ascii 1.0
comment provenance fitted_structural_not_observed_identity
comment seven editable closed parts with intentional joint overlap
element vertex 162
property float x
property float y
property float z
property uchar red
property uchar green
property uchar blue
property int part_id
element face 320
property list uchar int vertex_indices
property int part_id
end_header
0.353231393 0.000000572 -0.902007897 125 111 93 3
0.351384346 0.000015029 -0.901936622 125 111 93 3
0.349548686 0.000048878 -0.901721957 125 111 93 3
0.347735732 0.000101909 -0.901365227 125 111 93 3
0.345956660 0.000173796 -0.900868631 125 111 93 3
0.344222439 0.000264095 -0.900235229 125 111 93 3
0.342543762 0.000372250 -0.899468929 125 111 93 3
0.340930977 0.000497594 -0.898574453 125 111 93 3
0.339394029 0.000639354 -0.897557317 125 111 93 3
0.337942392 0.000796656 -0.896423791 125 111 93 3
0.336585017 0.000968531 -0.895180865 125 111 93 3
0.335330273 0.001153918 -0.893836201 125 111 93 3
0.334185895 0.001351674 -0.892398090 125 111 93 3
0.333158939 0.001560581 -0.890875398 125 111 93 3
0.332255736 0.001779351 -0.889277513 125 111 93 3
0.331481855 0.002006634 -0.887614286 125 111 93 3
0.330842067 0.002241030 -0.885895972 125 111 93 3
0.330340317 0.002481092 -0.884133165 125 111 93 3
0.329979698 0.002725342 -0.882336733 125 111 93 3
0.329762433 0.002972274 -0.880517752 125 111 93 3
0.329689863 0.003220364 -0.878687435 125 111 93 3
0.329762433 0.003468083 -0.876857069 125 111 93 3
0.329979698 0.003713905 -0.875037937 125 111 93 3
0.330340317 0.003956313 -0.873241256 125 111 93 3
0.330842067 0.004193813 -0.871478102 125 111 93 3
0.331481855 0.004424940 -0.869759345 125 111 93 3
0.332255736 0.004648271 -0.868095583 125 111 93 3
0.333158939 0.004862427 -0.866497073 125 111 93 3
0.334185895 0.005066088 -0.864973670 125 111 93 3
0.335330273 0.005258000 -0.863534767 125 111 93 3
0.336585017 0.005436978 -0.862189236 125 111 93 3
0.337942392 0.005601919 -0.860945370 125 111 93 3
0.339394029 0.005751807 -0.859810841 125 111 93 3
0.340930977 0.005885716 -0.858792641 125 111 93 3
0.342543762 0.006002822 -0.857897050 125 111 93 3
0.344222439 0.006102403 -0.857129588 125 111 93 3
0.345956660 0.006183844 -0.856494987 125 111 93 3
0.347735732 0.006246644 -0.855997160 125 111 93 3
0.349548686 0.006290415 -0.855639175 125 111 93 3
0.351384346 0.006314888 -0.855423241 125 111 93 3
0.353231393 0.006319911 -0.855350687 125 111 93 3
0.355078440 0.006305453 -0.855421963 125 111 93 3
0.356914099 0.006271605 -0.855636627 125 111 93 3
0.358727054 0.006218573 -0.855993358 125 111 93 3
0.360506126 0.006146687 -0.856489954 125 111 93 3
0.362240346 0.006056387 -0.857123355 125 111 93 3
0.363919024 0.005948232 -0.857889656 125 111 93 3
0.365531808 0.005822888 -0.858784132 125 111 93 3
0.367068757 0.005681128 -0.859801268 125 111 93 3
0.368520394 0.005523826 -0.860934793 125 111 93 3
0.369877768 0.005351952 -0.862177720 125 111 93 3
0.371132513 0.005166565 -0.863522383 125 111 93 3
0.372276891 0.004968808 -0.864960494 125 111 93 3
0.373303847 0.004759901 -0.866483187 125 111 93 3
0.374207050 0.004541132 -0.868081072 125 111 93 3
0.374980931 0.004313849 -0.869744298 125 111 93 3
0.375620718 0.004079453 -0.871462612 125 111 93 3
0.376122469 0.003839390 -0.873225420 125 111 93 3
0.376483088 0.003595140 -0.875021852 125 111 93 3
0.376700352 0.003348209 -0.876840833 125 111 93 3
0.376772923 0.003100119 -0.878671149 125 111 93 3
0.376700352 0.002852399 -0.880501516 125 111 93 3
0.376483088 0.002606578 -0.882320647 125 111 93 3
0.376122469 0.002364170 -0.884117329 125 111 93 3
0.375620718 0.002126670 -0.885880483 125 111 93 3
0.374980931 0.001895542 -0.887599240 125 111 93 3
0.374207050 0.001672212 -0.889263002 125 111 93 3
0.373303847 0.001458056 -0.890861512 125 111 93 3
0.372276891 0.001254394 -0.892384914 125 111 93 3
0.371132513 0.001062483 -0.893823817 125 111 93 3
0.369877768 0.000883505 -0.895169349 125 111 93 3
0.368520394 0.000718563 -0.896413214 125 111 93 3
0.367068757 0.000568676 -0.897547744 125 111 93 3
0.365531808 0.000434766 -0.898565943 125 111 93 3
0.363919024 0.000317660 -0.899461535 125 111 93 3
0.362240346 0.000218080 -0.900228997 125 111 93 3
0.360506126 0.000136638 -0.900863598 125 111 93 3
0.358727054 0.000073839 -0.901361425 125 111 93 3
0.356914099 0.000030068 -0.901719410 125 111 93 3
0.355078440 0.000005595 -0.901935344 125 111 93 3
0.354498768 0.487313927 -0.968010519 125 111 93 3
0.352651721 0.487328384 -0.967939243 125 111 93 3
0.350816061 0.487362233 -0.967724579 125 111 93 3
0.349003107 0.487415264 -0.967367848 125 111 93 3
0.347224035 0.487487151 -0.966871252 125 111 93 3
0.345489814 0.487577450 -0.966237851 125 111 93 3
0.343811137 0.487685605 -0.965471550 125 111 93 3
0.342198352 0.487810949 -0.964577074 125 111 93 3
0.340661404 0.487952709 -0.963559938 125 111 93 3
0.339209767 0.488110011 -0.962426413 125 111 93 3
0.337852392 0.488281886 -0.961183487 125 111 93 3
0.336597648 0.488467273 -0.959838823 125 111 93 3
0.335453270 0.488665029 -0.958400712 125 111 93 3
0.334426314 0.488873936 -0.956878019 125 111 93 3
0.333523111 0.489092706 -0.955280134 125 111 93 3
0.332749230 0.489319989 -0.953616908 125 111 93 3
0.332109442 0.489554385 -0.951898594 125 111 93 3
0.331607692 0.489794447 -0.950135787 125 111 93 3
0.331247073 0.490038697 -0.948339354 125 111 93 3
0.331029808 0.490285629 -0.946520373 125 111 93 3
0.330957238 0.490533719 -0.944690057 125 111 93 3
0.331029808 0.490781438 -0.942859690 125 111 93 3
0.331247073 0.491027260 -0.941040559 125 111 93 3
0.331607692 0.491269668 -0.939243877 125 111 93 3
0.332109442 0.491507168 -0.937480723 125 111 93 3
0.332749230 0.491738295 -0.935761966 125 111 93 3
0.333523111 0.491961626 -0.934098204 125 111 93 3
0.334426314 0.492175782 -0.932499694 125 111 93 3
0.335453270 0.492379444 -0.930976292 125 111 93 3
0.336597648 0.492571355 -0.929537389 125 111 93 3
0.337852392 0.492750333 -0.928191857 125 111 93 3
0.339209767 0.492915274 -0.926947992 125 111 93 3
0.340661404 0.493065162 -0.925813462 125 111 93 3
0.342198352 0.493199071 -0.924795263 125 111 93 3
0.343811137 0.493316177 -0.923899671 125 111 93 3
0.345489814 0.493415758 -0.923132209 125 111 93 3
0.347224035 0.493497199 -0.922497608 125 111 93 3
0.349003107 0.493559999 -0.921999781 125 111 93 3
0.350816061 0.493603770 -0.921641796 125 111 93 3
0.352651721 0.493628243 -0.921425862 125 111 93 3
0.354498768 0.493633266 -0.921353309 125 111 93 3
0.356345815 0.493618808 -0.921424584 125 111 93 3
0.358181475 0.493584960 -0.921639249 125 111 93 3
0.359994429 0.493531928 -0.921995979 125 111 93 3
0.361773501 0.493460042 -0.922492576 125 111 93 3
0.363507722 0.493369742 -0.923125977 125 111 93 3
0.365186399 0.493261587 -0.923892278 125 111 93 3
0.366799184 0.493136243 -0.924786753 125 111 93 3
0.368336132 0.492994483 -0.925803889 125 111 93 3
0.369787769 0.492837181 -0.926937415 125 111 93 3
0.371145144 0.492665307 -0.928180341 125 111 93 3
0.372399888 0.492479920 -0.929525005 125 111 93 3
0.373544266 0.492282163 -0.930963116 125 111 93 3
0.374571222 0.492073256 -0.932485808 125 111 93 3
0.375474425 0.491854487 -0.934083693 125 111 93 3
0.376248306 0.491627204 -0.935746920 125 111 93 3
0.376888094 0.491392808 -0.937465234 125 111 93 3
0.377389844 0.491152745 -0.939228041 125 111 93 3
0.377750463 0.490908495 -0.941024473 125 111 93 3
0.377967727 0.490661564 -0.942843454 125 111 93 3
0.378040298 0.490413474 -0.944673771 125 111 93 3
0.377967727 0.490165754 -0.946504137 125 111 93 3
0.377750463 0.489919933 -0.948323269 125 111 93 3
0.377389844 0.489677525 -0.950119950 125 111 93 3
0.376888094 0.489440025 -0.951883105 125 111 93 3
0.376248306 0.489208897 -0.953601861 125 111 93 3
0.375474425 0.488985567 -0.955265623 125 111 93 3
0.374571222 0.488771411 -0.956864133 125 111 93 3
0.373544266 0.488567749 -0.958387536 125 111 93 3
0.372399888 0.488375838 -0.959826439 125 111 93 3
0.371145144 0.488196860 -0.961171970 125 111 93 3
0.369787769 0.488031918 -0.962415836 125 111 93 3
0.368336132 0.487882031 -0.963550365 125 111 93 3
0.366799184 0.487748121 -0.964568565 125 111 93 3
0.365186399 0.487631015 -0.965464156 125 111 93 3
0.363507722 0.487531435 -0.966231618 125 111 93 3
0.361773501 0.487449993 -0.966866219 125 111 93 3
0.359994429 0.487387194 -0.967364047 125 111 93 3
0.358181475 0.487343423 -0.967722031 125 111 93 3
0.356345815 0.487318950 -0.967937966 125 111 93 3
0.353231393 0.003160241 -0.878679292 125 111 93 3
0.354498768 0.490473596 -0.944681914 125 111 93 3
3 0 1 81 3
3 0 81 80 3
3 160 1 0 3
3 161 80 81 3
3 1 2 82 3
3 1 82 81 3
3 160 2 1 3
3 161 81 82 3
3 2 3 83 3
3 2 83 82 3
3 160 3 2 3
3 161 82 83 3
3 3 4 84 3
3 3 84 83 3
3 160 4 3 3
3 161 83 84 3
3 4 5 85 3
3 4 85 84 3
3 160 5 4 3
3 161 84 85 3
3 5 6 86 3
3 5 86 85 3
3 160 6 5 3
3 161 85 86 3
3 6 7 87 3
3 6 87 86 3
3 160 7 6 3
3 161 86 87 3
3 7 8 88 3
3 7 88 87 3
3 160 8 7 3
3 161 87 88 3
3 8 9 89 3
3 8 89 88 3
3 160 9 8 3
3 161 88 89 3
3 9 10 90 3
3 9 90 89 3
3 160 10 9 3
3 161 89 90 3
3 10 11 91 3
3 10 91 90 3
3 160 11 10 3
3 161 90 91 3
3 11 12 92 3
3 11 92 91 3
3 160 12 11 3
3 161 91 92 3
3 12 13 93 3
3 12 93 92 3
3 160 13 12 3
3 161 92 93 3
3 13 14 94 3
3 13 94 93 3
3 160 14 13 3
3 161 93 94 3
3 14 15 95 3
3 14 95 94 3
3 160 15 14 3
3 161 94 95 3
3 15 16 96 3
3 15 96 95 3
3 160 16 15 3
3 161 95 96 3
3 16 17 97 3
3 16 97 96 3
3 160 17 16 3
3 161 96 97 3
3 17 18 98 3
3 17 98 97 3
3 160 18 17 3
3 161 97 98 3
3 18 19 99 3
3 18 99 98 3
3 160 19 18 3
3 161 98 99 3
3 19 20 100 3
3 19 100 99 3
3 160 20 19 3
3 161 99 100 3
3 20 21 101 3
3 20 101 100 3
3 160 21 20 3
3 161 100 101 3
3 21 22 102 3
3 21 102 101 3
3 160 22 21 3
3 161 101 102 3
3 22 23 103 3
3 22 103 102 3
3 160 23 22 3
3 161 102 103 3
3 23 24 104 3
3 23 104 103 3
3 160 24 23 3
3 161 103 104 3
3 24 25 105 3
3 24 105 104 3
3 160 25 24 3
3 161 104 105 3
3 25 26 106 3
3 25 106 105 3
3 160 26 25 3
3 161 105 106 3
3 26 27 107 3
3 26 107 106 3
3 160 27 26 3
3 161 106 107 3
3 27 28 108 3
3 27 108 107 3
3 160 28 27 3
3 161 107 108 3
3 28 29 109 3
3 28 109 108 3
3 160 29 28 3
3 161 108 109 3
3 29 30 110 3
3 29 110 109 3
3 160 30 29 3
3 161 109 110 3
3 30 31 111 3
3 30 111 110 3
3 160 31 30 3
3 161 110 111 3
3 31 32 112 3
3 31 112 111 3
3 160 32 31 3
3 161 111 112 3
3 32 33 113 3
3 32 113 112 3
3 160 33 32 3
3 161 112 113 3
3 33 34 114 3
3 33 114 113 3
3 160 34 33 3
3 161 113 114 3
3 34 35 115 3
3 34 115 114 3
3 160 35 34 3
3 161 114 115 3
3 35 36 116 3
3 35 116 115 3
3 160 36 35 3
3 161 115 116 3
3 36 37 117 3
3 36 117 116 3
3 160 37 36 3
3 161 116 117 3
3 37 38 118 3
3 37 118 117 3
3 160 38 37 3
3 161 117 118 3
3 38 39 119 3
3 38 119 118 3
3 160 39 38 3
3 161 118 119 3
3 39 40 120 3
3 39 120 119 3
3 160 40 39 3
3 161 119 120 3
3 40 41 121 3
3 40 121 120 3
3 160 41 40 3
3 161 120 121 3
3 41 42 122 3
3 41 122 121 3
3 160 42 41 3
3 161 121 122 3
3 42 43 123 3
3 42 123 122 3
3 160 43 42 3
3 161 122 123 3
3 43 44 124 3
3 43 124 123 3
3 160 44 43 3
3 161 123 124 3
3 44 45 125 3
3 44 125 124 3
3 160 45 44 3
3 161 124 125 3
3 45 46 126 3
3 45 126 125 3
3 160 46 45 3
3 161 125 126 3
3 46 47 127 3
3 46 127 126 3
3 160 47 46 3
3 161 126 127 3
3 47 48 128 3
3 47 128 127 3
3 160 48 47 3
3 161 127 128 3
3 48 49 129 3
3 48 129 128 3
3 160 49 48 3
3 161 128 129 3
3 49 50 130 3
3 49 130 129 3
3 160 50 49 3
3 161 129 130 3
3 50 51 131 3
3 50 131 130 3
3 160 51 50 3
3 161 130 131 3
3 51 52 132 3
3 51 132 131 3
3 160 52 51 3
3 161 131 132 3
3 52 53 133 3
3 52 133 132 3
3 160 53 52 3
3 161 132 133 3
3 53 54 134 3
3 53 134 133 3
3 160 54 53 3
3 161 133 134 3
3 54 55 135 3
3 54 135 134 3
3 160 55 54 3
3 161 134 135 3
3 55 56 136 3
3 55 136 135 3
3 160 56 55 3
3 161 135 136 3
3 56 57 137 3
3 56 137 136 3
3 160 57 56 3
3 161 136 137 3
3 57 58 138 3
3 57 138 137 3
3 160 58 57 3
3 161 137 138 3
3 58 59 139 3
3 58 139 138 3
3 160 59 58 3
3 161 138 139 3
3 59 60 140 3
3 59 140 139 3
3 160 60 59 3
3 161 139 140 3
3 60 61 141 3
3 60 141 140 3
3 160 61 60 3
3 161 140 141 3
3 61 62 142 3
3 61 142 141 3
3 160 62 61 3
3 161 141 142 3
3 62 63 143 3
3 62 143 142 3
3 160 63 62 3
3 161 142 143 3
3 63 64 144 3
3 63 144 143 3
3 160 64 63 3
3 161 143 144 3
3 64 65 145 3
3 64 145 144 3
3 160 65 64 3
3 161 144 145 3
3 65 66 146 3
3 65 146 145 3
3 160 66 65 3
3 161 145 146 3
3 66 67 147 3
3 66 147 146 3
3 160 67 66 3
3 161 146 147 3
3 67 68 148 3
3 67 148 147 3
3 160 68 67 3
3 161 147 148 3
3 68 69 149 3
3 68 149 148 3
3 160 69 68 3
3 161 148 149 3
3 69 70 150 3
3 69 150 149 3
3 160 70 69 3
3 161 149 150 3
3 70 71 151 3
3 70 151 150 3
3 160 71 70 3
3 161 150 151 3
3 71 72 152 3
3 71 152 151 3
3 160 72 71 3
3 161 151 152 3
3 72 73 153 3
3 72 153 152 3
3 160 73 72 3
3 161 152 153 3
3 73 74 154 3
3 73 154 153 3
3 160 74 73 3
3 161 153 154 3
3 74 75 155 3
3 74 155 154 3
3 160 75 74 3
3 161 154 155 3
3 75 76 156 3
3 75 156 155 3
3 160 76 75 3
3 161 155 156 3
3 76 77 157 3
3 76 157 156 3
3 160 77 76 3
3 161 156 157 3
3 77 78 158 3
3 77 158 157 3
3 160 78 77 3
3 161 157 158 3
3 78 79 159 3
3 78 159 158 3
3 160 79 78 3
3 161 158 159 3
3 79 0 80 3
3 79 80 159 3
3 160 0 79 3
3 161 159 80 3
