ply
format ascii 1.0
comment provenance fitted_structural_not_observed_identity
comment seven editable closed parts with intentional joint overlap
element vertex 162
property float x
property float y
property float z
property uchar red
property uchar green
property uchar blue
property int part_id
element face 320
property list uchar int vertex_indices
property int part_id
end_header
0.349480424 0.465941296 -1.406764549 143 127 104 0
0.326993324 0.465941296 -1.405881029 143 127 104 0
0.304644865 0.465941296 -1.403235914 143 127 104 0
0.282572832 0.465941296 -1.398845514 143 127 104 0
0.260913307 0.465941296 -1.392736896 143 127 104 0
0.239799827 0.465941296 -1.384947722 143 127 104 0
0.219362565 0.465941296 -1.375526015 143 127 104 0
0.199727523 0.465941296 -1.364529863 143 127 104 0
0.181015757 0.465941296 -1.352027061 143 127 104 0
0.163342631 0.465941296 -1.338094692 143 127 104 0
0.146817107 0.465941296 -1.322818655 143 127 104 0
0.131541070 0.465941296 -1.306293131 143 127 104 0
0.117608702 0.465941296 -1.288620006 143 127 104 0
0.105105899 0.465941296 -1.269908240 143 127 104 0
0.094109747 0.465941296 -1.250273198 143 127 104 0
0.084688040 0.465941296 -1.229835935 143 127 104 0
0.076898866 0.465941296 -1.208722456 143 127 104 0
0.070790249 0.465941296 -1.187062930 143 127 104 0
0.066399848 0.465941296 -1.164990898 143 127 104 0
0.063754734 0.465941296 -1.142642438 143 127 104 0
0.062871213 0.465941296 -1.120155339 143 127 104 0
0.063754734 0.465941296 -1.097668240 143 127 104 0
0.066399848 0.465941296 -1.075319781 143 127 104 0
0.070790249 0.465941296 -1.053247748 143 127 104 0
0.076898866 0.465941296 -1.031588222 143 127 104 0
0.084688040 0.465941296 -1.010474743 143 127 104 0
0.094109747 0.465941296 -0.990037480 143 127 104 0
0.105105899 0.465941296 -0.970402438 143 127 104 0
0.117608702 0.465941296 -0.951690672 143 127 104 0
0.131541070 0.465941296 -0.934017547 143 127 104 0
0.146817107 0.465941296 -0.917492023 143 127 104 0
0.163342631 0.465941296 -0.902215986 143 127 104 0
0.181015757 0.465941296 -0.888283617 143 127 104 0
0.199727523 0.465941296 -0.875780815 143 127 104 0
0.219362565 0.465941296 -0.864784663 143 127 104 0
0.239799827 0.465941296 -0.855362956 143 127 104 0
0.260913307 0.465941296 -0.847573782 143 127 104 0
0.282572832 0.465941296 -0.841465164 143 127 104 0
0.304644865 0.465941296 -0.837074764 143 127 104 0
0.326993324 0.465941296 -0.834429649 143 127 104 0
0.349480424 0.465941296 -0.833546129 143 127 104 0
0.371967523 0.465941296 -0.834429649 143 127 104 0
0.394315982 0.465941296 -0.837074764 143 127 104 0
0.416388015 0.465941296 -0.841465164 143 127 104 0
0.438047540 0.465941296 -0.847573782 143 127 104 0
0.459161020 0.465941296 -0.855362956 143 127 104 0
0.479598282 0.465941296 -0.864784663 143 127 104 0
0.499233325 0.465941296 -0.875780815 143 127 104 0
0.517945091 0.465941296 -0.888283617 143 127 104 0
0.535618216 0.465941296 -0.902215986 143 127 104 0
0.552143740 0.465941296 -0.917492023 143 127 104 0
0.567419777 0.465941296 -0.934017547 143 127 104 0
0.581352145 0.465941296 -0.951690672 143 127 104 0
0.593854948 0.465941296 -0.970402438 143 127 104 0
0.604851100 0.465941296 -0.990037480 143 127 104 0
0.614272807 0.465941296 -1.010474743 143 127 104 0
0.622061981 0.465941296 -1.031588222 143 127 104 0
0.628170599 0.465941296 -1.053247748 143 127 104 0
0.632560999 0.465941296 -1.075319781 143 127 104 0
0.635206113 0.465941296 -1.097668240 143 127 104 0
0.636089634 0.465941296 -1.120155339 143 127 104 0
0.635206113 0.465941296 -1.142642438 143 127 104 0
0.632560999 0.465941296 -1.164990898 143 127 104 0
0.628170599 0.465941296 -1.187062930 143 127 104 0
0.622061981 0.465941296 -1.208722456 143 127 104 0
0.614272807 0.465941296 -1.229835935 143 127 104 0
0.604851100 0.465941296 -1.250273198 143 127 104 0
0.593854948 0.465941296 -1.269908240 143 127 104 0
0.581352145 0.465941296 -1.288620006 143 127 104 0
0.567419777 0.465941296 -1.306293131 143 127 104 0
0.552143740 0.465941296 -1.322818655 143 127 104 0
0.535618216 0.465941296 -1.338094692 143 127 104 0
0.517945091 0.465941296 -1.352027061 143 127 104 0
0.499233325 0.465941296 -1.364529863 143 127 104 0
0.479598282 0.465941296 -1.375526015 143 127 104 0
0.459161020 0.465941296 -1.384947722 143 127 104 0
0.438047540 0.465941296 -1.392736896 143 127 104 0
0.416388015 0.465941296 -1.398845514 143 127 104 0
0.394315982 0.465941296 -1.403235914 143 127 104 0
0.371967523 0.465941296 -1.405881029 143 127 104 0
0.349480424 0.515005897 -1.406764549 143 127 104 0
0.326993324 0.515005897 -1.405881029 143 127 104 0
0.304644865 0.515005897 -1.403235914 143 127 104 0
0.282572832 0.515005897 -1.398845514 143 127 104 0
0.260913307 0.515005897 -1.392736896 143 127 104 0
0.239799827 0.515005897 -1.384947722 143 127 104 0
0.219362565 0.515005897 -1.375526015 143 127 104 0
0.199727523 0.515005897 -1.364529863 143 127 104 0
0.181015757 0.515005897 -1.352027061 143 127 104 0
0.163342631 0.515005897 -1.338094692 143 127 104 0
0.146817107 0.515005897 -1.322818655 143 127 104 0
0.131541070 0.515005897 -1.306293131 143 127 104 0
0.117608702 0.515005897 -1.288620006 143 127 104 0
0.105105899 0.515005897 -1.269908240 143 127 104 0
0.094109747 0.515005897 -1.250273198 143 127 104 0
0.084688040 0.515005897 -1.229835935 143 127 104 0
0.076898866 0.515005897 -1.208722456 143 127 104 0
0.070790249 0.515005897 -1.187062930 143 127 104 0
0.066399848 0.515005897 -1.164990898 143 127 104 0
0.063754734 0.515005897 -1.142642438 143 127 104 0
0.062871213 0.515005897 -1.120155339 143 127 104 0
0.063754734 0.515005897 -1.097668240 143 127 104 0
0.066399848 0.515005897 -1.075319781 143 127 104 0
0.070790249 0.515005897 -1.053247748 143 127 104 0
0.076898866 0.515005897 -1.031588222 143 127 104 0
0.084688040 0.515005897 -1.010474743 143 127 104 0
0.094109747 0.515005897 -0.990037480 143 127 104 0
0.105105899 0.515005897 -0.970402438 143 127 104 0
0.117608702 0.515005897 -0.951690672 143 127 104 0
0.131541070 0.515005897 -0.934017547 143 127 104 0
0.146817107 0.515005897 -0.917492023 143 127 104 0
0.163342631 0.515005897 -0.902215986 143 127 104 0
0.181015757 0.515005897 -0.888283617 143 127 104 0
0.199727523 0.515005897 -0.875780815 143 127 104 0
0.219362565 0.515005897 -0.864784663 143 127 104 0
0.239799827 0.515005897 -0.855362956 143 127 104 0
0.260913307 0.515005897 -0.847573782 143 127 104 0
0.282572832 0.515005897 -0.841465164 143 127 104 0
0.304644865 0.515005897 -0.837074764 143 127 104 0
0.326993324 0.515005897 -0.834429649 143 127 104 0
0.349480424 0.515005897 -0.833546129 143 127 104 0
0.371967523 0.515005897 -0.834429649 143 127 104 0
0.394315982 0.515005897 -0.837074764 143 127 104 0
0.416388015 0.515005897 -0.841465164 143 127 104 0
0.438047540 0.515005897 -0.847573782 143 127 104 0
0.459161020 0.515005897 -0.855362956 143 127 104 0
0.479598282 0.515005897 -0.864784663 143 127 104 0
0.499233325 0.515005897 -0.875780815 143 127 104 0
0.517945091 0.515005897 -0.888283617 143 127 104 0
0.535618216 0.515005897 -0.902215986 143 127 104 0
0.552143740 0.515005897 -0.917492023 143 127 104 0
0.567419777 0.515005897 -0.934017547 143 127 104 0
0.581352145 0.515005897 -0.951690672 143 127 104 0
0.593854948 0.515005897 -0.970402438 143 127 104 0
0.604851100 0.515005897 -0.990037480 143 127 104 0
0.614272807 0.515005897 -1.010474743 143 127 104 0
0.622061981 0.515005897 -1.031588222 143 127 104 0
0.628170599 0.515005897 -1.053247748 143 127 104 0
0.632560999 0.515005897 -1.075319781 143 127 104 0
0.635206113 0.515005897 -1.097668240 143 127 104 0
0.636089634 0.515005897 -1.120155339 143 127 104 0
0.635206113 0.515005897 -1.142642438 143 127 104 0
0.632560999 0.515005897 -1.164990898 143 127 104 0
0.628170599 0.515005897 -1.187062930 143 127 104 0
0.622061981 0.515005897 -1.208722456 143 127 104 0
0.614272807 0.515005897 -1.229835935 143 127 104 0
0.604851100 0.515005897 -1.250273198 143 127 104 0
0.593854948 0.515005897 -1.269908240 143 127 104 0
0.581352145 0.515005897 -1.288620006 143 127 104 0
0.567419777 0.515005897 -1.306293131 143 127 104 0
0.552143740 0.515005897 -1.322818655 143 127 104 0
0.535618216 0.515005897 -1.338094692 143 127 104 0
0.517945091 0.515005897 -1.352027061 143 127 104 0
0.499233325 0.515005897 -1.364529863 143 127 104 0
0.479598282 0.515005897 -1.375526015 143 127 104 0
0.459161020 0.515005897 -1.384947722 143 127 104 0
0.438047540 0.515005897 -1.392736896 143 127 104 0
0.416388015 0.515005897 -1.398845514 143 127 104 0
0.394315982 0.515005897 -1.403235914 143 127 104 0
0.371967523 0.515005897 -1.405881029 143 127 104 0
0.349480424 0.465941296 -1.120155339 143 127 104 0
0.349480424 0.515005897 -1.120155339 143 127 104 0
3 0 1 81 0
3 0 81 80 0
3 160 1 0 0
3 161 80 81 0
3 1 2 82 0
3 1 82 81 0
3 160 2 1 0
3 161 81 82 0
3 2 3 83 0
3 2 83 82 0
3 160 3 2 0
3 161 82 83 0
3 3 4 84 0
3 3 84 83 0
3 160 4 3 0
3 161 83 84 0
3 4 5 85 0
3 4 85 84 0
3 160 5 4 0
3 161 84 85 0
3 5 6 86 0
3 5 86 85 0
3 160 6 5 0
3 161 85 86 0
3 6 7 87 0
3 6 87 86 0
3 160 7 6 0
3 161 86 87 0
3 7 8 88 0
3 7 88 87 0
3 160 8 7 0
3 161 87 88 0
3 8 9 89 0
3 8 89 88 0
3 160 9 8 0
3 161 88 89 0
3 9 10 90 0
3 9 90 89 0
3 160 10 9 0
3 161 89 90 0
3 10 11 91 0
3 10 91 90 0
3 160 11 10 0
3 161 90 91 0
3 11 12 92 0
3 11 92 91 0
3 160 12 11 0
3 161 91 92 0
3 12 13 93 0
3 12 93 92 0
3 160 13 12 0
3 161 92 93 0
3 13 14 94 0
3 13 94 93 0
3 160 14 13 0
3 161 93 94 0
3 14 15 95 0
3 14 95 94 0
3 160 15 14 0
3 161 94 95 0
3 15 16 96 0
3 15 96 95 0
3 160 16 15 0
3 161 95 96 0
3 16 17 97 0
3 16 97 96 0
3 160 17 16 0
3 161 96 97 0
3 17 18 98 0
3 17 98 97 0
3 160 18 17 0
3 161 97 98 0
3 18 19 99 0
3 18 99 98 0
3 160 19 18 0
3 161 98 99 0
3 19 20 100 0
3 19 100 99 0
3 160 20 19 0
3 161 99 100 0
3 20 21 101 0
3 20 101 100 0
3 160 21 20 0
3 161 100 101 0
3 21 22 102 0
3 21 102 101 0
3 160 22 21 0
3 161 101 102 0
3 22 23 103 0
3 22 103 102 0
3 160 23 22 0
3 161 102 103 0
3 23 24 104 0
3 23 104 103 0
3 160 24 23 0
3 161 103 104 0
3 24 25 105 0
3 24 105 104 0
3 160 25 24 0
3 161 104 105 0
3 25 26 106 0
3 25 106 105 0
3 160 26 25 0
3 161 105 106 0
3 26 27 107 0
3 26 107 106 0
3 160 27 26 0
3 161 106 107 0
3 27 28 108 0
3 27 108 107 0
3 160 28 27 0
3 161 107 108 0
3 28 29 109 0
3 28 109 108 0
3 160 29 28 0
3 161 108 109 0
3 29 30 110 0
3 29 110 109 0
3 160 30 29 0
3 161 109 110 0
3 30 31 111 0
3 30 111 110 0
3 160 31 30 0
3 161 110 111 0
3 31 32 112 0
3 31 112 111 0
3 160 32 31 0
3 161 111 112 0
3 32 33 113 0
3 32 113 112 0
3 160 33 32 0
3 161 112 113 0
3 33 34 114 0
3 33 114 113 0
3 160 34 33 0
3 161 113 114 0
3 34 35 115 0
3 34 115 114 0
3 160 35 34 0
3 161 114 115 0
3 35 36 116 0
3 35 116 115 0
3 160 36 35 0
3 161 115 116 0
3 36 37 117 0
3 36 117 116 0
3 160 37 36 0
3 161 116 117 0
3 37 38 118 0
3 37 118 117 0
3 160 38 37 0
3 161 117 118 0
3 38 39 119 0
3 38 119 118 0
3 160 39 38 0
3 161 118 119 0
3 39 40 120 0
3 39 120 119 0
3 160 40 39 0
3 161 119 120 0
3 40 41 121 0
3 40 121 120 0
3 160 41 40 0
3 161 120 121 0
3 41 42 122 0
3 41 122 121 0
3 160 42 41 0
3 161 121 122 0
3 42 43 123 0
3 42 123 122 0
3 160 43 42 0
3 161 122 123 0
3 43 44 124 0
3 43 124 123 0
3 160 44 43 0
3 161 123 124 0
3 44 45 125 0
3 44 125 124 0
3 160 45 44 0
3 161 124 125 0
3 45 46 126 0
3 45 126 125 0
3 160 46 45 0
3 161 125 126 0
3 46 47 127 0
3 46 127 126 0
3 160 47 46 0
3 161 126 127 0
3 47 48 128 0
3 47 128 127 0
3 160 48 47 0
3 161 127 128 0
3 48 49 129 0
3 48 129 128 0
3 160 49 48 0
3 161 128 129 0
3 49 50 130 0
3 49 130 129 0
3 160 50 49 0
3 161 129 130 0
3 50 51 131 0
3 50 131 130 0
3 160 51 50 0
3 161 130 131 0
3 51 52 132 0
3 51 132 131 0
3 160 52 51 0
3 161 131 132 0
3 52 53 133 0
3 52 133 132 0
3 160 53 52 0
3 161 132 133 0
3 53 54 134 0
3 53 134 133 0
3 160 54 53 0
3 161 133 134 0
3 54 55 135 0
3 54 135 134 0
3 160 55 54 0
3 161 134 135 0
3 55 56 136 0
3 55 136 135 0
3 160 56 55 0
3 161 135 136 0
3 56 57 137 0
3 56 137 136 0
3 160 57 56 0
3 161 136 137 0
3 57 58 138 0
3 57 138 137 0
3 160 58 57 0
3 161 137 138 0
3 58 59 139 0
3 58 139 138 0
3 160 59 58 0
3 161 138 139 0
3 59 60 140 0
3 59 140 139 0
3 160 60 59 0
3 161 139 140 0
3 60 61 141 0
3 60 141 140 0
3 160 61 60 0
3 161 140 141 0
3 61 62 142 0
3 61 142 141 0
3 160 62 61 0
3 161 141 142 0
3 62 63 143 0
3 62 143 142 0
3 160 63 62 0
3 161 142 143 0
3 63 64 144 0
3 63 144 143 0
3 160 64 63 0
3 161 143 144 0
3 64 65 145 0
3 64 145 144 0
3 160 65 64 0
3 161 144 145 0
3 65 66 146 0
3 65 146 145 0
3 160 66 65 0
3 161 145 146 0
3 66 67 147 0
3 66 147 146 0
3 160 67 66 0
3 161 146 147 0
3 67 68 148 0
3 67 148 147 0
3 160 68 67 0
3 161 147 148 0
3 68 69 149 0
3 68 149 148 0
3 160 69 68 0
3 161 148 149 0
3 69 70 150 0
3 69 150 149 0
3 160 70 69 0
3 161 149 150 0
3 70 71 151 0
3 70 151 150 0
3 160 71 70 0
3 161 150 151 0
3 71 72 152 0
3 71 152 151 0
3 160 72 71 0
3 161 151 152 0
3 72 73 153 0
3 72 153 152 0
3 160 73 72 0
3 161 152 153 0
3 73 74 154 0
3 73 154 153 0
3 160 74 73 0
3 161 153 154 0
3 74 75 155 0
3 74 155 154 0
3 160 75 74 0
3 161 154 155 0
3 75 76 156 0
3 75 156 155 0
3 160 76 75 0
3 161 155 156 0
3 76 77 157 0
3 76 157 156 0
3 160 77 76 0
3 161 156 157 0
3 77 78 158 0
3 77 158 157 0
3 160 78 77 0
3 161 157 158 0
3 78 79 159 0
3 78 159 158 0
3 160 79 78 0
3 161 158 159 0
3 79 0 80 0
3 79 80 159 0
3 160 0 79 0
3 161 159 80 0
